<?xml version="1.0" encoding="UTF-8"?>
<svg xmlns="http://www.w3.org/2000/svg" xmlns:xlink="http://www.w3.org/1999/xlink" id="Laag_1" width="195" height="130" version="1.1" viewBox="0 0 195 130">
  <defs>
    <style>
      .st0 {
        fill: url(#Naamloos_verloop_9);
      }

      .st1 {
        fill: #fff;
      }

      .st2 {
        fill: url(#Naamloos_verloop_11);
      }

      .st3 {
        fill: url(#Naamloos_verloop_12);
      }

      .st4 {
        fill: #292929;
      }

      .st5 {
        fill: #afafaf;
      }

      .st6 {
        isolation: isolate;
      }

      .st7 {
        fill: #acacac;
      }

      .st8 {
        fill: #9f9f9f;
      }

      .st9 {
        fill: url(#Naamloos_verloop_10);
      }

      .st10 {
        fill: #616161;
      }

      .st11 {
        fill: #161616;
      }
    </style>
    <linearGradient id="Naamloos_verloop_12" data-name="Naamloos verloop 12" x1="158.2568" y1="79.3957" x2="156.3879" y2="81.9715" gradientTransform="translate(0 132) scale(1 -1)" gradientUnits="userSpaceOnUse">
      <stop offset=".05" stop-color="#606060"></stop>
      <stop offset=".24" stop-color="#8f8f8f"></stop>
      <stop offset=".41" stop-color="#b3b3b3"></stop>
      <stop offset=".49" stop-color="#c2c2c2"></stop>
      <stop offset=".5" stop-color="#c2c2c2"></stop>
      <stop offset=".57" stop-color="#c2c2c2"></stop>
      <stop offset=".65" stop-color="#c2c2c2"></stop>
      <stop offset=".87" stop-color="#acacac"></stop>
    </linearGradient>
    <linearGradient id="Naamloos_verloop_11" data-name="Naamloos verloop 11" x1="172.3565" y1="97.9568" x2="176.4022" y2="92.6275" gradientTransform="translate(0 132) scale(1 -1)" gradientUnits="userSpaceOnUse">
      <stop offset=".05" stop-color="#acacac"></stop>
      <stop offset=".14" stop-color="#c5c5c5"></stop>
      <stop offset=".24" stop-color="#d7d7d7"></stop>
      <stop offset=".3" stop-color="#dedede"></stop>
      <stop offset=".49" stop-color="#dedede"></stop>
      <stop offset=".76" stop-color="#bfbfbf"></stop>
      <stop offset=".94" stop-color="#acacac"></stop>
    </linearGradient>
    <linearGradient id="Naamloos_verloop_10" data-name="Naamloos verloop 10" x1="140.475" y1="94.1582" x2="146.5242" y2="96.8771" gradientTransform="translate(0 132) scale(1 -1)" gradientUnits="userSpaceOnUse">
      <stop offset=".08" stop-color="#292929"></stop>
      <stop offset=".9" stop-color="#acacac"></stop>
    </linearGradient>
    <linearGradient id="Naamloos_verloop_9" data-name="Naamloos verloop 9" x1="173.3408" y1="62.5676" x2="174.5159" y2="68.6168" gradientTransform="translate(0 132) scale(1 -1)" gradientUnits="userSpaceOnUse">
      <stop offset=".22" stop-color="#292929"></stop>
      <stop offset=".82" stop-color="#ababab"></stop>
    </linearGradient>
  </defs>
  <polygon class="st8" points="140.2844 44.3294 162.8983 44.3294 162.8983 44.3294 140.2844 44.3294"></polygon>
  <g class="st6">
    <g class="st6">
      <path class="st5" d="M146.1558,33.3152h.3599-.3599"></path>
    </g>
  </g>
  <polygon class="st10" points="163.5704 48.3275 165.1098 49.1904 153.276 70.2736 152.244 68.5087 163.5704 48.3275"></polygon>
  <path class="st11" d="M162.894,46.0943c.4629,0,.8389.374.8412.8369v.7719c.001.219-.0559.4344-.1648.6244l-11.3438,20.1812h-5.7109c-2.4655-.0048-4.4636-2.001-4.4707-4.4664v-17.948h20.849Z"></path>
  <path class="st3" d="M162.894,44.3294h-22.6095l1.7605,1.7649h20.849c.4629,0,.8389.374.8412.8369v.7719c.001.219-.0559.4344-.1648.6244l1.5394.8673c.2528-.455.3856-.9668.3859-1.4874v-.7762c0-1.4369-1.1649-2.6018-2.6018-2.6018Z"></path>
  <path class="st4" d="M152.2266,68.5087h-5.7109c-2.4655-.0048-4.4636-2.001-4.4707-4.4664v-17.948l-1.7605-1.7649v19.7129c0,3.4414,2.7898,6.2313,6.2313,6.2313h6.7603l-1.0494-1.7649Z"></path>
  <path class="st4" d="M171.9482,49.0994h-1.7649c.0048-3.1517-2.5462-5.7105-5.6979-5.7153-.0029,0-.0058,0-.0087,0v-1.7519c4.1216-.0048,7.4667,3.3325,7.4715,7.4541v.013Z"></path>
  <rect class="st7" x="175.3956" y="39.5465" width="1.7649" height="24.2617"></rect>
  <path class="st4" d="M171.9482,49.0994c.0024-4.1216-3.3369-7.4647-7.4585-7.4671-.0043,0-.0087,0-.013,0h-22.4274v-2.0858h-1.7605v3.8463h24.188c3.1517,0,5.7066,2.5549,5.7066,5.7066,0,.0029,0,.0058,0,.0087l.0911,21.2826,1.7345-2.2679-.0607-19.0234Z"></path>
  <g class="st6">
    <path class="st2" d="M170.9292,35.0801v-1.7649c3.4395.0048,6.2265,2.7918,6.2313,6.2313h-1.7649c-.0024-2.4657-2.0007-4.464-4.4664-4.4664Z"></path>
  </g>
  <path class="st11" d="M170.9292,35.0801c2.4657.0024,4.464,2.0007,4.4664,4.4664v24.2834c.0078,2.0483-1.3826,3.8377-3.3693,4.3363l-.0781-19.0234c.0024-4.1216-3.3369-7.4647-7.4585-7.4671-.0043,0-.0087,0-.013,0h-22.4274v-2.1291c.0024-2.4657,2.0007-4.464,4.4664-4.4664h24.4135Z"></path>
  <rect class="st7" x="146.5157" y="33.3152" width="24.4091" height="1.7649"></rect>
  <path class="st9" d="M142.1144,35.1408c-1.1715,1.1665-1.8287,2.7525-1.8256,4.4057h1.7605c.0024-2.4657,2.0007-4.464,4.4664-4.4664v-1.7649c-1.6517-.0019-3.2359.6552-4.4014,1.8256Z"></path>
  <path class="st0" d="M175.3956,63.8082c.0078,2.0483-1.3826,3.8377-3.3693,4.3363l-1.7345,2.2679c4.9521-1.2619,6.8817-3.7336,6.8861-6.5825l-1.7822-.0217Z"></path>
  <path class="st11" d="M34.7291,33.9714h9.833l14.154,36.8311h-9.901l-3.5725-9.3906h-14.4432l-3.6066,9.3906h-6.6007l14.137-36.8311ZM42.997,55.6618l-5.0015-13.0652-4.9845,13.0652h9.9861Z"></path>
  <path class="st11" d="M62.0504,63.4703c3.1612,1.3755,6.5569,2.132,10.0031,2.2286,2.5858,0,6.1073-.7145,6.1073-4.0319,0-5.9712-16.4336-6.5837-16.4336-18.2199,0-7.4002,6.6517-10.3603,13.1163-10.3603,3.684.0426,7.3565.4184,10.9728,1.1228v6.992c-3.0067-1.1906-6.1933-1.8636-9.4247-1.9904-1.9564,0-4.8144.7655-4.8144,3.1642,0,5.5629,17.012,6.2774,17.012,18.322,0,3.7256-1.9394,11.1259-15.1067,11.1259-3.8322-.0273-7.6557-.3687-11.4321-1.0207v-7.3322Z"></path>
  <path class="st11" d="M94.3903,33.9714h8.2168l15.6681,22.1157h.1021v-22.1157h7.4002v36.8311h-8.1658l-15.7021-22.1157h-.1191v22.1157h-7.4002v-36.8311Z"></path>
  <path class="st11" d="M18.6537,75.2652h151.4704c3.8957,0,7.0537,1.3573,7.0537,3.0316v16.7906H25.7074c-3.8957,0-7.0537-1.3573-7.0537-3.0316v-16.7906h0Z"></path>
  <g>
    <path class="st1" d="M36.4416,91.6884l-.8787-2.8849h-4.4177l-.8787,2.8849h-2.7686l4.2769-12.1678h3.1416l4.2936,12.1678h-2.7686ZM34.95,86.6491c-.8124-2.6137-1.2697-4.0921-1.3719-4.4352-.1022-.3422-.1758-.6134-.2199-.8119-.1822.7075-.7046,2.4563-1.5665,5.2471h3.1583Z"></path>
    <path class="st1" d="M53.4168,79.5702v7.8412c0,.8949-.2002,1.6795-.6006,2.3536-.4008.6742-.9796,1.1909-1.7368,1.5503s-1.6521.539-2.6856.539c-1.5584,0-2.7686-.3995-3.6306-1.1978s-1.2928-1.8916-1.2928-3.2785v-7.8078h2.5611v7.4186c0,.9334.1878,1.6187.5634,2.0551.376.4372.9976.6554,1.8651.6554.8402,0,1.4493-.2199,1.8279-.6588.3782-.4398.5677-1.1293.5677-2.0687v-7.4014h2.5611Z"></path>
    <path class="st1" d="M63.8777,91.6884h-2.5697v-9.9801h-3.2909v-2.138h9.1511v2.138h-3.2905v9.9801Z"></path>
    <path class="st1" d="M82.8506,85.6122c0,2.0063-.4975,3.548-1.4921,4.626-.9946,1.0772-2.4204,1.6162-4.2769,1.6162s-3.2824-.539-4.2769-1.6162c-.995-1.078-1.4921-2.6249-1.4921-4.6423s.4984-3.5574,1.4959-4.6209,2.4272-1.5956,4.2898-1.5956,3.2862.5356,4.2727,1.6076c.9865,1.0729,1.4797,2.6146,1.4797,4.6252ZM74.0063,85.6122c0,1.3544.2571,2.3742.7709,3.0586.5142.6853,1.2821,1.0284,2.3045,1.0284,2.0499,0,3.0753-1.3621,3.0753-4.087,0-2.7292-1.0198-4.0947-3.0586-4.0947-1.0224,0-1.7933.3448-2.3126,1.0327-.5198.6879-.7794,1.7086-.7794,3.062Z"></path>
    <path class="st1" d="M95.3332,88.3235c0,1.0934-.3944,1.9558-1.1815,2.5855-.7871.6305-1.8831.9454-3.2862.9454-1.2936,0-2.4375-.243-3.4317-.7298v-2.387c.8179.3645,1.5092.622,2.0764.7709.5664.1489,1.084.2242,1.5537.2242.5638,0,.9959-.1078,1.297-.3234s.4517-.5364.4517-.9616c0-.2378-.0659-.4492-.1985-.634-.1326-.1857-.3277-.3636-.5843-.5347s-.7811-.4449-1.5708-.8205c-.7409-.3482-1.2962-.6827-1.6658-1.0036-.3705-.32-.6665-.693-.8872-1.1182-.2207-.4261-.332-.9231-.332-1.4921,0-1.072.3636-1.9147,1.09-2.5282.7272-.6134,1.7317-.9206,3.0133-.9206.6297,0,1.2312.0744,1.8027.2242.5724.1489,1.1704.3593,1.795.6297l-.829,1.9977c-.6468-.2652-1.1815-.45-1.6042-.5553s-.8384-.1574-1.2474-.1574c-.486,0-.859.1129-1.1191.3397-.2592.2267-.3893.5219-.3893.8872,0,.2267.0522.4235.1574.592.1052.1694.2721.332.5014.4894s.7726.4406,1.629.8496c1.1328.5416,1.9088,1.0849,2.3288,1.629s.6305,1.2115.6305,2.002Z"></path>
    <path class="st1" d="M105.4951,81.5346c-.9668,0-1.7154.3636-2.2458,1.09-.5313.7264-.7965,1.7394-.7965,3.0381,0,2.7019,1.0147,4.0528,3.0424,4.0528.8513,0,1.8814-.2122,3.092-.6382v2.1552c-.995.4149-2.1055.622-3.3324.622-1.7625,0-3.1108-.5347-4.0451-1.6042-.9334-1.0694-1.4006-2.6043-1.4006-4.6046,0-1.2594.2293-2.3631.6879-3.311s1.1174-1.6743,1.9772-2.18c.859-.5056,1.866-.7589,3.021-.7589,1.1773,0,2.3596.2849,3.548.8538l-.829,2.0893c-.4534-.2156-.9095-.4038-1.368-.5638s-.9086-.2404-1.3509-.2404Z"></path>
    <path class="st1" d="M123.9128,91.6884h-2.5607v-5.23h-4.7997v5.23h-2.5692v-12.1182h2.5692v4.7492h4.7997v-4.7492h2.5607v12.1182Z"></path>
    <path class="st1" d="M137.209,91.6884l-.8787-2.8849h-4.4181l-.8787,2.8849h-2.7686l4.2769-12.1678h3.1416l4.2941,12.1678h-2.7686ZM135.717,86.6491c-.8128-2.6137-1.2697-4.0921-1.3723-4.4352-.1018-.3422-.1754-.6134-.219-.8119-.1831.7075-.705,2.4563-1.5665,5.2471h3.1579Z"></path>
    <path class="st1" d="M154.375,85.5129c0,1.9952-.5681,3.5232-1.7034,4.5841-1.1362,1.0609-2.7754,1.5913-4.9195,1.5913h-3.4317v-12.1182h3.8047c1.9781,0,3.5138.5219,4.608,1.5665s1.6418,2.5034,1.6418,4.3762ZM151.7057,85.5797c0-2.6026-1.1499-3.9039-3.4479-3.9039h-1.368v7.8908h1.1028c2.4751,0,3.7131-1.3295,3.7131-3.9869Z"></path>
    <path class="st1" d="M166.6831,91.6884h-6.9788v-12.1182h6.9788v2.1055h-4.4096v2.6608h4.1033v2.1047h-4.1033v3.1254h4.4096v2.1218Z"></path>
  </g>
</svg>
