<?xml version="1.0" encoding="UTF-8"?>
<svg xmlns="http://www.w3.org/2000/svg" id="Laag_1" width="195" height="130" version="1.1" viewBox="0 0 195 130">
  <path d="M67.9872,57.8394h-6.1128v8.1802h5.4535c.3563-.0328.6717.2295.7045.5857.0038.0413.0036.0828-.0005.124v3.6496c.0325.3563-.23.6715-.5864.704-.0391.0036-.0785.0036-.1176,0h-5.4535v11.6109c.0325.3563-.23.6715-.5864.704-.0391.0036-.0785.0036-.1176,0h-4.2226c-.3563.0325-.6715-.23-.704-.5864-.0036-.0391-.0036-.0785,0-.1176v-29.3851c-.0325-.3563.23-.6715.5864-.704.0391-.0036.0785-.0036.1176,0h11.0394c.3563-.0325.6715.23.704.5864.0036.0391.0036.0785,0,.1176v3.8266c.0325.3563-.23.6715-.5864.704-.0391.0036-.0785.0036-.1176,0Z"></path>
  <path d="M70.4231,82.6881v-29.3794c-.0325-.3563.23-.6715.5864-.704.0391-.0036.0785-.0036.1176,0h4.2226c.3563-.0325.6715.23.704.5864.0036.0391.0036.0785,0,.1176v29.3794c.0325.3563-.23.6715-.5864.704-.0391.0036-.0785.0036-.1176,0h-4.2226c-.3563.0325-.6715-.23-.704-.5864-.0036-.0391-.0036-.0785,0-.1176Z"></path>
  <path d="M90.1538,78.1589c.3554-.0333.6706.2279.7039.5833.0037.0397.0038.0796.0001.1192v3.8266c.0325.3563-.23.6715-.5864.704-.0391.0036-.0785.0036-.1176,0h-11.0855c-.3555.0326-.6701-.2292-.7027-.5848-.0036-.0397-.0036-.0796.0001-.1192v-29.3794c-.0324-.3563.2302-.6715.5865-.7039.0386-.0035.0775-.0035.1161-.0001h4.224c.3563-.0325.6715.23.704.5864.0036.0391.0036.0785,0,.1176v24.8502h6.1575Z"></path>
  <path d="M107.165,52.6048h5.0576c.3563-.0325.6715.23.704.5864.0036.0391.0036.0785,0,.1176v29.3794c.0325.3563-.23.6715-.5864.704-.0391.0036-.0785.0036-.1176,0h-3.8698c-.3563.0325-.6715-.23-.704-.5864-.0036-.0391-.0036-.0785,0-.1176v-15.8767h-.0432l-3.2997,11.1704c-.0876.3591-.4217.6026-.7904.5759h-1.4526c-.3691.0268-.7036-.2165-.7918-.5759l-3.2537-11.2525h-.0878v15.9587c.0325.3563-.23.6715-.5864.704-.0391.0036-.0785.0036-.1176,0h-3.9145c-.3563.0325-.6715-.23-.704-.5864-.0036-.0391-.0036-.0785,0-.1176v-29.3794c-.0325-.3563.23-.6715.5864-.704.0391-.0036.0785-.0036.1176,0h5.4578c.3809-.0214.719.2417.7918.6162l3.5186,12.4906,3.2983-12.4906c.0726-.3727.4082-.6354.7875-.6162Z"></path>
  <path d="M132.9812,69.4935c-.1756,3.7431-.835,6.7736-1.8917,9.0613l1.408,2.8146c.1756.3959.1324.704-.2635.9675l-3.0795,2.0155c-.3959.2635-.7472.1325-.9675-.2635l-.6594-1.3202c-1.24.7268-2.6528,1.1067-4.0901,1.0999-4.1347,0-7.6533-2.8146-7.6533-8.2248,0-3.8266,1.7146-6.025,3.9577-8.4941l-.5759-1.1431c-1.2712-2.4446-1.9695-4.8243-1.9695-7.1566,0-4.0901,2.0659-6.729,6.4641-6.729,5.1468,0,6.9493,3.1673,6.9104,8.3573-.0446.4391-.3081.704-.7486.704h-3.5704c-.4405,0-.704-.2649-.704-.7486,0-2.7267-.4837-4.0023-1.8917-4.0023-1.1431,0-1.539,1.1431-1.539,2.4633,0,1.3634.5759,3.0348,1.0553,4.0023l5.0144,9.8963c.1324-1.0567.3081-2.243.3513-3.6078.0446-.4391.3081-.7026.7486-.6594l2.9902.2188c.4405.0461.704.2649.704.7486ZM125.4603,78.598l-3.3429-6.6858c-.8796,1.1431-1.4066,2.1984-1.4066,3.6064,0,1.8025.8796,3.6942,2.9024,3.6942.6656-.0018,1.3131-.2173,1.8471-.6147Z"></path>
  <path d="M61.1128,108.5504v8.926c.0325.3563-.23.6715-.5864.704-.0391.0036-.0785.0036-.1176,0h-4.2211c-.3563.0325-.6715-.23-.704-.5864-.0036-.0391-.0036-.0785,0-.1176v-29.3765c-.0325-.3563.23-.6715.5864-.704.0391-.0036.0785-.0036.1176,0h4.7941c6.1128,0,9.0152,2.8577,9.0152,10.6435,0,7.3006-2.6389,10.4678-8.8842,10.511ZM64.3679,97.9515c0-4.7063-.5284-5.5859-2.9024-5.5859h-.3527v11.0855h.3527c2.4633-.0029,2.9024-.9257,2.9024-5.4995Z"></path>
  <path d="M81.212,87.3958h4.2226c.3563-.0325.6715.23.704.5864.0036.0391.0036.0785,0,.1176v29.3794c.0325.3563-.23.6715-.5864.704-.0391.0036-.0785.0036-.1176,0h-4.2226c-.3563.0325-.6715-.23-.704-.5864-.0036-.0391-.0036-.0785,0-.1176v-12.0069h-3.2105v12.0069c.0323.3563-.2304.6714-.5868.7036-.0376.0034-.0753.0035-.1129.0004h-4.2254c-.3563.0325-.6715-.23-.704-.5864-.0036-.0391-.0036-.0785,0-.1176v-29.3794c-.0325-.3563.23-.6715.5864-.704.0391-.0036.0785-.0036.1176,0h4.2254c.3563-.0325.6715.23.704.5864.0036.0391.0036.0785,0,.1176v12.1379h3.2105v-12.1379c-.0323-.3563.2304-.6714.5868-.7037.0376-.0034.0753-.0035.1129-.0003Z"></path>
  <path d="M88.1153,102.7888c0-10.8638.6594-15.8767,7.2574-15.8767s7.2559,5.0129,7.2559,15.8767c0,10.7759-.6147,15.8781-7.2559,15.8781s-7.2574-5.1022-7.2574-15.8781ZM97.0412,102.7888c0-8.7964,0-10.7745-1.6715-10.7745-1.6283,0-1.6283,1.9781-1.6283,10.7745,0,8.841,0,10.7759,1.6283,10.7759,1.6801,0,1.6801-1.9349,1.6801-10.7759h-.0086Z"></path>
  <path d="M117.892,88.0998v3.8238c.0325.3563-.23.6715-.5864.704-.0391.0036-.0785.0036-.1176,0h-3.5186v24.8516c.0325.3563-.23.6715-.5864.704-.0391.0036-.0785.0036-.1176,0h-4.2226c-.3564.0317-.671-.2315-.7027-.5879-.0034-.0386-.0034-.0775.0001-.1161v-24.8502h-3.5128c-.3563.0325-.6715-.23-.704-.5864-.0036-.0391-.0036-.0785,0-.1176v-3.8252c-.0325-.3563.23-.6715.5864-.704.0391-.0036.0785-.0036.1176,0h12.6691c.3567-.0277.6683.2391.696.5958.0028.036.0026.0722-.0007.1082Z"></path>
  <path d="M119.0523,102.7888c0-10.8638.6594-15.8767,7.2574-15.8767s7.2559,5.0115,7.2559,15.8767c0,10.7759-.6147,15.8781-7.2559,15.8781s-7.2574-5.1022-7.2574-15.8781ZM127.9783,102.7888c0-8.7964,0-10.7745-1.67-10.7745-1.6254,0-1.6254,1.9781-1.6254,10.7745,0,8.841,0,10.7759,1.6283,10.7759,1.6686,0,1.6686-1.9349,1.6686-10.7759h-.0014Z"></path>
  <path d="M53.9951,31.5237c0-11.0077.8768-17.6302,9.9841-17.6302,6.526,0,9.6919,3.8468,9.6919,13.101,0,.681-.3412,1.0222-.9747,1.0222h-6.6225c-.632,0-.9732-.3902-.9732-1.0711-.0489-4.1391-.3412-5.1627-1.218-5.1627-1.1201,0-1.1201,1.0236-1.1201,9.7408,0,8.9116-.0489,9.7394,1.0711,9.7394,1.0236,0,1.2669-1.3144,1.2669-5.4549,0-.681.3412-1.0711.9732-1.0711h6.6225c.6335,0,.9747.5356.9747,1.5102-.0965,9.1074-3.5517,12.9052-9.7423,12.9052-9.057,0-9.9337-6.8183-9.9337-17.6288Z"></path>
  <path d="M86.8037,47.6436l-.3902-3.7014h-4.4803l-.3887,3.7014c-.0489.632-.4391.9243-1.0236.9243h-6.3346c-.6335,0-1.0236-.4319-.9257-1.0711l5.2634-32.24c.0979-.6335.4391-.8768,1.0236-.8768h9.8373c.5845,0,.9732.2433,1.0711.8768l5.1627,32.2889c.0979.6335-.2879,1.0222-.9257,1.0222h-6.8658c-.5845,0-.9747-.2923-1.0236-.9243ZM85.6347,36.2472l-1.3634-13.3889h-.0979l-1.4123,13.3889h2.8736Z"></path>
  <path d="M118.0604,15.598l-5.0216,15.4865,4.9669,16.3633c.1944.6335-.144,1.1201-.8278,1.1201h-7.744c-.5845,0-.9243-.2879-1.0711-.8278l-1.7535-6.8183h-.144l-.93,1.9479v4.725c0,.6335-.3412.9732-.9732.9732h-6.8154c-.6335,0-.9747-.3398-.9747-.9732V15.4512c0-.632.3412-.9732.9747-.9732h6.8183c.632,0,.9732.3412.9732.9732v12.6691h.0979l2.97-12.8131c.144-.5356.4866-.8278,1.0711-.8278h7.5496c.681-.0014,1.0222.4362.8336,1.1186Z"></path>
  <path d="M134.5202,40.5821c.6335,0,.9747.3398.9747.9732v6.0466c0,.6335-.3412.9732-.9747.9732h-14.5119c-.6335,0-.9747-.3398-.9747-.9732V15.4512c0-.632.3412-.9732.9747-.9732h14.3665c.6335,0,.9732.3412.9732.9732v6.0466c0,.6335-.3398.9747-.9732.9747h-6.575v5.3988h5.8436c.6335,0,.9747.3398.9747.9732v5.6493c0,.6335-.3412.9747-.9747.9747h-5.8436v5.1137h6.7204Z"></path>
</svg>
