<?xml version="1.0" encoding="UTF-8"?>
<svg xmlns="http://www.w3.org/2000/svg" version="1.1" viewBox="0 0 195 130">
  <defs>
    <style>
      .cls-1 {
        fill: #fff;
      }

      .cls-2 {
        fill: #fcffff;
      }

      .cls-3 {
        fill: #1e1313;
      }
    </style>
  </defs>
  <g>
    <g id="Laag_1">
      <g>
        <path class="cls-3" d="M171.9,65c0,18-14.6,32.7-32.7,32.7H55.8c-18,0-32.7-14.6-32.7-32.7s14.6-32.7,32.7-32.7h83.4c18,0,32.7,14.6,32.7,32.7"></path>
        <path class="cls-1" d="M165.3,65.1c0,14.5-11.8,26.3-26.3,26.3s-26.3-11.8-26.3-26.3,11.8-26.3,26.3-26.3c14.5,0,26.3,11.9,26.3,26.3"></path>
        <path class="cls-2" d="M30.1,62c.3-.9.8-1.7,1.4-2.3.7-.7,1.3-1.3,2-1.7s1.4-.8,2.2-1.1c.1,0,.4-.1.5-.1.2,0,.4,0,.5,0s.4,0,.5,0h3c0,0,0,2,0,2h-1.9c-1.1.1-2,.4-2.9.7-.8.4-1.5.9-2.1,1.5-.6.7-.9,1.3-1.2,2s-.4,1.4-.4,2.2v.6c0,.2,0,.4,0,.7s0,.2,0,.4,0,.2,0,.4,0,.2.1.4c0,.1,0,.2.1.4.2.4.4.9.8,1.3.4.4.7.8,1.2,1.2.4.4,1,.7,1.7.8.7.2,1.4.3,2.3.3h1.9c0,0,0,2,0,2h-3c-1.2,0-2.3-.2-3.3-.7-.9-.4-1.8-1-2.5-1.8s-1.2-1.7-1.5-2.7-.5-2.1-.5-3.3h0c.4-1.2.5-2.1.8-2.9"></path>
        <path class="cls-2" d="M44.4,67.5v.3c0,.1,0,.2,0,.3,0,0,0,.2,0,.3,0,.4.2.7.4,1,.1.4.4.7.7.9.3.3.6.5,1,.7.4.1.9.2,1.4.2s1,0,1.4-.2.9-.4,1.2-.7.7-.7.8-1.2c.2-.6.3-1.2.3-2s0-1.1-.2-1.5-.4-.9-.7-1.2-.7-.6-1.2-.8c-.5-.1-1-.3-1.6-.3s-1.1,0-1.5.2-.8.4-1,.7c-.3.3-.5.7-.7,1s-.3.7-.4,1.1c0,0,0,.1,0,.2v.7h0c0,0,0,.4,0,.4h0ZM42.5,64.8c.3-.7.7-1.3,1.4-1.9.6-.5,1.2-.9,2-1.2.7-.3,1.4-.4,2.2-.4h.8c.7,0,1.2.3,1.8.6.6.3,1.2.7,1.7,1.1.5.5.9,1.1,1.2,1.8s.4,1.6.4,2.5v.2h0v.6c0,.1,0,.3,0,.4,0,.1,0,.3,0,.4-.1.6-.4,1.2-.7,1.7s-.7,1-1.2,1.4c-.4.4-1,.8-1.6,1-.6.3-1.3.4-2,.4-1.1,0-2-.1-2.8-.4-.8-.3-1.4-.7-2-1.4-.5-.6-.9-1.3-1.1-2s-.4-1.5-.4-2.4h0c0-.9,0-1.7.4-2.5"></path>
        <path class="cls-2" d="M56.5,66.2c0-.7.1-1.2.4-1.8s.6-1.1,1-1.6c.4-.5,1-.9,1.7-1.1.7-.2,1.4-.4,2.2-.4h.4c.1,0,.3,0,.5,0s.4,0,.5.1c.2,0,.4.1.6.2.4.1.7.4.9.6.3.2.6.5.9.8.3.3.5.7.7,1.2.1.4.2.9.2,1.5h0v.2h0v7.2h-2.3v-6.8c0-.4,0-.7-.1-1,0-.4-.3-.7-.4-.9-.2-.3-.5-.6-.8-.7-.4-.1-.7-.2-1.2-.2s-.8,0-1.2.2-.6.4-.9.7c-.2.3-.4.6-.6.9s-.2.7-.3,1v6.9h-2.1v-7.1Z"></path>
        <path class="cls-2" d="M69.3,58.9h2.2v2.8h4.3v2.1h-4.3v5.9c0,.2,0,.4,0,.6,0,.1,0,.4.1.5s.2.3.4.4c.2,0,.5,0,.9,0h2.7c0,0,0,2,0,2h-3.2c-.6,0-1,0-1.4-.2s-.7-.4-1-.7c-.3-.4-.4-.7-.6-1.1-.1-.4-.2-.8-.3-1.2h0v-.3h0v-.2h0c0,0,0-10.6,0-10.6h0Z"></path>
        <path class="cls-2" d="M86.7,66.6c0-.4,0-.7-.2-1-.1-.4-.4-.7-.6-.9-.3-.3-.7-.6-1.2-.7s-1.1-.2-1.8-.2h-.4c-.1,0-.2,0-.4,0s-.3,0-.4,0l-.4.2c-.3.1-.5.3-.7.4-.2.2-.5.4-.7.7s-.4.6-.5.9-.2.8-.2,1.3,0,1.2.3,1.7c.1.5.4.9.8,1.2.4.3.7.6,1.2.7.4.2.8.3,1.2.4h.5,0,.5c.1,0,.4,0,.5-.1,0,0,.1,0,.2,0s.1,0,.2,0c0,0,.1,0,.2-.1,0,0,.1,0,.2-.1,0,0,.1,0,.2-.1,0,0,.1-.1.2-.2,0,0,.1-.1.2-.2,0,0,.1-.1.2-.2v2.6s0,0,0,0h0c-.2.1-.4.2-.6.4-.2,0-.4.2-.7.3-.2,0-.5.1-.8.1-.3,0-.7,0-1.1,0h-.4c-.7,0-1.4-.1-2-.4-.7-.3-1.2-.7-1.7-1.2-.5-.6-.9-1.2-1.2-2-.3-.7-.4-1.5-.4-2.5s.1-1.5.4-2.2c.3-.7.7-1.3,1.2-1.9s1.2-1,1.9-1.3c.7-.3,1.6-.4,2.6-.4s1.8.1,2.5.4c.7.3,1.4.7,1.9,1.2.5.5.9,1.1,1.2,1.6.2.6.4,1.2.4,1.7v6.7h-2.2v-6.7Z"></path>
        <path class="cls-2" d="M91.2,67.1c0-.1,0-.4,0-.5s0-.4.1-.5c0-.2.1-.4.2-.6.1-.4.4-.9.7-1.3s.7-.8,1.1-1.2.9-.7,1.5-.9c.6-.2,1.2-.3,1.9-.3h2.2c0,0,0,2,0,2h-1.7c-.1,0-.2,0-.4,0s-.2,0-.4,0c-.1,0-.3,0-.4,0-.1,0-.3,0-.4.1-.3.1-.6.3-.8.4-.3.1-.5.4-.7.7-.2.3-.4.6-.5.9-.1.4-.1.8-.1,1.3h0v.3h0v.3h0v.3c0,0,0,.1,0,.1q0,0,0,.1c0,.3.2.6.4.9s.4.6.7.8c.3.3.6.4.9.6s.8.1,1.3.1h2c0,0,0,2,0,2h-2.5c-.7,0-1.4-.1-2-.3-.6-.2-1.1-.5-1.4-.9-.4-.4-.7-.7-1-1.2s-.5-.8-.7-1.2c0-.1-.1-.4-.1-.5,0-.2,0-.4-.1-.5,0-.1,0-.4,0-.5v-.5h0c-.1-.1-.1-.3,0-.5"></path>
        <path class="cls-2" d="M101.4,58.9h2.2v2.8h4.3v2.1h-4.3v5.9c0,.2,0,.4,0,.6,0,.1,0,.4.1.5s.2.3.4.4c.2,0,.5,0,.9,0h2.7c0,0,0,2,0,2h-3.1c-.6,0-1,0-1.4-.2s-.7-.4-1-.7c-.3-.4-.4-.7-.6-1.1-.1-.4-.2-.8-.2-1.2h0v-.3h0v-.2h0c0,0,0-10.6,0-10.6h0Z"></path>
        <path class="cls-2" d="M30.1,62c.3-.9.8-1.7,1.4-2.3.7-.7,1.3-1.3,2-1.7s1.4-.8,2.2-1.1c.1,0,.4-.1.5-.1.2,0,.4,0,.5,0s.4,0,.5,0h3c0,0,0,2,0,2h-1.9c-1.1.1-2,.4-2.9.7-.8.4-1.5.9-2.1,1.5-.6.7-.9,1.3-1.2,2s-.4,1.4-.4,2.2v.6c0,.2,0,.4,0,.7s0,.2,0,.4,0,.2,0,.4,0,.2.1.4c0,.1,0,.2.1.4.2.4.4.9.8,1.3.4.4.7.8,1.2,1.2.4.4,1,.7,1.7.8.7.2,1.4.3,2.3.3h1.9c0,0,0,2,0,2h-3c-1.2,0-2.3-.2-3.3-.7-.9-.4-1.8-1-2.5-1.8s-1.2-1.7-1.5-2.7-.5-2.1-.5-3.3h0c.4-1.2.5-2.1.8-2.9"></path>
        <path class="cls-2" d="M44.4,67.5v.3c0,.1,0,.2,0,.3,0,0,0,.2,0,.3,0,.4.2.7.4,1,.1.4.4.7.7.9.3.3.6.5,1,.7.4.1.9.2,1.4.2s1,0,1.4-.2.9-.4,1.2-.7.7-.7.8-1.2c.2-.6.3-1.2.3-2s0-1.1-.2-1.5-.4-.9-.7-1.2-.7-.6-1.2-.8c-.5-.1-1-.3-1.6-.3s-1.1,0-1.5.2-.8.4-1,.7c-.3.3-.5.7-.7,1s-.3.7-.4,1.1c0,0,0,.1,0,.2v.7h0c0,0,0,.4,0,.4h0ZM42.5,64.8c.3-.7.7-1.3,1.4-1.9.6-.5,1.2-.9,2-1.2.7-.3,1.4-.4,2.2-.4h.8c.7,0,1.2.3,1.8.6.6.3,1.2.7,1.7,1.1.5.5.9,1.1,1.2,1.8s.4,1.6.4,2.5v.2h0v.6c0,.1,0,.3,0,.4,0,.1,0,.3,0,.4-.1.6-.4,1.2-.7,1.7s-.7,1-1.2,1.4c-.4.4-1,.8-1.6,1-.6.3-1.3.4-2,.4-1.1,0-2-.1-2.8-.4-.8-.3-1.4-.7-2-1.4-.5-.6-.9-1.3-1.1-2s-.4-1.5-.4-2.4h0c0-.9,0-1.7.4-2.5"></path>
        <path class="cls-2" d="M56.5,66.2c0-.7.1-1.2.4-1.8s.6-1.1,1-1.6c.4-.5,1-.9,1.7-1.1.7-.2,1.4-.4,2.2-.4h.4c.1,0,.3,0,.5,0s.4,0,.5.1c.2,0,.4.1.6.2.4.1.7.4.9.6.3.2.6.5.9.8.3.3.5.7.7,1.2.1.4.2.9.2,1.5h0v.2h0v7.2h-2.3v-6.8c0-.4,0-.7-.1-1,0-.4-.3-.7-.4-.9-.2-.3-.5-.6-.8-.7-.4-.1-.7-.2-1.2-.2s-.8,0-1.2.2-.6.4-.9.7c-.2.3-.4.6-.6.9s-.2.7-.3,1v6.9h-2.1v-7.1Z"></path>
        <path class="cls-2" d="M69.3,58.9h2.2v2.8h4.3v2.1h-4.3v5.9c0,.2,0,.4,0,.6,0,.1,0,.4.1.5s.2.3.4.4c.2,0,.5,0,.9,0h2.7c0,0,0,2,0,2h-3.2c-.6,0-1,0-1.4-.2s-.7-.4-1-.7c-.3-.4-.4-.7-.6-1.1-.1-.4-.2-.8-.3-1.2h0v-.3h0v-.2h0c0,0,0-10.6,0-10.6h0Z"></path>
        <path class="cls-2" d="M86.7,66.6c0-.4,0-.7-.2-1-.1-.4-.4-.7-.6-.9-.3-.3-.7-.6-1.2-.7s-1.1-.2-1.8-.2h-.4c-.1,0-.2,0-.4,0s-.3,0-.4,0l-.4.2c-.3.1-.5.3-.7.4-.2.2-.5.4-.7.7s-.4.6-.5.9-.2.8-.2,1.3,0,1.2.3,1.7c.1.5.4.9.8,1.2.4.3.7.6,1.2.7.4.2.8.3,1.2.4h.5,0,.5c.1,0,.4,0,.5-.1,0,0,.1,0,.2,0s.1,0,.2,0c0,0,.1,0,.2-.1,0,0,.1,0,.2-.1,0,0,.1,0,.2-.1,0,0,.1-.1.2-.2,0,0,.1-.1.2-.2,0,0,.1-.1.2-.2v2.6s0,0,0,0h0c-.2.1-.4.2-.6.4-.2,0-.4.2-.7.3-.2,0-.5.1-.8.1-.3,0-.7,0-1.1,0h-.4c-.7,0-1.4-.1-2-.4-.7-.3-1.2-.7-1.7-1.2-.5-.6-.9-1.2-1.2-2-.3-.7-.4-1.5-.4-2.5s.1-1.5.4-2.2c.3-.7.7-1.3,1.2-1.9s1.2-1,1.9-1.3c.7-.3,1.6-.4,2.6-.4s1.8.1,2.5.4c.7.3,1.4.7,1.9,1.2.5.5.9,1.1,1.2,1.6.2.6.4,1.2.4,1.7v6.7h-2.2v-6.7Z"></path>
        <path class="cls-2" d="M91.2,67.1c0-.1,0-.4,0-.5s0-.4.1-.5c0-.2.1-.4.2-.6.1-.4.4-.9.7-1.3s.7-.8,1.1-1.2.9-.7,1.5-.9c.6-.2,1.2-.3,1.9-.3h2.2c0,0,0,2,0,2h-1.7c-.1,0-.2,0-.4,0s-.2,0-.4,0c-.1,0-.3,0-.4,0-.1,0-.3,0-.4.1-.3.1-.6.3-.8.4-.3.1-.5.4-.7.7-.2.3-.4.6-.5.9-.1.4-.1.8-.1,1.3h0v.3h0v.3h0v.3c0,0,0,.1,0,.1q0,0,0,.1c0,.3.2.6.4.9s.4.6.7.8c.3.3.6.4.9.6s.8.1,1.3.1h2c0,0,0,2,0,2h-2.5c-.7,0-1.4-.1-2-.3-.6-.2-1.1-.5-1.4-.9-.4-.4-.7-.7-1-1.2s-.5-.8-.7-1.2c0-.1-.1-.4-.1-.5,0-.2,0-.4-.1-.5,0-.1,0-.4,0-.5v-.5h0c-.1-.1-.1-.3,0-.5"></path>
        <path class="cls-2" d="M101.4,58.9h2.2v2.8h4.3v2.1h-4.3v5.9c0,.2,0,.4,0,.6,0,.1,0,.4.1.5s.2.3.4.4c.2,0,.5,0,.9,0h2.7c0,0,0,2,0,2h-3.1c-.6,0-1,0-1.4-.2s-.7-.4-1-.7c-.3-.4-.4-.7-.6-1.1-.1-.4-.2-.8-.2-1.2h0v-.3h0v-.2h0c0,0,0-10.6,0-10.6h0Z"></path>
        <path class="cls-3" d="M116.8,62c.3-.9.8-1.7,1.4-2.3.7-.7,1.3-1.3,2-1.7.7-.4,1.4-.8,2.2-1.1.1,0,.4-.1.5-.1.2,0,.4,0,.5,0s.4,0,.5,0h3c0,0,0,2,0,2h-1.9c-1.1.1-2,.4-2.9.7-.8.4-1.5.9-2.1,1.5-.6.7-.9,1.3-1.2,2s-.4,1.4-.4,2.2v.6c0,.2,0,.4,0,.7s0,.2,0,.4,0,.2,0,.4,0,.2.1.4c0,.1,0,.2.1.4.2.4.4.9.8,1.3s.7.8,1.2,1.2c.4.4,1,.7,1.7.8.7.2,1.4.3,2.3.3h1.9c0,0,0,2,0,2h-3c-1.2,0-2.3-.2-3.3-.7-.9-.4-1.8-1-2.5-1.8s-1.2-1.7-1.5-2.7-.5-2.1-.5-3.3h0c.4-1.2.5-2.1.8-2.9"></path>
        <path class="cls-3" d="M138.4,66.6c0-.4,0-.7-.2-1-.1-.4-.4-.7-.6-.9-.3-.3-.7-.6-1.2-.7-.5-.1-1.1-.2-1.8-.2h-.4c-.1,0-.2,0-.4,0s-.3,0-.4,0c-.1,0-.3.1-.4.2-.3.1-.5.3-.7.4-.2.2-.5.4-.7.7s-.4.6-.5.9-.2.8-.2,1.3,0,1.2.3,1.7c.1.5.4.9.8,1.2.4.3.7.6,1.2.7.4.2.8.3,1.2.4h1.1c.1,0,.4,0,.5-.1,0,0,.1,0,.2,0s.1,0,.2,0c0,0,.1,0,.2-.1,0,0,.1,0,.2-.1,0,0,.1,0,.2-.1,0,0,.1-.1.2-.2s.1-.1.2-.2.1-.1.2-.2v2.6s0,0,0,0h0c-.2.1-.4.2-.6.4-.2,0-.4.2-.7.3-.2,0-.5.1-.8.1-.3,0-.7,0-1.1,0h-.4c-.7,0-1.4-.1-2-.4-.7-.3-1.2-.7-1.7-1.2s-.9-1.2-1.2-2c-.3-.7-.4-1.5-.4-2.5s.1-1.5.4-2.2c.3-.7.7-1.3,1.2-1.9.5-.6,1.2-1,1.9-1.3.7-.3,1.6-.4,2.6-.4s1.8.1,2.5.4c.7.3,1.4.7,1.9,1.2.5.5.9,1.1,1.2,1.6.2.6.4,1.2.4,1.7v6.7h-2.3v-6.7h0Z"></path>
        <path class="cls-3" d="M144.9,61.7v1.2h0c0,0,0-.1.1-.2,0,0,0,0,.1-.1q0,0,.1-.1c.1-.1.3-.2.4-.4.1-.1.4-.2.5-.3.2,0,.4-.1.7-.2.2,0,.5,0,.8,0h.8c0,0,0,2,0,2h-.6c-.4,0-.9.2-1.2.4-.3.1-.6.4-.8.6s-.4.5-.5.7c-.1.3-.2.5-.4.8,0,.2-.1.4-.1.6,0,.2,0,.4,0,.6v6.1h-2.1v-11.5h2Z"></path>
        <path class="cls-3" d="M158.1,64.7s0,0,0,0h0c0,0,0-.1,0-.2q0,0-.1-.1c0,0,0,0-.1-.1q0,0-.1-.1c0,0-.1,0-.2,0,0,0-.1,0-.2-.1-.1,0-.4-.1-.6-.1s-.4,0-.7,0c-.7,0-1.2.1-1.7.4s-.9.6-1.2,1c-.3.4-.6.9-.7,1.4s-.2,1-.2,1.5h0c0,.5,0,1,.2,1.4.1.4.4.8.7,1.2.3.4.7.7,1.2.9.5.2,1,.3,1.6.3s1.2,0,1.7-.2.8-.4,1-.7c.2-.3.4-.7.6-1.2.2-.4.4-.9.5-1.4h2.1v.2h0v.2h0v.2h0v.4c0,.1,0,.3,0,.4s0,.1,0,.2c0,0,0,.1,0,.2s0,.1,0,.2,0,.1,0,.2c-.2.4-.4.8-.8,1.2-.3.4-.7.7-1.2,1.1s-.9.6-1.6.7c-.6.1-1.3.2-2,.2s-1.7-.1-2.4-.4c-.7-.3-1.4-.7-2-1.2s-1-1.2-1.3-1.9c-.3-.7-.4-1.4-.4-2.3s.1-1.7.4-2.4.6-1.3,1.1-1.8,1-.9,1.5-1.2c.5-.3,1.1-.6,1.7-.7h1.3c.7,0,1.3,0,1.8.3.6.2,1.1.4,1.6.8.4.4.9.8,1.2,1.2.4.4.7.9,1,1.4l-8,4.3-.9-1.7,5.9-3.4Z"></path>
      </g>
    </g>
  </g>
</svg>
