<?xml version="1.0" encoding="UTF-8"?>
<svg xmlns="http://www.w3.org/2000/svg" version="1.1" viewBox="0 0 195 130">
  <g>
    <g id="Laag_1">
      <g>
        <path d="M5.5,62.6c0-.6,0-3.9-.1-4.2,0-.6-.4-.6-.8-.6h-1.2c0,0-.2,0-.2-.2v-.6c0,0,0-.1.2-.1.7,0,1.9,0,3.5,0s2.3,0,3.4,0c3.1,0,5.6.3,7.7,2.1,1.5,1.2,2.6,3.2,2.6,5.8s-.7,4.4-2.3,6c-2.3,2.4-5.8,2.5-7.4,2.5s-3.2,0-4.4,0c-2,0-2.9,0-3.3,0s-.1,0-.1-.2v-.6c0,0,0-.1.2-.1h1.3c.5,0,.7-.2.8-.6,0-.5.2-5.7.2-7.4v-1.7ZM8.4,64.8c0,.3,0,4.2,0,5.6s0,.8.4,1.3c.3.4,1.1.6,2,.6,1.8,0,3.6-.8,4.8-2.3,1-1.2,1.7-3.1,1.7-5.2s-.8-3.8-1.8-5c-1.2-1.3-3.3-2.2-5.2-2.2s-1.1,0-1.5.2c-.3.2-.4.6-.4,1,0,1,0,4,0,4.3v1.7Z"></path>
        <path d="M24.8,68c0,2.3,1.7,3.7,3,3.7s2.3-.6,2.8-1.3c0-.2.2-.2.3-.1l.3.2c.1,0,.2.2,0,.5-.5.9-1.7,2.4-4.2,2.4s-2.5-.3-3.3-1.2c-1.1-1.2-1.3-2.4-1.3-3.8s.1-2.1,1.1-3.4c1-1.2,2-1.7,4-1.7s3.5,2.7,3.5,3.7-.2.4-.6.4h-5.6v.7ZM27.7,66.5c.5,0,.8-.1.8-.3,0-.7-.2-2-1.4-2s-1.8.8-2.1,2.4h2.8Z"></path>
        <path d="M38.8,68c0,0,.1,0,.1.2,0,.7.2,1.6.9,2.6.7,1.1,1.9,1.7,3,1.7s3-.8,3-2.7-1-2.8-3.4-3.7c-.7-.3-2.3-.9-3.4-1.9-.8-.7-1.1-1.9-1.1-3.3s.5-2.3,1.6-3.2c.9-.8,1.9-1.1,3.3-1.1s2.4.4,2.9.6c.2,0,.4,0,.5,0l.3-.3c0,0,.2-.1.3-.1s.2.1.2.4c0,.4.4,3.6.4,3.8s0,.1-.1.2h-.4c0,.1-.2.1-.2,0-.2-.6-.6-1.6-1.4-2.4-.6-.6-1.3-1-2.4-1-1.8,0-2.6,1.5-2.6,2.3s0,1.5.6,2.1c.6.6,1.9,1.1,2.8,1.4,1.3.4,2.4.9,3.3,1.8.7.8,1.1,1.7,1.1,3.3,0,2.8-1.8,5.1-4.9,5.1s-3-.4-3.9-1.1c-.3-.2-.4-.3-.6-.3s-.2.2-.4.4c-.1.2-.2.3-.4.3s-.3-.1-.3-.4c0-.3.4-4,.4-4.3,0-.1,0-.2.1-.2h.5Z"></path>
        <path d="M53,63.4c.2,0,.3-.1.5-.1s.3,0,.3.3v1.3h.2c.7-.9,1.9-1.7,3.3-1.7s2.2.7,2.7,1.7h.1c.7-1,1.9-1.7,3.2-1.7s1.5.1,2.1.8c.6.6,1.1,1,1.1,3v2.6c0,.6,0,1.7,0,2,0,.5.3.7.6.7h.6c.1,0,.2,0,.2.2v.5c0,.1,0,.2-.2.2s-.8,0-2.2,0-2.1,0-2.3,0-.2,0-.2-.2v-.5c0-.1,0-.2.2-.2h.4c.2,0,.5-.1.5-.5,0-.5,0-1.3,0-2v-2.7c0-1.1,0-1.7-.5-2.1-.4-.4-.8-.5-1.4-.5s-1.3.5-1.6.9c-.3.5-.3,1.2-.3,1.8v4.3c0,.5.1.7.4.7h.6c.2,0,.2,0,.2.2v.5c0,.1,0,.2-.1.2-.2,0-.8,0-2.3,0s-2.2,0-2.3,0-.2,0-.2-.2v-.4c0-.2,0-.2.2-.2h.5c.3,0,.6-.2.6-1.1v-3.9c0-1.7-.3-2.2-.6-2.4-.3-.2-.8-.3-1.2-.3s-1.2.3-1.7,1c-.3.5-.4,1-.4,1.6v4.1c0,.8.2,1.1.5,1.1h.5c.2,0,.2,0,.2.1v.5c0,.1,0,.2-.2.2s-.8,0-2.3,0-2.1,0-2.3,0-.2,0-.2-.2v-.5c0-.1,0-.2.3-.2h.7c.2,0,.4-.2.4-.6v-4.8c0-.7-.1-1.1-.7-1.5l-.5-.3c-.1,0-.2-.1-.2-.2v-.2c0,0,0-.1.2-.2l2.6-1.2Z"></path>
        <path d="M74.4,72c-.5.6-1.1.9-2,1.2-.5.2-1,.2-1.5.2-.9,0-1.6-.7-1.6-2s.5-2.1,2.1-2.8c1.4-.7,2.3-1.1,2.8-1.4v-1.2c0-.5,0-1-.4-1.3-.2-.3-.6-.3-1.1-.3s-1,.1-1.3.4c-.3.2,0,.6,0,1.1,0,.8-.4,1.3-1.4,1.3s-.8-.3-.8-.8.4-1.4,1.1-1.9c1-.7,2.2-1.3,3.7-1.3s1.7.3,2.1.6c.5.5.6,1.1.6,1.7v3.6s0,1.1,0,1.1c0,1.2.2,1.6.6,1.6s.6-.2.7-.4c0-.1.1-.1.2,0l.3.2c0,0,.1.1,0,.4-.2.4-.8,1.3-2.1,1.3s-1.6-.4-1.9-1.4h0ZM74.3,68c-1,.6-2.5,1-2.5,2.7s.5,1.4,1.1,1.4c.6,0,1.5-.7,1.5-1.1v-3Z"></path>
        <path d="M84.6,72c-.5.6-1.1.9-2,1.2-.5.2-1,.2-1.5.2-.9,0-1.6-.7-1.6-2s.5-2.1,2.1-2.8c1.4-.7,2.3-1.1,2.8-1.4v-1.2c0-.5,0-1-.4-1.3-.2-.3-.6-.3-1.1-.3s-1,.1-1.3.4c-.3.2,0,.6,0,1.1,0,.8-.4,1.3-1.4,1.3s-.8-.3-.8-.8.4-1.4,1.1-1.9c1-.7,2.2-1.3,3.7-1.3s1.7.3,2.1.6c.5.5.6,1.1.6,1.7v3.6s0,1.1,0,1.1c0,1.2.2,1.6.6,1.6s.6-.2.7-.4c0-.1.1-.1.2,0l.3.2c0,0,.1.1,0,.4-.2.4-.8,1.3-2.1,1.3s-1.6-.4-1.9-1.4h0ZM84.5,68c-1,.6-2.5,1-2.5,2.7s.5,1.4,1.1,1.4c.6,0,1.5-.7,1.5-1.1v-3Z"></path>
        <path d="M93.1,71.8c0,.4.2.6.5.6h.5c.2,0,.2,0,.2.2v.5c0,.1,0,.2-.2.2s-.9,0-2.2,0-2.3,0-2.4,0-.2,0-.2-.2v-.4c0-.1,0-.2.2-.2h.6c.3,0,.5-.3.5-.6,0-.5,0-2.5,0-3.4v-8.3c0-.9-.1-1.3-1.3-1.7-.2,0-.3-.1-.3-.2v-.3c0,0,0-.2.3-.2.6-.1,2.6-.9,2.9-1,.3-.1.6-.2.7-.2s.2,0,.2.4c0,1.1-.1,4.5-.1,7.2v3.5c.3,0,.7,0,.9-.3.6-.5,1.8-1.9,2.1-2.3,0-.1.2-.3.2-.4s-.2-.3-.4-.3h-.2c-.1,0-.2,0-.2-.2v-.5c0,0,0-.2.2-.2s1,0,2.3,0,1.8,0,2,0,.2,0,.2.3v.4c0,.1,0,.2-.2.2h-.2c-.3,0-.9.1-1.4.4-.5.3-2.3,2-3,2.6.7.8,4,4.4,4.5,4.8.4.2.9.3,1.2.3s.2,0,.2.2v.5c0,.1,0,.2-.2.2s-.8,0-2.3,0-2.3,0-2.5,0-.2,0-.2-.2v-.4c0-.1,0-.2.2-.2h.2c.2,0,.3-.1.2-.3,0-.2-2.2-2.8-2.7-3.4-.2-.2-.6-.3-.7-.3v3.4Z"></path>
        <path d="M109.7,73c-.1-.2-1.8-4.1-2-4.7-.2-.5-1.1-2.8-1.2-3.1-.4-.6-.6-.8-1-.8h-.4c-.1,0-.2,0-.2-.2v-.5c0-.1,0-.2.2-.2.3,0,.6,0,2.5,0s2,0,2.3,0,.2,0,.2.2v.4c0,.1,0,.2-.2.2h-.4c-.3,0-.5.1-.5.4,0,.4.6,2.3.8,2.7l1.1,3h.1c.3-.6,1.7-4,2-5.1.2-.6,0-1-.5-1h-.4c0,0-.1,0-.1-.2v-.5c0-.1,0-.2.2-.2.3,0,.8,0,2,0s1.6,0,1.8,0,.2,0,.2.2v.5c0,.1,0,.2-.2.2h-.4c-.3,0-.6,0-.9.3-.4.4-1.5,2.7-1.9,3.7-.3.6-2,4.6-2.1,4.8-.2.3-.3.5-.6.5s-.4-.2-.6-.5Z"></path>
        <path d="M121.8,72c-.5.6-1.1.9-2,1.2-.5.2-1,.2-1.5.2-.9,0-1.6-.7-1.6-2s.5-2.1,2.1-2.8c1.4-.7,2.3-1.1,2.8-1.4v-1.2c0-.5,0-1-.4-1.3-.2-.3-.6-.3-1.1-.3s-1,.1-1.3.4c-.3.2,0,.6,0,1.1,0,.8-.4,1.3-1.4,1.3s-.8-.3-.8-.8.4-1.4,1.1-1.9c1-.7,2.2-1.3,3.7-1.3s1.7.3,2.1.6c.5.5.6,1.1.6,1.7v3.6s0,1.1,0,1.1c0,1.2.2,1.6.6,1.6s.6-.2.7-.4c0-.1.1-.1.2,0l.3.2c0,0,.1.1,0,.4-.2.4-.8,1.3-2.1,1.3s-1.6-.4-1.9-1.4h0ZM121.6,68c-1,.6-2.5,1-2.5,2.7s.5,1.4,1.1,1.4c.6,0,1.5-.7,1.5-1.1v-3Z"></path>
        <path d="M129.4,63.5c.2,0,.3-.2.5-.2s.2,0,.3.3l.2,1.2h.1c.3-.3.7-.7,1.1-.9.6-.3,1.2-.6,1.8-.6s1.5.1,2,.6c1,.7,1.3,1.4,1.3,2.4v3.3c0,.7,0,1.7,0,2.2s.3.6.6.6h.6c.2,0,.3,0,.3.2v.5c0,.1,0,.2-.2.2s-.9,0-2.5,0-2.1,0-2.3,0-.2,0-.2-.3v-.4c0-.1,0-.2.3-.2h.5c.2,0,.4-.1.4-.6,0-.6,0-1.2,0-2.2v-2.6c0-.9,0-1.5-.6-2-.5-.4-.9-.4-1.4-.4s-.9,0-1.5.6c-.4.4-.5,1-.5,1.6v4.7c0,.5.1.8.4.8h.4c.2,0,.2,0,.2.2v.4c0,.1,0,.2-.2.2s-.8,0-2.2,0-2.2,0-2.3,0-.1,0-.1-.2v-.4c0-.1,0-.2.2-.2h.5c.3,0,.6,0,.6-.5v-5.2c0-.7-.4-1.1-1-1.3h-.2c-.1-.1-.2-.2-.2-.3v-.2c0,0,0-.2.2-.2l2.5-1.2Z"></path>
        <path d="M149.3,65.7c0,.2,0,5.5,0,5.8,0,.7.4.8.9.8h1c0,0,.2,0,.2.2v.6c0,.1,0,.2-.2.2-.3,0-1.2,0-3.4,0s-3.3,0-3.5,0-.2,0-.2-.2v-.6c0,0,0-.1.2-.1h.9c.5,0,1,0,1.1-.7,0-.3,0-5.3,0-6.5v-1.6c0-.6,0-4.7,0-5,0-.6-.3-.8-.9-.8h-1.2c-.1,0-.2,0-.2-.2v-.6c0-.1,0-.2.1-.2.3,0,1.5,0,3.7,0s2.9,0,3.3,0,.2,0,.2.2v.5c0,.1,0,.2-.2.2h-.9c-.5,0-.9.2-.9.6s0,5.3,0,5.6v1.8Z"></path>
        <path d="M153,64.8c-.2,0-.3,0-.3-.3s.1-.3.4-.4c.6-.2,2.6-1.9,3.2-2.9,0-.2.2-.2.4-.2s.3.1.3.3v2.3c0,0,2.9,0,2.9,0,.1,0,.2,0,.2.2l-.2,1c0,0,0,.1-.2.1h-2.8c0,1,0,2.1,0,3.1v2.1c0,1.8.8,2.2,1.2,2.2s1-.1,1.3-.3c.2,0,.2,0,.3,0v.3c.2.1.1.2,0,.3-.3.2-1.3.9-2.9.9s-2.4-1.1-2.4-2.1,0-2.7,0-3.5v-3h-1.3Z"></path>
        <path d="M166,72c-.5.6-1.1.9-2,1.2-.5.2-1,.2-1.5.2-.9,0-1.6-.7-1.6-2s.5-2.1,2.1-2.8c1.4-.7,2.3-1.1,2.8-1.4v-1.2c0-.5,0-1-.4-1.3-.2-.3-.6-.3-1.1-.3s-1,.1-1.3.4c-.3.2,0,.6,0,1.1,0,.8-.4,1.3-1.4,1.3s-.8-.3-.8-.8.4-1.4,1.1-1.9c1-.7,2.2-1.3,3.7-1.3s1.7.3,2.1.6c.5.5.6,1.1.6,1.7v3.6s0,1.1,0,1.1c0,1.2.2,1.6.6,1.6s.6-.2.7-.4c0-.1.1-.1.2,0l.3.2c0,0,.1.1,0,.4-.2.4-.8,1.3-2.1,1.3s-1.6-.4-1.9-1.4h0ZM165.8,68c-1,.6-2.5,1-2.5,2.7s.5,1.4,1.1,1.4c.6,0,1.5-.7,1.5-1.1v-3Z"></path>
        <path d="M171.9,60.1c0-.8-.4-1.1-1.2-1.4h-.5c-.1-.2-.1-.2-.1-.3v-.3s0-.1.2-.2c.9-.3,2.7-.9,3.4-1.3.3,0,.4-.1.5-.1.1,0,.2,0,.2.4,0,1.2,0,6,0,7.3v3.3c0,1.1,0,3.4,0,4.1,0,.4,0,.7.6.7h.9c.2,0,.3,0,.3.2v.4c0,.1,0,.2-.1.2-.2,0-1.2,0-2.8,0s-2.7,0-2.9,0-.2,0-.2-.2v-.4c0-.1,0-.2.3-.2h.9c.2,0,.6-.2.6-.8v-7.2c0-1.6,0-3.6,0-4.2Z"></path>
        <path d="M178.1,66.6c0-.7-.1-1.1-1.2-1.4-.2,0-.2-.1-.2-.2v-.3c0,0,0-.1.2-.2.3-.1,2.6-.9,3-1.1.2,0,.4-.1.6-.1s.2,0,.2.3c0,.4,0,1.8,0,3.7v2.5c0,.9,0,1.7,0,2,0,.4.1.6.4.6h.9c.2,0,.2,0,.2.2v.5c0,.1,0,.2-.2.2s-1.2,0-2.8,0-2.2,0-2.5,0-.2,0-.2-.2v-.4c0-.1,0-.2.2-.2h1c.2,0,.3,0,.4-.5,0-.7,0-1.4,0-2.1v-3.2ZM178.9,61c-.7,0-1.5-.6-1.5-1.4s.7-1.4,1.6-1.4,1.4.8,1.4,1.3-.5,1.5-1.6,1.5Z"></path>
        <path d="M185.4,68c0,2.3,1.7,3.7,3,3.7s2.3-.6,2.8-1.3c0-.2.2-.2.3-.1l.3.2c.1,0,.2.2,0,.5-.5.9-1.7,2.4-4.2,2.4s-2.5-.3-3.3-1.2c-1.1-1.2-1.3-2.4-1.3-3.8s.1-2.1,1.1-3.4c1-1.2,2-1.7,4-1.7s3.5,2.7,3.5,3.7-.2.4-.6.4h-5.6v.7ZM184.4,59.6c0-.4.3-1.2,1.4-1.2s1.2.5,1.2,1.3-.5,1.2-1.2,1.2-1.4-.2-1.4-1.3ZM188.3,66.5c.5,0,.8-.1.8-.3,0-.7-.2-2-1.4-2s-1.8.8-2.1,2.4h2.8ZM188.5,59.6c0-.4.3-1.2,1.4-1.2s1.2.5,1.2,1.3-.6,1.2-1.2,1.2-1.4-.2-1.4-1.3Z"></path>
      </g>
    </g>
  </g>
</svg>
