<?xml version="1.0" encoding="UTF-8"?>
<svg xmlns="http://www.w3.org/2000/svg" xmlns:xlink="http://www.w3.org/1999/xlink" version="1.1" viewBox="0 0 195 130">
  <defs>
    <style>
      .cls-1 {
        fill: #44464c;
      }

      .cls-2, .cls-3 {
        fill: #010101;
      }

      .cls-3 {
        fill-rule: evenodd;
      }

      .cls-4 {
        fill: none;
      }

      .cls-5 {
        fill: #121920;
      }

      .cls-6 {
        isolation: isolate;
      }

      .cls-7 {
        display: none;
      }

      .cls-8 {
        fill: #1d1d1b;
      }

      .cls-9 {
        clip-path: url(#clippath);
      }
    </style>
    <clipPath id="clippath">
      <rect class="cls-4" x="3.9" y="31.6" width="187.2" height="66.8"></rect>
    </clipPath>
  </defs>
  <g>
    <g id="Laag_1">
      <g id="Laag_1-2" data-name="Laag_1" class="cls-7">
        <g id="Layer_2">
          <g id="Artwork">
            <g>
              <path class="cls-5" d="M189,48.6h.7l-.8-1.2h0c.4,0,.5-.4.5-.8,0-.7-.7-.8-1-.8h-1v2.8h.5v-1.1h.4l.6,1.1h0ZM188,46.2h.4c.3,0,.5.1.5.4s-.2.5-.5.5h-.4v-.9h0Z"></path>
              <path class="cls-5" d="M188.4,44.5c-1.5,0-2.7,1.2-2.7,2.7s1.2,2.7,2.7,2.7,2.7-1.2,2.7-2.7-1.2-2.7-2.7-2.7ZM188.4,49.5c-1.3,0-2.3-1-2.3-2.3s1-2.3,2.3-2.3,2.3,1,2.3,2.3-1,2.3-2.3,2.3Z"></path>
            </g>
            <g>
              <path class="cls-5" d="M63.5,89.7s0,0,0,0c0,0,0,0-.1,0h-.8s0,0-.1,0c0,0,0,0,0,0l-2.1,5.8c0,0,0,.1,0,.2s0,.1,0,.2c0,0,0,0,.2,0h.5c0,0,.1,0,.2,0,0,0,0,0,0,0,0,0,0,0,0,0l.5-1.5h2.4l.5,1.5s0,0,0,0c0,0,0,0,0,0s0,0,.2,0h.5c0,0,.1,0,.2,0,0,0,0,0,0-.1s0,0,0-.2l-2.1-5.8h0ZM63.9,93.5h-2l1-2.8,1,2.8h0Z"></path>
              <path class="cls-5" d="M75,89.6s0,0-.1,0h-.9c0,0-.1,0-.2,0,0,0,0,0-.2.2,0,0,0,.2-.1.3l-1.8,4.4-1.7-4.4c0,0,0-.2,0-.2s0-.1-.2-.2-.1,0-.2,0h-.8c0,0-.2,0-.3,0,0,0-.1.2-.1.3v5.7h0c0,.1,0,.2,0,.2h.7s0,0,0,0c0,0,0,0,0,0v-5.1l2,5.1s0,0,0,0c0,0,0,0,0,0h.5c0,0,0,0,.1,0,0,0,0,0,0,0,0,0,0,0,0,0l2.1-5.2v5.1s0,0,0,0c0,0,0,0,0,0h.7s0,0,0,0c0,0,0,0,0,0v-5.7c0,0,0-.1,0-.2,0,0,0,0,0-.1h0Z"></path>
              <path class="cls-5" d="M81.5,92.9c-.1-.1-.3-.3-.5-.4s-.4-.2-.5-.3-.3-.2-.5-.2h0c-.2,0-.3-.2-.5-.3s-.2-.2-.3-.3c0-.1,0-.3,0-.4s0-.2,0-.3c0,0,0-.2.2-.3,0,0,.2-.1.3-.2s.3,0,.4,0,.3,0,.5,0c.2,0,.3,0,.4.2s.2,0,.3.1c.2,0,.2,0,.3,0,0,0,0,0,0,0h0v-.3h0v-.2h0c0,0,0-.1,0-.2s0,0-.2-.1c0,0-.2,0-.3-.1s-.3,0-.4,0c-.1,0-.3,0-.4,0-.3,0-.5,0-.8,0-.2,0-.5.2-.6.3s-.3.3-.4.5-.1.5-.1.7,0,.5.1.7c0,.2.2.4.3.5s.3.3.5.4.3.2.5.3l.5.2c.2,0,.3.2.4.3.1,0,.2.2.3.3,0,.1,0,.3,0,.4s0,.3,0,.4c0,.1-.1.2-.2.3s-.2.1-.4.2c-.1,0-.3,0-.5,0s-.4,0-.6,0c-.2,0-.3,0-.5-.2s-.2-.1-.3-.2c-.2,0-.3,0-.3,0,0,0,0,0,0,0s0,0,0,.1v.5c0,0,0,.1,0,.2s0,0,.2.2.2,0,.4.2c.1,0,.3,0,.5.1.2,0,.4,0,.6,0s.6,0,.9-.1c.3,0,.5-.2.7-.4s.4-.4.5-.6c0-.2.2-.5.2-.8s0-.5-.1-.7c0-.2-.2-.4-.3-.5h-.1Z"></path>
              <path class="cls-5" d="M88.7,89.7s0,0,0,0h-4.5s0,0,0,0,0,0,0,.1v.3c0,0,0,0,0,.1,0,0,0,0,0,0h1.8v5.3h0c0,.1,0,.2,0,.2h.7s0,0,0,0h0v-5.4h1.8s0,0,0,0,0,0,0-.1v-.3c0,0,0,0,0-.1h0Z"></path>
              <path class="cls-5" d="M94.8,95.2s0,0,0,0h-2.5v-2.1h2.1s0,0,0,0c0,0,0,0,0-.1v-.3c0,0,0,0,0-.1,0,0,0,0,0,0h-2.1v-1.8h2.5s0,0,0,0,0,0,0-.1v-.3s0,0,0-.1c0,0,0,0,0,0h-3c0,0-.2,0-.2,0,0,0-.1.2-.1.3v5.5c0,.1,0,.3.1.3,0,0,.2,0,.2,0h3.1s0,0,0,0,0,0,0-.1v-.3s0,0,0-.1h0v-.2Z"></path>
              <path class="cls-5" d="M102,95.3l-.6-1.4c0-.2-.1-.3-.2-.4,0-.1-.1-.2-.2-.3s-.2-.2-.2-.3c0,0,0,0-.2,0,.1,0,.3-.1.4-.2.2,0,.3-.2.4-.3,0-.1.2-.3.3-.5,0-.2,0-.4,0-.6s0-.4,0-.6-.2-.4-.3-.5-.3-.3-.5-.4c-.2,0-.4-.2-.7-.2h-2c0,0-.2,0-.3,0s-.1.2-.1.3v5.7s0,0,0,0c0,0,0,0,0,0h.7s0,0,0,0c0,0,0,0,0,0v-2.6h.5c.2,0,.3,0,.5,0,.1,0,.2.1.3.2s.2.2.2.3.1.3.2.5l.6,1.5s0,0,0,0c0,0,0,0,0,0s0,0,.1,0h.6c0,0,0,0,0,0h0v-.2c0,0,0-.1,0-.3h0ZM100.8,91.3c0,.1,0,.3,0,.4,0,.1-.1.2-.2.3,0,0-.2.2-.4.2-.2,0-.3,0-.5,0h-.7v-1.9h1c0,0,.2,0,.3,0,.2,0,.4.2.5.3s.2.4.2.6h0Z"></path>
              <path class="cls-5" d="M109.1,90.4c-.3-.3-.6-.5-1-.6-.4-.1-.9-.2-1.4-.2h-1.4c0,0-.2,0-.3,0s-.1.2-.1.3v5.5c0,.1,0,.3.1.3,0,0,.2,0,.3,0h1.3c.5,0,1,0,1.4-.2.4-.1.7-.3,1-.6s.5-.6.6-1c.1-.4.2-.9.2-1.4s0-.9-.2-1.3-.3-.7-.6-1h0ZM106.7,95.1h-.8v-4.7h.8c.4,0,.8,0,1,.2s.5.3.7.5.3.5.4.7c0,.3.1.6.1.9s0,.8-.1,1.1c0,.3-.2.5-.4.7s-.4.3-.7.4-.6.1-1,.1h0Z"></path>
              <path class="cls-5" d="M115.5,89.7s0,0,0,0c0,0,0,0-.1,0h-.8c0,0,0,0-.1,0,0,0,0,0,0,0l-2.1,5.8c0,0,0,.1,0,.2s0,.1,0,.2c0,0,0,0,.2,0h.5c0,0,.1,0,.2,0,0,0,0,0,0,0,0,0,0,0,0,0l.5-1.5h2.5l.5,1.5s0,0,0,0c0,0,0,0,0,0s0,0,.2,0h.5c0,0,.1,0,.2,0,0,0,0,0,0-.1s0,0,0-.2l-2.1-5.8h0ZM115.8,93.5h-2l1-2.8,1,2.8Z"></path>
              <path class="cls-5" d="M127.1,89.8c0,0,0,0,0-.1s0,0-.1,0h-.9c0,0-.1,0-.2,0s0,0-.2.2c0,0,0,.2-.1.3l-1.8,4.4-1.7-4.4c0,0,0-.2,0-.2s0-.1-.2-.2-.1,0-.2,0h-.8c0,0-.2,0-.3,0,0,0-.1.2-.1.3v5.7h0c0,.1,0,.2,0,.2h.7s0,0,0,0h0v-5.2l2,5.1s0,0,0,0,0,0,0,0h.5c0,0,0,0,.1,0,0,0,0,0,0,0,0,0,0,0,0,0l2.1-5.2v5.1h0c0,0,0,.2,0,.2h.7s0,0,0,0h0v-5.8c0,0,0-.1,0-.2h.2Z"></path>
            </g>
            <g>
              <path class="cls-5" d="M24.7,51.2c0-.2-.2-.3-.3-.4s-.2-.1-.4-.1H4.8c-.1,0-.3,0-.4.1s-.2.2-.3.4-.1.4-.2.7c0,.3,0,.7,0,1.1s0,.8,0,1.1c0,.3,0,.5.2.7s.2.3.3.4c0,0,.2.1.4.1h6.9v22.1c0,.1,0,.3.1.4,0,0,.2.2.5.3.2,0,.5.1.9.2s.8,0,1.4,0,1,0,1.4,0c.4,0,.7,0,.9-.2s.4-.2.5-.3c0,0,.1-.2.1-.4v-22.1h6.9c.1,0,.2,0,.4-.1,0,0,.2-.2.3-.4s.1-.4.2-.7c0-.3,0-.6,0-1.1s0-.8,0-1.1c0-.3,0-.5-.2-.7h0Z"></path>
              <path class="cls-5" d="M58.2,50.9c-.2,0-.5-.1-.8-.2-.4,0-.8,0-1.3,0s-1,0-1.4,0c-.4,0-.7,0-.9.2s-.4.2-.4.3c0,0-.1.2-.1.4v3.6c-2.6,3.2-5.1,4.8-7.5,4.8h0c-1.7,0-3-.9-3.8-1.5v-7c0-.1,0-.3-.1-.4,0,0-.2-.2-.5-.3-.2,0-.5-.1-.9-.2s-.8,0-1.3,0-1,0-1.4,0c-.4,0-.6,0-.9.2s-.4.2-.5.3c0,0-.1.2-.1.4v16.7c0,1.7.3,3.3.8,4.6.5,1.3,1.2,2.4,2.2,3.3s2.1,1.5,3.5,1.9c1.4.4,2.9.6,4.7.6s3.5-.2,4.9-.7,2.6-1.2,3.6-2.1,1.7-2,2.2-3.4.7-2.8.7-4.5v-16.4c0-.1,0-.3-.1-.4s-.2-.2-.5-.3h0ZM52.9,70.6c-.3.8-.6,1.4-1.1,1.9-.5.5-1.1.9-1.7,1.2-.7.3-1.5.4-2.3.4s-1.7-.1-2.3-.4c-.7-.3-1.3-.7-1.8-1.2-.5-.5-.9-1.2-1.2-2s-.4-1.7-.4-2.8v-7.5c.9.6,2.2,1.2,3.8,1.2,2.5,0,5.1-1.4,7.6-4.1v10.7c0,1-.1,1.8-.4,2.6h0Z"></path>
              <path class="cls-5" d="M91.5,65.5c-.5-.6-1.1-1-1.7-1.4-.7-.4-1.4-.6-2.1-.7.6-.2,1.2-.5,1.6-.9.5-.4.9-.8,1.2-1.3.3-.5.6-1,.7-1.6.2-.6.3-1.2.3-1.9,0-1.2-.2-2.2-.6-3.1-.4-.9-1-1.6-1.8-2.2-.8-.6-1.8-1-2.9-1.3s-2.6-.4-4.3-.4h-6.9c-.5,0-.9.1-1.2.4-.3.3-.5.7-.5,1.4v23.9c0,.6.2,1.1.5,1.4.3.3.7.4,1.2.4h7.3c1.1,0,2.1,0,3-.2s1.7-.3,2.5-.6c.8-.3,1.5-.6,2.2-1.1.7-.4,1.2-1,1.7-1.6s.9-1.3,1.1-2.1c.3-.8.4-1.7.4-2.6s-.1-1.8-.4-2.5c-.3-.8-.7-1.4-1.2-1.9h0ZM78.6,54.9h2.8c.9,0,1.6,0,2,.2s1,.4,1.3.7c.3.3.6.7.8,1.1s.3.9.3,1.5,0,1-.2,1.4c-.2.4-.4.8-.7,1.2-.3.3-.7.6-1.2.8-.5.2-1.1.3-1.9.3h-3.1v-7.1h0ZM86.9,71.8c-.2.5-.5.9-.9,1.2s-.9.6-1.4.7c-.5.2-1.2.2-1.9.2h-4v-7.8h3.3c1,0,1.8,0,2.5.3.6.2,1.2.4,1.6.8.4.4.7.8.9,1.3.2.5.3,1.1.3,1.7s0,1.2-.3,1.6h0Z"></path>
              <path class="cls-5" d="M125.1,65.5c-.5-.6-1.1-1-1.7-1.4-.7-.4-1.4-.6-2.1-.7.6-.2,1.2-.5,1.6-.9.5-.4.9-.8,1.2-1.3.3-.5.6-1,.7-1.6.2-.6.3-1.2.3-1.9,0-1.2-.2-2.2-.6-3.1-.4-.9-1-1.6-1.8-2.2-.8-.6-1.8-1-2.9-1.3s-2.6-.4-4.3-.4h-6.9c-.5,0-.9.1-1.2.4-.3.3-.5.7-.5,1.4v23.9c0,.6.2,1.1.5,1.4.3.3.7.4,1.2.4h7.3c1.1,0,2.1,0,3-.2.9-.1,1.7-.3,2.5-.6s1.5-.6,2.2-1.1c.7-.4,1.2-1,1.7-1.6s.8-1.3,1.1-2.1c.3-.8.4-1.7.4-2.6s-.1-1.8-.4-2.5c-.3-.8-.7-1.4-1.2-1.9h0ZM112.3,54.9h2.8c.9,0,1.6,0,2.1.2s1,.4,1.3.7c.3.3.6.7.8,1.1s.3.9.3,1.5,0,1-.2,1.4c-.2.4-.4.8-.7,1.2s-.7.6-1.2.8c-.5.2-1.1.3-1.9.3h-3.1v-7.1h0ZM120.6,71.8c-.2.5-.5.9-.9,1.2s-.9.6-1.4.7-1.2.2-1.9.2h-4v-7.8h3.3c1,0,1.8,0,2.5.3.6.2,1.2.4,1.6.8s.7.8.9,1.3.3,1.1.3,1.7,0,1.2-.3,1.6h0Z"></path>
              <path class="cls-5" d="M155.6,74.1c0-.2-.2-.3-.3-.4,0,0-.2-.1-.4-.1h-8.6v-22c0-.1,0-.3-.1-.4,0,0-.2-.2-.5-.3-.2,0-.5-.1-.9-.2s-.8,0-1.4,0-1,0-1.4,0c-.4,0-.7,0-.9.2s-.4.2-.5.3c0,0-.1.2-.1.4v24.9c0,.6.2,1.1.5,1.4.3.3.7.4,1.2.4h12.6c.1,0,.3,0,.4-.1s.2-.2.3-.4.1-.4.2-.7c0-.3,0-.7,0-1.1s0-.8,0-1.1c0-.3,0-.5-.2-.7h0Z"></path>
              <path class="cls-5" d="M183.3,74.9c0-.3,0-.5-.2-.7s-.2-.3-.3-.4-.2,0-.4,0h-9.9v-7.7h8.3c.1,0,.2,0,.4,0,0,0,.2-.2.3-.4,0-.2.1-.4.2-.7s0-.6,0-1,0-.7,0-1c0-.3,0-.5-.2-.7s-.2-.3-.3-.4c0,0-.2,0-.4,0h-8.3v-6.7h9.8c.1,0,.2,0,.3-.1,0,0,.2-.2.3-.4,0-.2.1-.4.2-.7s0-.6,0-1,0-.8,0-1.1,0-.5-.2-.7-.2-.3-.3-.4-.2,0-.3,0h-13.7c-.5,0-.9.1-1.2.4s-.5.7-.5,1.4v23.9c0,.6.2,1.1.5,1.4.3.3.7.4,1.2.4h13.8c.1,0,.2,0,.4,0,0,0,.2-.2.3-.4,0-.2.1-.4.2-.7s0-.6,0-1,0-.8,0-1h0Z"></path>
            </g>
          </g>
          <g id="Artwork-2">
            <g>
              <path class="cls-8" d="M189,48.6h.7l-.8-1.2h0c.4,0,.5-.4.5-.8,0-.7-.7-.8-1-.8h-1v2.8h.5v-1.1h.4l.6,1.1h0ZM188,46.2h.4c.3,0,.5.1.5.4s-.2.5-.5.5h-.4v-.9h0Z"></path>
              <path class="cls-8" d="M188.4,44.5c-1.5,0-2.7,1.2-2.7,2.7s1.2,2.7,2.7,2.7,2.7-1.2,2.7-2.7-1.2-2.7-2.7-2.7ZM188.4,49.5c-1.3,0-2.3-1-2.3-2.3s1-2.3,2.3-2.3,2.3,1,2.3,2.3-1,2.3-2.3,2.3Z"></path>
            </g>
            <g>
              <path class="cls-8" d="M63.5,89.7s0,0,0,0c0,0,0,0-.1,0h-.8s0,0-.1,0c0,0,0,0,0,0l-2.1,5.8c0,0,0,.1,0,.2s0,.1,0,.2c0,0,0,0,.2,0h.5c0,0,.1,0,.2,0,0,0,0,0,0,0,0,0,0,0,0,0l.5-1.5h2.4l.5,1.5s0,0,0,0c0,0,0,0,0,0s0,0,.2,0h.5c0,0,.1,0,.2,0,0,0,0,0,0-.1s0,0,0-.2l-2.1-5.8h0ZM63.9,93.5h-2l1-2.8,1,2.8h0Z"></path>
              <path class="cls-8" d="M75,89.6s0,0-.1,0h-.9c0,0-.1,0-.2,0,0,0,0,0-.2.2,0,0,0,.2-.1.3l-1.8,4.4-1.7-4.4c0,0,0-.2,0-.2s0-.1-.2-.2-.1,0-.2,0h-.8c0,0-.2,0-.3,0,0,0-.1.2-.1.3v5.7h0c0,.1,0,.2,0,.2h.7s0,0,0,0c0,0,0,0,0,0v-5.1l2,5.1s0,0,0,0c0,0,0,0,0,0h.5c0,0,0,0,.1,0,0,0,0,0,0,0,0,0,0,0,0,0l2.1-5.2v5.1s0,0,0,0c0,0,0,0,0,0h.7s0,0,0,0c0,0,0,0,0,0v-5.7c0,0,0-.1,0-.2,0,0,0,0,0-.1h0Z"></path>
              <path class="cls-8" d="M81.5,92.9c-.1-.1-.3-.3-.5-.4s-.4-.2-.5-.3-.3-.2-.5-.2h0c-.2,0-.3-.2-.5-.3s-.2-.2-.3-.3c0-.1,0-.3,0-.4s0-.2,0-.3c0,0,0-.2.2-.3,0,0,.2-.1.3-.2s.3,0,.4,0,.3,0,.5,0c.2,0,.3,0,.4.2s.2,0,.3.1c.2,0,.2,0,.3,0,0,0,0,0,0,0h0v-.3h0v-.2h0c0,0,0-.1,0-.2s0,0-.2-.1c0,0-.2,0-.3-.1s-.3,0-.4,0c-.1,0-.3,0-.4,0-.3,0-.5,0-.8,0-.2,0-.5.2-.6.3s-.3.3-.4.5-.1.5-.1.7,0,.5.1.7c0,.2.2.4.3.5s.3.3.5.4.3.2.5.3l.5.2c.2,0,.3.2.4.3.1,0,.2.2.3.3,0,.1,0,.3,0,.4s0,.3,0,.4c0,.1-.1.2-.2.3s-.2.1-.4.2c-.1,0-.3,0-.5,0s-.4,0-.6,0c-.2,0-.3,0-.5-.2s-.2-.1-.3-.2c-.2,0-.3,0-.3,0,0,0,0,0,0,0s0,0,0,.1v.5c0,0,0,.1,0,.2s0,0,.2.2.2,0,.4.2c.1,0,.3,0,.5.1.2,0,.4,0,.6,0s.6,0,.9-.1c.3,0,.5-.2.7-.4s.4-.4.5-.6c0-.2.2-.5.2-.8s0-.5-.1-.7c0-.2-.2-.4-.3-.5h-.1Z"></path>
              <path class="cls-8" d="M88.7,89.7s0,0,0,0h-4.5s0,0,0,0,0,0,0,.1v.3c0,0,0,0,0,.1,0,0,0,0,0,0h1.8v5.3h0c0,.1,0,.2,0,.2h.7s0,0,0,0h0v-5.4h1.8s0,0,0,0,0,0,0-.1v-.3c0,0,0,0,0-.1h0Z"></path>
              <path class="cls-8" d="M94.8,95.2s0,0,0,0h-2.5v-2.1h2.1s0,0,0,0c0,0,0,0,0-.1v-.3c0,0,0,0,0-.1,0,0,0,0,0,0h-2.1v-1.8h2.5s0,0,0,0,0,0,0-.1v-.3s0,0,0-.1c0,0,0,0,0,0h-3c0,0-.2,0-.2,0,0,0-.1.2-.1.3v5.5c0,.1,0,.3.1.3,0,0,.2,0,.2,0h3.1s0,0,0,0,0,0,0-.1v-.3s0,0,0-.1h0v-.2Z"></path>
              <path class="cls-8" d="M102,95.3l-.6-1.4c0-.2-.1-.3-.2-.4,0-.1-.1-.2-.2-.3s-.2-.2-.2-.3c0,0,0,0-.2,0,.1,0,.3-.1.4-.2.2,0,.3-.2.4-.3,0-.1.2-.3.3-.5,0-.2,0-.4,0-.6s0-.4,0-.6-.2-.4-.3-.5-.3-.3-.5-.4c-.2,0-.4-.2-.7-.2h-2c0,0-.2,0-.3,0s-.1.2-.1.3v5.7s0,0,0,0c0,0,0,0,0,0h.7s0,0,0,0c0,0,0,0,0,0v-2.6h.5c.2,0,.3,0,.5,0,.1,0,.2.1.3.2s.2.2.2.3.1.3.2.5l.6,1.5s0,0,0,0c0,0,0,0,0,0s0,0,.1,0h.6c0,0,0,0,0,0h0v-.2c0,0,0-.1,0-.3h0ZM100.8,91.3c0,.1,0,.3,0,.4,0,.1-.1.2-.2.3,0,0-.2.2-.4.2-.2,0-.3,0-.5,0h-.7v-1.9h1c0,0,.2,0,.3,0,.2,0,.4.2.5.3s.2.4.2.6h0Z"></path>
              <path class="cls-8" d="M109.1,90.4c-.3-.3-.6-.5-1-.6-.4-.1-.9-.2-1.4-.2h-1.4c0,0-.2,0-.3,0s-.1.2-.1.3v5.5c0,.1,0,.3.1.3,0,0,.2,0,.3,0h1.3c.5,0,1,0,1.4-.2.4-.1.7-.3,1-.6s.5-.6.6-1c.1-.4.2-.9.2-1.4s0-.9-.2-1.3-.3-.7-.6-1h0ZM106.7,95.1h-.8v-4.7h.8c.4,0,.8,0,1,.2s.5.3.7.5.3.5.4.7c0,.3.1.6.1.9s0,.8-.1,1.1c0,.3-.2.5-.4.7s-.4.3-.7.4-.6.1-1,.1h0Z"></path>
              <path class="cls-8" d="M115.5,89.7s0,0,0,0c0,0,0,0-.1,0h-.8c0,0,0,0-.1,0,0,0,0,0,0,0l-2.1,5.8c0,0,0,.1,0,.2s0,.1,0,.2c0,0,0,0,.2,0h.5c0,0,.1,0,.2,0,0,0,0,0,0,0,0,0,0,0,0,0l.5-1.5h2.5l.5,1.5s0,0,0,0c0,0,0,0,0,0s0,0,.2,0h.5c0,0,.1,0,.2,0,0,0,0,0,0-.1s0,0,0-.2l-2.1-5.8h0ZM115.8,93.5h-2l1-2.8,1,2.8Z"></path>
              <path class="cls-8" d="M127.1,89.8c0,0,0,0,0-.1s0,0-.1,0h-.9c0,0-.1,0-.2,0s0,0-.2.2c0,0,0,.2-.1.3l-1.8,4.4-1.7-4.4c0,0,0-.2,0-.2s0-.1-.2-.2-.1,0-.2,0h-.8c0,0-.2,0-.3,0,0,0-.1.2-.1.3v5.7h0c0,.1,0,.2,0,.2h.7s0,0,0,0h0v-5.2l2,5.1s0,0,0,0,0,0,0,0h.5c0,0,0,0,.1,0,0,0,0,0,0,0,0,0,0,0,0,0l2.1-5.2v5.1h0c0,0,0,.2,0,.2h.7s0,0,0,0h0v-5.8c0,0,0-.1,0-.2h.2Z"></path>
            </g>
            <g>
              <path class="cls-8" d="M24.7,51.2c0-.2-.2-.3-.3-.4s-.2-.1-.4-.1H4.8c-.1,0-.3,0-.4.1s-.2.2-.3.4-.1.4-.2.7c0,.3,0,.7,0,1.1s0,.8,0,1.1c0,.3,0,.5.2.7s.2.3.3.4c0,0,.2.1.4.1h6.9v22.1c0,.1,0,.3.1.4,0,0,.2.2.5.3.2,0,.5.1.9.2s.8,0,1.4,0,1,0,1.4,0c.4,0,.7,0,.9-.2s.4-.2.5-.3c0,0,.1-.2.1-.4v-22.1h6.9c.1,0,.2,0,.4-.1,0,0,.2-.2.3-.4s.1-.4.2-.7c0-.3,0-.6,0-1.1s0-.8,0-1.1c0-.3,0-.5-.2-.7h0Z"></path>
              <path class="cls-8" d="M58.2,50.9c-.2,0-.5-.1-.8-.2-.4,0-.8,0-1.3,0s-1,0-1.4,0c-.4,0-.7,0-.9.2s-.4.2-.4.3c0,0-.1.2-.1.4v3.6c-2.6,3.2-5.1,4.8-7.5,4.8h0c-1.7,0-3-.9-3.8-1.5v-7c0-.1,0-.3-.1-.4,0,0-.2-.2-.5-.3-.2,0-.5-.1-.9-.2s-.8,0-1.3,0-1,0-1.4,0c-.4,0-.6,0-.9.2s-.4.2-.5.3c0,0-.1.2-.1.4v16.7c0,1.7.3,3.3.8,4.6.5,1.3,1.2,2.4,2.2,3.3s2.1,1.5,3.5,1.9c1.4.4,2.9.6,4.7.6s3.5-.2,4.9-.7,2.6-1.2,3.6-2.1,1.7-2,2.2-3.4.7-2.8.7-4.5v-16.4c0-.1,0-.3-.1-.4s-.2-.2-.5-.3h0ZM52.9,70.6c-.3.8-.6,1.4-1.1,1.9-.5.5-1.1.9-1.7,1.2-.7.3-1.5.4-2.3.4s-1.7-.1-2.3-.4c-.7-.3-1.3-.7-1.8-1.2-.5-.5-.9-1.2-1.2-2s-.4-1.7-.4-2.8v-7.5c.9.6,2.2,1.2,3.8,1.2,2.5,0,5.1-1.4,7.6-4.1v10.7c0,1-.1,1.8-.4,2.6h0Z"></path>
              <path class="cls-8" d="M91.5,65.5c-.5-.6-1.1-1-1.7-1.4-.7-.4-1.4-.6-2.1-.7.6-.2,1.2-.5,1.6-.9.5-.4.9-.8,1.2-1.3.3-.5.6-1,.7-1.6.2-.6.3-1.2.3-1.9,0-1.2-.2-2.2-.6-3.1-.4-.9-1-1.6-1.8-2.2-.8-.6-1.8-1-2.9-1.3s-2.6-.4-4.3-.4h-6.9c-.5,0-.9.1-1.2.4-.3.3-.5.7-.5,1.4v23.9c0,.6.2,1.1.5,1.4.3.3.7.4,1.2.4h7.3c1.1,0,2.1,0,3-.2s1.7-.3,2.5-.6c.8-.3,1.5-.6,2.2-1.1.7-.4,1.2-1,1.7-1.6s.9-1.3,1.1-2.1c.3-.8.4-1.7.4-2.6s-.1-1.8-.4-2.5c-.3-.8-.7-1.4-1.2-1.9h0ZM78.6,54.9h2.8c.9,0,1.6,0,2,.2s1,.4,1.3.7c.3.3.6.7.8,1.1s.3.9.3,1.5,0,1-.2,1.4c-.2.4-.4.8-.7,1.2-.3.3-.7.6-1.2.8-.5.2-1.1.3-1.9.3h-3.1v-7.1h0ZM86.9,71.8c-.2.5-.5.9-.9,1.2s-.9.6-1.4.7c-.5.2-1.2.2-1.9.2h-4v-7.8h3.3c1,0,1.8,0,2.5.3.6.2,1.2.4,1.6.8.4.4.7.8.9,1.3.2.5.3,1.1.3,1.7s0,1.2-.3,1.6h0Z"></path>
              <path class="cls-8" d="M125.1,65.5c-.5-.6-1.1-1-1.7-1.4-.7-.4-1.4-.6-2.1-.7.6-.2,1.2-.5,1.6-.9.5-.4.9-.8,1.2-1.3.3-.5.6-1,.7-1.6.2-.6.3-1.2.3-1.9,0-1.2-.2-2.2-.6-3.1-.4-.9-1-1.6-1.8-2.2-.8-.6-1.8-1-2.9-1.3s-2.6-.4-4.3-.4h-6.9c-.5,0-.9.1-1.2.4-.3.3-.5.7-.5,1.4v23.9c0,.6.2,1.1.5,1.4.3.3.7.4,1.2.4h7.3c1.1,0,2.1,0,3-.2.9-.1,1.7-.3,2.5-.6s1.5-.6,2.2-1.1c.7-.4,1.2-1,1.7-1.6s.8-1.3,1.1-2.1c.3-.8.4-1.7.4-2.6s-.1-1.8-.4-2.5c-.3-.8-.7-1.4-1.2-1.9h0ZM112.3,54.9h2.8c.9,0,1.6,0,2.1.2s1,.4,1.3.7c.3.3.6.7.8,1.1s.3.9.3,1.5,0,1-.2,1.4c-.2.4-.4.8-.7,1.2s-.7.6-1.2.8c-.5.2-1.1.3-1.9.3h-3.1v-7.1h0ZM120.6,71.8c-.2.5-.5.9-.9,1.2s-.9.6-1.4.7-1.2.2-1.9.2h-4v-7.8h3.3c1,0,1.8,0,2.5.3.6.2,1.2.4,1.6.8s.7.8.9,1.3.3,1.1.3,1.7,0,1.2-.3,1.6h0Z"></path>
              <path class="cls-8" d="M155.6,74.1c0-.2-.2-.3-.3-.4,0,0-.2-.1-.4-.1h-8.6v-22c0-.1,0-.3-.1-.4,0,0-.2-.2-.5-.3-.2,0-.5-.1-.9-.2s-.8,0-1.4,0-1,0-1.4,0c-.4,0-.7,0-.9.2s-.4.2-.5.3c0,0-.1.2-.1.4v24.9c0,.6.2,1.1.5,1.4.3.3.7.4,1.2.4h12.6c.1,0,.3,0,.4-.1s.2-.2.3-.4.1-.4.2-.7c0-.3,0-.7,0-1.1s0-.8,0-1.1c0-.3,0-.5-.2-.7h0Z"></path>
              <path class="cls-8" d="M183.3,74.9c0-.3,0-.5-.2-.7s-.2-.3-.3-.4-.2,0-.4,0h-9.9v-7.7h8.3c.1,0,.2,0,.4,0,0,0,.2-.2.3-.4,0-.2.1-.4.2-.7s0-.6,0-1,0-.7,0-1c0-.3,0-.5-.2-.7s-.2-.3-.3-.4c0,0-.2,0-.4,0h-8.3v-6.7h9.8c.1,0,.2,0,.3-.1,0,0,.2-.2.3-.4,0-.2.1-.4.2-.7s0-.6,0-1,0-.8,0-1.1,0-.5-.2-.7-.2-.3-.3-.4-.2,0-.3,0h-13.7c-.5,0-.9.1-1.2.4s-.5.7-.5,1.4v23.9c0,.6.2,1.1.5,1.4.3.3.7.4,1.2.4h13.8c.1,0,.2,0,.4,0,0,0,.2-.2.3-.4,0-.2.1-.4.2-.7s0-.6,0-1,0-.8,0-1h0Z"></path>
            </g>
          </g>
        </g>
        <g class="cls-7">
          <path id="uuid-77d75509-0310-4120-8802-e3cfaecfa7e7" class="cls-2" d="M60.1,112.5h0l-11.2-19.6h6.7l4.5,8.4,4.5-8.4h6.7l-11.2,19.6h0ZM162.9,112.5c-2.5,0-5-1-6.8-2.7-1.9-1.9-3-4.5-3-7.2s1-5.3,2.7-7.1c1.8-1.8,4.4-2.8,7.2-2.8s4.8.8,6.5,2.4c1.8,1.7,2.8,4.1,2.8,6.9s0,1.1-.1,1.7h-13.5c.2,1.8,1.6,3.6,4.2,3.6s3.3-.8,4.1-2.4l4.6,3.1c-1.9,2.9-5.1,4.6-8.7,4.6h0ZM162.6,97.3c-1.6,0-3.5.8-4,2.9h7.9c-.3-1.8-1.7-2.9-3.9-2.9h0ZM123.7,112.5c-2.6,0-5.1-1.1-6.8-3-1.6-1.8-2.5-4.3-2.5-6.9s.9-5.1,2.5-6.9c1.7-1.9,4.2-3,6.8-3s3,.5,4.2,1.5v-1.2h5.8v19.3h-5.8v-1.1c-1.1.9-2.6,1.4-4.2,1.4h0ZM124.7,98c-2.6,0-4.4,1.9-4.4,4.6s1.8,4.6,4.4,4.6,2.4-.5,3.3-1.6v-6c-.8-1-2-1.7-3.3-1.6h0ZM104.2,112.5c-5.5,0-10-4.5-10-9.9s4.5-9.9,10-9.9,6.6,1.7,8.4,4.5l-4.6,3.3c-.8-1.5-2.2-2.4-3.8-2.4-2.4,0-4.2,1.9-4.2,4.5s1.8,4.5,4.2,4.5,3-.9,3.8-2.4l4.6,3.3c-1.9,2.9-5,4.6-8.4,4.5h0ZM81.9,112.5c-5.5,0-10-4.5-10-9.9s4.5-9.9,10-9.9,10,4.5,10,9.9-4.5,9.9-10,9.9h0ZM81.9,98.1c-2.4,0-4.2,1.9-4.2,4.5s1.8,4.5,4.2,4.5,4.2-1.9,4.2-4.5-1.8-4.5-4.2-4.5h0ZM37.1,112.5c-2.6,0-5.1-1.1-6.8-3-1.6-1.8-2.5-4.3-2.5-6.9s.9-5.1,2.5-6.9c1.7-1.9,4.2-3,6.8-3s3,.5,4.2,1.5v-9.2h5.8v27.3h-5.8v-1.1c-1.1.9-2.6,1.4-4.2,1.4h0ZM38.1,98c-2.6,0-4.4,1.9-4.4,4.6s1.8,4.6,4.4,4.6,2.4-.5,3.3-1.6v-6c-.8-1-2-1.7-3.3-1.6h0ZM181.5,112.2h-5.8v-19.3h5.8v1.2c1.2-1,2.7-1.5,4.4-1.5,2.6,0,4.8.9,6.2,2.5,1.4,1.5,2.2,3.7,2.2,6.4v10.7h-5.8v-9.7c0-2.9-1.3-4.5-3.5-4.5s-2.6.7-3.5,1.7v12.6h0ZM6.5,112.2H0l13.5-27.7,13.5,27.7h-6.5l-2-4.2h-10.1l-2,4.2h.1ZM13.5,97.3l-2.6,5.7h5.2l-2.6-5.7h0ZM150.6,112.2h-5.3c-3.6,0-5.9-2.3-5.9-5.9v-8.2h-2.5l-1.3-5.1h3.8v-2.9l5.8-2.9v5.8h6.1l-1.3,5.1h-4.8v6.6c0,1.6.6,2.3,2.2,2.3h3.2v5.3h0ZM102.8,73.7h-5.8v-27.3h5.8v16.9l6.3-8.8h6.7l-6.5,9.1,7.5,10.1h-6.9l-7.1-9.6v9.6h0ZM49.1,73.7h-5.8v-19.3h5.8v1.2c1.2-1,2.7-1.5,4.4-1.5,5.2,0,8.4,3.4,8.4,8.8v10.7h-5.8v-9.7c0-2.9-1.3-4.5-3.5-4.5s-2.6.7-3.5,1.7v12.6h0ZM38.7,73.7h-5.8v-19.3h5.8v19.3h0ZM28.4,73.7h-5.8v-27.3h5.8v27.3h0ZM9.1,73.7H3v-27.3h16.2v6.1h-10v4.6h7.7v5.9h-7.7v10.7h-.1ZM38.6,51.7h-5.4c-.5-.6-.8-1.4-.8-2.2,0-1.9,1.6-3.5,3.5-3.5s3.5,1.5,3.5,3.5-.3,1.6-.8,2.2h0Z"></path>
          <path id="uuid-f6676e4b-096c-41ce-bb58-31ce62c4a03c" class="cls-2" d="M65.2,17.4v64.1h29V17.4h-29ZM80.3,68.3c1.7,0,3-1,3.8-2.4l4.6,3.3c-1.9,2.8-5,4.5-8.4,4.5-5.5,0-9.9-4.4-10-9.8,0-5.5,4.4-9.9,9.8-10h0c3.4,0,6.6,1.7,8.4,4.5l-4.6,3.3c-.8-1.4-2.1-2.4-3.8-2.4s-4.1,1.8-4.1,4.5,1.8,4.5,4.1,4.5h0Z"></path>
        </g>
        <g class="cls-7">
          <g id="uuid-61fcd8af-5af3-4bb9-82bd-508b0886d337">
            <g id="uuid-b0261f43-e536-4ae5-8568-a22a1d7cd6f7">
              <path id="uuid-06125c99-95e0-4bc9-ad1a-1cba7f234c29" class="cls-3" d="M122.8,46.1l17,21.8v-21.8h9.5v35h-10.8l-13.2-17v17h-9.5v-35s7,0,7,0ZM50,46.1l9.8,26.4,9.5-26.4h9.8l-12.9,35h-13l-13.1-35s9.9,0,9.9,0ZM97.5,46.1l13.1,35h-9.6l-1.6-4.3h-12.5l-1.5,4.3h-9.7l12.9-35s8.9,0,8.9,0ZM11.8,36v15.6h14.5v-15.6h9.5v40.5h-9.5v-16h-14.5v16H2.3v-40.5h9.5ZM177.8,36l15.1,40.5h-9.8l-1.9-5.2h-15.6l-1.8,5.2h-9.8l14.9-40.5h8.9ZM93,57.6l-3.9,11.1h7.8l-3.9-11.1ZM173.3,50l-4.8,13.1h9.6l-4.9-13.1h0Z"></path>
            </g>
          </g>
          <g class="cls-6">
            <g class="cls-6">
              <path class="cls-2" d="M5,89.8v4.2l-2.6-3v3h-.5v-4.2l2.6,3v-3h.5Z"></path>
              <path class="cls-2" d="M10.5,93.9v-4.2h.5v4.2h-.5Z"></path>
              <path class="cls-2" d="M16.9,90.2v1.4h1.7v.5h-1.7v1.4h2v.5h-2.5v-4.2h2.5v.5h-2Z"></path>
              <path class="cls-2" d="M27,89.8v2.7c0,.8-.6,1.4-1.4,1.4s-1.4-.6-1.4-1.4v-2.7h.5v2.7c0,.5.4.9.9.9s.9-.4.9-.9v-2.7h.5Z"></path>
              <path class="cls-2" d="M35.9,89.8l-1.6,4.3-1-2.9-1,2.9-1.6-4.3h.5l1.1,2.9,1.1-3,1,3,1.1-2.9h.5,0Z"></path>
              <path class="cls-2" d="M41.8,92.8h0c0,.6-.5,1.1-1.1,1.1h-.2c-.5,0-1-.4-1.1-.9h.5c0,.2.3.4.6.4h.2c.3,0,.6-.3.6-.6h0c0-.3-.2-.5-.4-.6l-.8-.3c-.5-.2-.8-.7-.7-1.2s.5-.9,1.1-.9h.2c.4,0,.8.2,1,.6l-.4.2c0-.2-.3-.3-.6-.3h-.2c-.3,0-.6.2-.6.5s0,.6.4.7l.8.3c.4.2.7.6.7,1h0Z"></path>
              <path class="cls-2" d="M50.6,90.2v1.4h1.7v.5h-1.7v1.4h2v.5h-2.5v-4.2h2.5v.5h-2Z"></path>
              <path class="cls-2" d="M59.4,89.8v4.2l-2.6-3v3h-.5v-4.2l2.6,3v-3h.5Z"></path>
              <path class="cls-2" d="M71.9,91.8c0,1.1-.9,2.1-2.1,2.1s-2.1-.9-2.1-2.1.9-2.1,2.1-2.1,2.1.9,2.1,2.1ZM69.8,93.5c.9,0,1.6-.7,1.6-1.6s-.7-1.6-1.6-1.6-1.6.7-1.6,1.6.7,1.6,1.6,1.6h0Z"></path>
              <path class="cls-2" d="M77.3,89.8c.4,0,.8.2,1,.6s.2.8,0,1.2-.6.6-1,.6h-1.1v1.8h-.5v-4.2h1.6ZM77.9,91.2c0-.2,0-.5,0-.7s-.4-.3-.6-.3h-1.1v1.4h1.1c.3,0,.5,0,.6-.3h0Z"></path>
              <path class="cls-2" d="M82.2,93.9v-4.2h.5v4.2h-.5Z"></path>
              <path class="cls-2" d="M89.7,89.8v4.2l-2.6-3v3h-.5v-4.2l2.6,3v-3h.5Z"></path>
              <path class="cls-2" d="M93.7,93.9v-4.2h.5v4.2h-.5Z"></path>
              <path class="cls-2" d="M98.6,90.2v1.4h1.7v.5h-1.7v1.4h2v.5h-2.5v-4.2h2.5v.5h-2Z"></path>
              <path class="cls-2" d="M111.4,91.8c0,1.1-.9,2.1-2.1,2.1s-2.1-.9-2.1-2.1.9-2.1,2.1-2.1,2.1.9,2.1,2.1ZM109.3,93.5c.9,0,1.6-.7,1.6-1.6s-.7-1.6-1.6-1.6-1.6.7-1.6,1.6.7,1.6,1.6,1.6h0Z"></path>
              <path class="cls-2" d="M118.1,89.8l-1.6,4.2-1.6-4.2h.5l1.1,2.9,1.1-2.9h.5Z"></path>
              <path class="cls-2" d="M122.1,90.2v1.4h1.7v.5h-1.7v1.4h2v.5h-2.5v-4.2h2.5v.5h-2Z"></path>
              <path class="cls-2" d="M130.9,93.9h-.6l-1.3-1.8h-.7v1.8h-.5v-4.2h1.6c.6,0,1.1.5,1.1,1.1s-.4,1.1-1.1,1.2l1.3,1.8h.2ZM129.5,91.6c.3,0,.5,0,.6-.3s.1-.5,0-.7-.4-.3-.6-.3h-1.1v1.4h1.1Z"></path>
              <path class="cls-2" d="M138.8,89.8c1.1,0,2.1.9,2.1,2.1s-.9,2.1-2.1,2.1h-1.1v-4.2h1.1ZM138.8,93.5c.9,0,1.6-.7,1.6-1.6s-.7-1.6-1.6-1.6h-.7v3.2h.7Z"></path>
              <path class="cls-2" d="M145.1,90.2v1.4h1.7v.5h-1.7v1.4h2v.5h-2.5v-4.2h2.5v.5h-2Z"></path>
              <path class="cls-2" d="M157,89.8v4.2h-.5v-1.8h-2.1v1.8h-.5v-4.2h.5v1.8h2.1v-1.8h.5Z"></path>
              <path class="cls-2" d="M163.9,89.8l-1.6,4.2-1.6-4.2h.5l1.1,2.9,1.1-2.9h.5Z"></path>
              <path class="cls-2" d="M170.4,93.9h-.5l-.3-.8h-1.7l-.3.8h-.5l1.6-4.2,1.6,4.2h0ZM169.4,92.7l-.6-1.7-.7,1.7h1.3Z"></path>
            </g>
            <g class="cls-6">
              <path class="cls-2" d="M174.3,89.8v1.5h-.4v-1.5h.4Z"></path>
            </g>
            <g class="cls-6">
              <path class="cls-2" d="M178.6,90.2v1.4h1.7v.5h-1.7v1.4h2v.5h-2.5v-4.2h2.5v.5h-2Z"></path>
              <path class="cls-2" d="M187.4,93.9h-.6l-1.3-1.8h-.7v1.8h-.5v-4.2h1.6c.6,0,1.1.5,1.1,1.1s-.4,1.1-1.1,1.2l1.3,1.8h.2ZM186,91.6c.3,0,.5,0,.6-.3.1-.2.1-.5,0-.7s-.4-.3-.6-.3h-1.1v1.4h1.1Z"></path>
              <path class="cls-2" d="M193.3,92.8h0c0,.6-.5,1.1-1.1,1.1h-.2c-.5,0-1-.4-1.1-.9h.5c0,.2.3.4.6.4h.2c.3,0,.6-.3.6-.6h0c0-.3-.2-.5-.4-.6l-.8-.3c-.5-.2-.8-.7-.7-1.2s.5-.9,1.1-.9h.2c.4,0,.8.2,1,.6l-.4.2c-.1-.2-.3-.3-.6-.3h-.2c-.3,0-.6.2-.6.5s.1.6.4.7l.8.3c.4.2.7.6.7,1h0Z"></path>
            </g>
          </g>
        </g>
      </g>
      <g class="cls-9">
        <g>
          <path class="cls-1" d="M119.7,64.9c0,3.9,2.1,6.4,5.2,6.4s3.8-1.2,3.8-3.4v-.2c0-1.4-.2-2.2-1.2-2.6h0s4.2,0,4.2,0h0c-1,.4-1.2,1.3-1.2,2.6v4.4h0l-1.7-2.6c-.5,1.3-2,2.6-4.2,2.6-4.1,0-7.1-3.1-7.1-7.3s3.3-7.6,7.4-7.6,2.8.7,3.4.7,1.1-.4,1.3-.7l.2,4.5h0c-.8-2.4-2.6-4.1-4.9-4.1-3.4,0-5.3,2.9-5.3,7.2h0Z"></path>
          <path class="cls-1" d="M138.9,57.4c3,0,5.4,1,5.4,3.8s-2.4,3.6-4.8,3.7c2.1.2,3.1,1.2,3.6,2.7l.6,1.7c.5,1.6,1.2,2.1,2.4,2.5h0s-3.2,0-3.2,0c-.4-.4-.8-1.2-1.2-2.2l-.6-1.9c-.5-1.5-1.2-2.7-3-2.7h-2.5v4.2c0,1.4.2,2.2,1.2,2.6h0s-4.2,0-4.2,0h0c1-.5,1.2-1.3,1.2-2.6v-9.2c0-1.4-.2-2.2-1.2-2.6h0s6.2,0,6.2,0h0ZM135.8,64.6h2.9c2.1,0,3.6-.8,3.6-3.2s-1.3-3.4-3.6-3.4h-2.9v6.6h0Z"></path>
          <path class="cls-1" d="M153,72.1c-3.8,0-7.1-3.1-7.1-7.4s3.2-7.4,7.1-7.4,7.1,3.1,7.1,7.4-3.2,7.4-7.1,7.4ZM153,57.7c-3.2,0-4.9,3-4.9,7s1.7,7,4.9,7,4.9-3,4.9-7-1.7-7-4.9-7Z"></path>
          <path class="cls-1" d="M169,72.1c-3.8,0-7.1-3.1-7.1-7.4s3.2-7.4,7.1-7.4,7.1,3.1,7.1,7.4-3.2,7.4-7.1,7.4ZM169,57.7c-3.2,0-4.9,3-4.9,7s1.7,7,4.9,7,4.9-3,4.9-7-1.7-7-4.9-7Z"></path>
          <path class="cls-1" d="M189.4,57.4c.4,0,.8,0,1-.1l.7,4.2h0c-1.3-2.3-2-3.5-4.4-3.5h-1.7v11.5c0,1.4.3,2,1.3,2.4h0s-4.4,0-4.4,0h0c1-.5,1.3-1.1,1.3-2.5v-11.5h-1.7c-2.3,0-3,1.2-4.4,3.5h0l.7-4.2c.2.1.6.1,1,.1h10.7,0Z"></path>
          <path class="cls-1" d="M13.3,57.4c.4,0,.8,0,1-.1l.7,3.6h0c-1.1-2-2.3-2.9-4.6-2.9h-3.5v6.3h2.9c1.7,0,2.2-.4,2.9-2.3h0v4.8h0c-.7-1.9-1.2-2-2.9-2h-2.9v6.5h3.9c2.3,0,3.7-1.1,4.8-3.3h0l-.7,3.8H3.9c1-.5,1.2-1.3,1.2-2.6v-9.2c0-1.4-.2-2.2-1.2-2.6h0s9.4,0,9.4,0h0Z"></path>
          <path class="cls-1" d="M28.4,58.8c0-.6-.4-1.1-1-1.4h0s3.3,0,3.3,0h0c-.8.5-1.3,1.4-1.9,2.8l-5.2,11.9h0l-5.6-12.4c-.6-1.3-.9-1.9-1.7-2.3h0s4.3,0,4.3,0h0c-.6.3-.9.6-.9,1.1s.1.7.4,1.2l4.3,9.5,3.9-9c.2-.4.4-.9.4-1.4h0Z"></path>
          <path class="cls-1" d="M41.4,57.4c.4,0,.8,0,1-.1l.7,3.6h0c-1.1-2-2.3-2.9-4.6-2.9h-3.5v6.3h2.9c1.7,0,2.2-.4,2.9-2.3h0v4.8h0c-.7-1.9-1.2-2-2.9-2h-2.9v6.5h3.9c2.3,0,3.7-1.1,4.8-3.3h0l-.7,3.8h-11.1c1-.5,1.2-1.3,1.2-2.6v-9.2c0-1.4-.2-2.2-1.2-2.6h0s9.4,0,9.4,0h0Z"></path>
          <path class="cls-1" d="M51.5,57.4c3,0,5.4,1,5.4,3.8s-2.4,3.6-4.8,3.7c2.1.2,3.1,1.2,3.6,2.7l.6,1.7c.5,1.6,1.2,2.1,2.4,2.5h0s-3.2,0-3.2,0c-.4-.4-.8-1.2-1.2-2.2l-.6-1.9c-.5-1.5-1.2-2.7-3-2.7h-2.5v4.2c0,1.4.2,2.2,1.2,2.6h0s-4.2,0-4.2,0h0c1-.5,1.2-1.3,1.2-2.6v-9.2c0-1.4-.2-2.2-1.2-2.6h0s6.2,0,6.2,0h0ZM48.3,64.5h2.9c2.1,0,3.6-.8,3.6-3.2s-1.3-3.4-3.6-3.4h-2.9v6.6h0Z"></path>
          <path class="cls-1" d="M71.2,57.4c.4,0,.8,0,1-.1l.7,4.2h0c-1.3-2.3-2-3.5-4.4-3.5h-1.7v11.5c0,1.4.3,2,1.3,2.4h0s-4.4,0-4.4,0h0c1-.5,1.3-1.1,1.3-2.5v-11.5h-1.7c-2.3,0-3,1.2-4.4,3.5h0l.7-4.2c.2.1.6.1,1,.1h10.7Z"></path>
          <path class="cls-1" d="M99.9,49.1l-3.9,3.9,1.6,1.6,3.9-3.9-1.6-1.6Z"></path>
          <path class="cls-1" d="M108.7,57.9l-12.7,12.7,1.6,1.6,12.7-12.7-1.6-1.6Z"></path>
          <path class="cls-1" d="M80.7,57.9l-1.6,1.6,3.9,3.9,1.6-1.6-3.9-3.9Z"></path>
          <path class="cls-1" d="M106.3,65.9l-1.6,1.6,3.9,3.9,1.6-1.6-3.9-3.9Z"></path>
          <path class="cls-1" d="M91.9,74.7l-3.9,3.9,1.6,1.6,3.9-3.9-1.6-1.6Z"></path>
          <path class="cls-1" d="M88.8,65.9l-1.6,1.6,12.7,12.7,1.6-1.6-12.7-12.7Z"></path>
          <path class="cls-1" d="M91.9,57.1l-12.7,12.7,1.6,1.6,12.7-12.7-1.6-1.6Z"></path>
          <path class="cls-1" d="M89.5,49.1l-1.6,1.6,12.7,12.7,1.6-1.6-12.7-12.7Z"></path>
          <path class="cls-1" d="M96.6,32.3h-3.8v2.6h3.2v.6h-3.2v2.8h3.8v.6h-4.5v-7.1h4.4v.6Z"></path>
          <path class="cls-1" d="M70.7,38.9h-.6l-.7-2h-3.1l-.7,2h-.6l2.6-7.1h.7l2.6,7.1h0ZM67.8,32.5h0l-1.4,3.8h2.7l-1.4-3.8Z"></path>
          <path class="cls-1" d="M75.3,36.8h-.4l-2.4-4h0v6.1h-.6v-7.1h.7l2.5,4.4,2.5-4.4h.7v7.1h-.6v-6.1h0l-2.3,4h0Z"></path>
          <path class="cls-1" d="M82.2,35.4c-1.3-.2-2.1-.6-2.1-1.9h0c0-1.4,1-1.9,2.4-1.9s2.5.7,2.5,2.1h-.6c0-1.1-.6-1.6-1.9-1.6s-1.8.3-1.8,1.3h0c0,.9.6,1.2,1.6,1.3h.8c1.4.3,2.1.9,2.1,2.1h0c0,1.5-1,2.1-2.5,2.1s-2.7-.7-2.7-2.4h.6c0,1.3.9,1.9,2.1,1.9s1.9-.4,1.9-1.5h0c0-.9-.5-1.3-1.6-1.4h-.8Z"></path>
          <path class="cls-1" d="M90.9,32.3h-2.2v6.6h-.6v-6.6h-2.2v-.6h5v.6Z"></path>
          <path class="cls-1" d="M98.8,38.9h-.6v-7.1h2.5c1.7,0,2.4.6,2.4,2.1h0c0,1.4-.6,2-1.9,2.1l2.1,2.9h-.7l-2.1-2.8h-1.7v2.8h0ZM100.6,35.5c1.3,0,1.8-.4,1.8-1.6h0c0-1.2-.5-1.6-1.8-1.6h-1.9v3.2h1.8Z"></path>
          <path class="cls-1" d="M104.8,38.9v-7.1h2.2c2.1,0,3.1,1.2,3.1,3.6h0c0,2.4-1,3.6-3.1,3.6h-2.2ZM106.9,38.3c1.7,0,2.5-.9,2.5-3h0c0-2.1-.8-3-2.5-3h-1.6v6h1.6Z"></path>
          <path class="cls-1" d="M116.8,38.9h-.6l-.7-2h-3.1l-.7,2h-.6l2.6-7.1h.7l2.6,7.1h0ZM113.9,32.5h0l-1.4,3.8h2.7l-1.4-3.8Z"></path>
          <path class="cls-1" d="M121.5,36.8h-.4l-2.4-4h0v6.1h-.6v-7.1h.7l2.5,4.4,2.5-4.4h.7v7.1h-.6v-6.1h0l-2.3,4h0Z"></path>
          <path class="cls-1" d="M59.8,89.5h-.5l.8-1.3h.9l-1.2,1.3Z"></path>
          <path class="cls-1" d="M68,90.8h-2.2v6.6h-.6v-6.6h-2.2v-.6h5v.6Z"></path>
          <path class="cls-1" d="M74.6,93.8h0c0,2.5-.9,3.7-3,3.7s-3-1.3-3-3.7h0c0-2.5.9-3.7,3-3.7s3,1.3,3,3.7ZM74,93.9h0c0-2.1-.7-3.2-2.3-3.2s-2.3,1-2.3,3.1h0c0,2.1.7,3.2,2.3,3.2s2.3-1,2.3-3.1Z"></path>
          <path class="cls-1" d="M80.5,90.8h-3.6v2.7h3.2v.6h-3.2v3.3h-.6v-7.1h4.2v.6h0Z"></path>
          <path class="cls-1" d="M86.2,90.8h-3.6v2.7h3.2v.6h-3.2v3.3h-.6v-7.1h4.2v.6h0Z"></path>
          <path class="cls-1" d="M96.7,94.9v-4.6h.6v4.6c0,1.5.6,2.1,1.9,2.1s1.9-.6,1.9-2.1v-4.6h.6v4.6c0,1.8-.8,2.6-2.5,2.6s-2.5-.8-2.5-2.6Z"></path>
          <path class="cls-1" d="M108.6,97.4h-.6l-3.9-6.1h0v6.1h-.6v-7.1h.6l3.9,6.1h0v-6.1h.6v7.1Z"></path>
          <path class="cls-1" d="M110.6,90.3h.6v7.1h-.6v-7.1Z"></path>
          <path class="cls-1" d="M115.5,97.6c-1.8-.4-2.6-1.4-2.6-3.8h0c0-2.5.9-3.7,3-3.7s3,1.3,3,3.7h0c0,2.2-.7,3.3-2.3,3.5h0s2,.4,2,.4v.6l-3-.7h0ZM118.2,93.9h0c0-2.1-.7-3.2-2.3-3.2s-2.3,1-2.3,3.1h0c0,2.1.7,3.2,2.3,3.2s2.3-1,2.3-3.1Z"></path>
          <path class="cls-1" d="M120.5,94.9v-4.6h.6v4.6c0,1.5.6,2.1,1.9,2.1s1.9-.6,1.9-2.1v-4.6h.6v4.6c0,1.8-.8,2.6-2.5,2.6s-2.5-.8-2.5-2.6Z"></path>
          <path class="cls-1" d="M92,90.8h-3.8v2.6h3.2v.6h-3.2v2.8h3.8v.6h-4.5v-7.1h4.4v.6Z"></path>
          <path class="cls-1" d="M131.7,90.8h-3.8v2.6h3.2v.6h-3.2v2.8h3.8v.6h-4.5v-7.1h4.4v.6h0Z"></path>
          <path class="cls-1" d="M62.1,90.8h-3.8v2.6h3.2v.6h-3.2v2.8h3.8v.6h-4.5v-7.1h4.4v.6Z"></path>
        </g>
      </g>
    </g>
  </g>
</svg>
