<?xml version="1.0" encoding="UTF-8"?>
<svg xmlns="http://www.w3.org/2000/svg" xmlns:xlink="http://www.w3.org/1999/xlink" id="Laag_1" width="195" height="130" version="1.1" viewBox="0 0 195 130">
  <defs>
    <style>
      .st0, .st1 {
        fill: none;
      }

      .st2 {
        fill: #363636;
      }

      .st1 {
        stroke: #363636;
        stroke-width: .8px;
      }

      .st3 {
        clip-path: url(#clippath-1);
      }

      .st4 {
        clip-path: url(#clippath);
      }
    </style>
    <clipPath id="clippath">
      <rect class="st0" x="-2.2412" y="31.9087" width="201.4824" height="67.1628"></rect>
    </clipPath>
    <clipPath id="clippath-1">
      <rect class="st0" x="-2.2412" y="31.9087" width="201.4824" height="67.1628"></rect>
    </clipPath>
  </defs>
  <g class="st4">
    <path class="st2" d="M38.1429,50.9458c.7345-4.4246,2.6773-6.1719,5.2242-6.8176,1.2498-.3199,2.6773-.3199,4.1403-.3199h4.6615l-16.7863,28.3779v1.2439h22.6561l.3435-9.9035h-1.2083c-1.0366,5.8047-2.2863,8.7544-8.328,8.7544h-7.2085l16.7033-28.3364v-1.2913h-20.8436l-.6456,8.2924h1.2972-.0059ZM18.2885,72.2751h-4.2706v1.155h14.0675v-1.155h-4.2706v-14.0971c4.6615-.1362,6.1719.9655,6.5569,6.0831h1.2083v-12.8533h-1.2083c-.2132,4.9281-2.4167,5.6211-6.5569,5.6211v-13.2205h4.703c1.771,0,3.4947.1362,4.4424.5982,2.849,1.3801,3.4947,4.6082,4.0988,7.6468h1.1669l-.3021-9.4001H14.0179v1.1491h4.2706v28.4727Z"></path>
  </g>
  <line class="st1" x1="65.7745" y1="42.9199" x2="65.9107" y2="72.9029"></line>
  <g class="st3">
    <g>
      <path class="st2" d="M172.9897,73.1813h1.6822v-6.2134h.1422l5.7929,6.2134h2.4581l-6.4029-6.6873,6.0002-5.7395h-2.3515l-5.4908,5.3723h-.1422v-5.3723h-1.6822v12.4209l-.0059.0059ZM168.9324,69.0943c0,.3495-.0237.6989-.0711,1.0366s-.1422.6397-.2784.9062c-.1422.2606-.3376.4798-.5864.6397-.2488.1658-.5864.2429-1.0069.2429-.4679,0-.847-.1362-1.1432-.4028-.2902-.2665-.4857-.6397-.5805-1.1076l-1.6466.3672c.1658.9122.5449,1.5933,1.1491,2.0435.6042.4502,1.3446.6752,2.2212.6752.3495,0,.7345-.0533,1.1609-.1658.4205-.1125.8174-.308,1.1846-.5982.3672-.2843.6752-.6812.9181-1.1787.2488-.4975.3672-1.1372.3672-1.9191v-8.8788h-1.6822v8.3339l-.0059.0059ZM160.7051,73.1813h1.6822v-12.4209h-1.6822v12.4209ZM146.4006,73.1813h1.7888l2.9853-10.1405h.0355l3.003,10.1405h1.7888l3.6131-12.4209h-1.7533l-2.7483,9.9331h-.0355l-2.9201-9.9331h-1.9309l-2.9201,9.9331h-.0355l-2.7483-9.9331h-1.7533l3.6309,12.4209h0ZM134.1042,71.7775c.4205.5864.9892,1.0188,1.6999,1.2972s1.4689.4205,2.2627.4205c.5982,0,1.1609-.0888,1.6822-.2606.5272-.1777.9832-.4265,1.3682-.7522.385-.3258.693-.7286.9181-1.2083.231-.4798.3435-1.0188.3435-1.617,0-.7463-.154-1.3386-.4561-1.7651-.3021-.4265-.6812-.7641-1.1313-1.0188-.4502-.2488-.9418-.4502-1.4749-.5864-.5331-.1422-1.0247-.2962-1.4749-.4739-.4502-.1777-.8292-.4028-1.1313-.6871-.3021-.2784-.4561-.6812-.4561-1.2083,0-.1895.0355-.3909.1125-.616s.2073-.4324.3969-.6219c.1895-.1955.4383-.3495.7463-.4739.308-.1244.6989-.1836,1.1669-.1836.4916,0,.9299.1007,1.3149.2962.385.2014.6812.462.8944.7878l1.3682-1.2439c-.4679-.5745-1.0129-.9536-1.6289-1.1432-.6219-.1895-1.2676-.2784-1.9487-.2784-.7463,0-1.3919.1125-1.9191.3435-.5331.231-.9655.5094-1.309.8529-.3376.3376-.5864.7167-.7463,1.1254-.1599.4087-.2369.7937-.2369,1.1609,0,.8056.154,1.4453.4561,1.9191.3021.4739.6812.8529,1.1313,1.1313.4502.2784.9418.4975,1.4749.6575.5331.1599,1.0247.3199,1.4749.4916.4502.1718.8292.3791,1.1313.6338.3021.2547.4561.616.4561,1.0958,0,.3376-.077.6397-.2251.8944-.154.2606-.3495.4739-.5864.6515-.2369.1777-.5035.308-.7996.3969-.2902.0888-.5805.1303-.8589.1303-.5035,0-.9892-.1066-1.463-.3258-.4739-.2132-.8648-.5509-1.1669-1.0069l-1.386,1.1906v-.0059ZM121.6773,73.1813h1.6822v-10.2115h.0355l6.9123,10.2115h2.1383v-12.4209h-1.6822v10.2115h-.0355l-6.8413-10.2115h-2.2093v12.4209ZM112.064,68.6383l2.3515-5.704h.0355l2.316,5.704h-4.703ZM108.2732,73.1813h1.9665l1.2261-3.0682h5.9113l1.2439,3.0682h1.9665l-5.319-12.4209h-1.5282l-5.473,12.4209h.0059ZM100.2355,68.6383l2.3515-5.704h.0355l2.316,5.704h-4.703ZM96.4447,73.1813h1.9665l1.2261-3.0682h5.9113l1.2439,3.0682h1.9665l-5.319-12.4209h-1.5282l-5.473,12.4209h.0059ZM84.1422,73.1813h1.7888l2.9853-10.1405h.0355l3.003,10.1405h1.7888l3.6131-12.4209h-1.7533l-2.7483,9.9331h-.0355l-2.9201-9.9331h-1.9309l-2.9201,9.9331h-.0355l-2.7483-9.9331h-1.7533l3.6309,12.4209h0ZM71.1764,73.1813h9.2816v-1.5815h-7.1433l7.0367-9.2638v-1.5815h-8.9677v1.5815h6.859l-7.0723,9.2638v1.5815h.0059Z"></path>
      <path class="st2" d="M125.2194,43.7373h2.2093c.3258,0,.6516.0237.9714.077s.6101.1481.8589.2902.4502.3435.6042.6042.2251.6042.2251,1.0247-.077.7641-.2251,1.0247-.3554.4679-.6042.6042-.539.2369-.8589.2902-.6456.077-.9714.077h-2.2093v-3.9981.0059ZM123.5372,54.6892h1.6822v-5.473h1.8776l3.157,5.473h2.1086l-3.5302-5.6685c.4679-.0474.8944-.1718,1.2735-.3791.3791-.2073.6989-.4561.9655-.7522.2665-.2962.4679-.6338.6042-1.001.1422-.3672.2073-.7522.2073-1.1491s-.0592-.7878-.1777-1.2024-.3258-.7878-.6219-1.1254c-.2962-.3317-.7049-.6101-1.2202-.8233-.5153-.2192-1.1728-.3258-1.9665-.3258h-4.3713v12.4209l.0119.0059ZM113.3435,54.6892h8.3339v-1.5815h-6.6517v-3.9863h5.8935v-1.5815h-5.8935v-3.702h6.3378v-1.5815h-8.02v12.4327ZM104.5002,48.8963h2.4937c.8174,0,1.4689.1836,1.9487.5509s.7167.924.7167,1.6585c0,.4442-.0948.7996-.2784,1.0721-.1895.2665-.4146.4798-.6812.6397-.2725.1599-.5568.2606-.8707.3139-.308.0533-.5923.077-.8529.077h-2.4759v-4.318.0059ZM104.5002,43.7373h2.6477c.6752,0,1.1787.1836,1.4926.5449s.4739.7878.4739,1.2794c0,.3376-.0592.6279-.1836.8589-.1244.2369-.2902.4265-.5035.5805-.2073.154-.4561.2606-.7345.3258-.2784.0652-.5805.0948-.8944.0948h-2.2982v-3.6842ZM102.8121,54.6892h4.2647c.6101,0,1.1787-.077,1.6999-.2251.5272-.154.9892-.3732,1.386-.6693.3969-.2902.7108-.6515.9359-1.078.231-.4265.3435-.924.3435-1.4808,0-.4205-.0711-.8115-.2132-1.1787s-.3317-.6812-.5686-.9536c-.2429-.2725-.5212-.4975-.8529-.6634-.3258-.1718-.6812-.2665-1.0543-.2902v-.0355c.6338-.2132,1.1491-.539,1.5459-.9892s.5982-1.0306.5982-1.7473c0-.5272-.0948-.9832-.2902-1.3801-.1955-.3909-.4561-.7108-.7878-.9655s-.7345-.4442-1.1906-.5686c-.462-.1303-.9595-.1955-1.4986-.1955h-4.318v12.4209h0ZM94.3064,43.7373h2.2093c.3258,0,.6516.0237.9714.077s.6101.1481.8589.2902.4502.3435.6042.6042c.154.2606.2251.6042.2251,1.0247s-.077.7641-.2251,1.0247c-.154.2606-.3554.4679-.6042.6042-.2547.1422-.539.2369-.8589.2902s-.6456.077-.9714.077h-2.2093v-3.9981.0059ZM92.6183,54.6892h1.6822v-5.473h1.8776l3.157,5.473h2.1086l-3.5302-5.6685c.4679-.0474.8944-.1718,1.2735-.3791.3791-.2073.7049-.4561.9655-.7522s.462-.6338.6042-1.001.2132-.7522.2132-1.1491-.0592-.7878-.1777-1.2024-.3258-.7878-.6219-1.1254c-.2962-.3317-.7049-.6101-1.2202-.8233-.5153-.2192-1.1728-.3258-1.9665-.3258h-4.3713v12.4209l.0059.0059ZM83.005,50.1402l2.3515-5.704h.0355l2.316,5.704s-4.703,0-4.703,0ZM79.2142,54.6892h1.9665l1.2261-3.0682h5.9113l1.2439,3.0682h1.9665l-5.319-12.4209h-1.5282l-5.473,12.4209h.0059ZM72.213,54.6892h1.6822v-5.3664h5.704v-1.5815h-5.704v-3.8974h6.1246v-1.5815h-7.8067v12.4268Z"></path>
      <path class="st2" d="M174.9266,81.9595h.0355c.2132.2251,1.5282,1.7059,2.8194,2.9912,1.232,1.2202,2.7484,2.772,3.4947,3.4828.1303.1303.2725.2606.4028.2606.1066,0,.154-.1066.154-.3672l.1303-7.481c.0118-.6634.1066-.9122.4383-1.0069.1422-.0355.2369-.0355.3554-.0355.1422,0,.2132-.0355.2132-.1066,0-.0948-.1185-.1066-.2725-.1066-.5805,0-1.0306.0355-1.1609.0355-.2488,0-.8174-.0355-1.4334-.0355-.1777,0-.308.0118-.308.1066,0,.0711.0474.1066.1895.1066.1658,0,.4502,0,.6279.0711.2843.1185.3909.3435.4028,1.0662l.1185,5.3249h-.0592c-.2014-.1895-1.8006-1.8954-2.6062-2.701-1.7296-1.7177-3.5302-3.6487-3.6724-3.8027-.2014-.2132-.308-.3672-.4383-.3672-.1185,0-.154.1658-.154.4028l-.1066,7.019c-.0118,1.0306-.0592,1.3742-.3672,1.4689-.1658.0474-.3791.0592-.5331.0592-.1185,0-.1895.0237-.1895.0948,0,.1066.1066.1185.2606.1185.616,0,1.1728-.0355,1.2794-.0355.2251,0,.6989.0355,1.469.0355.1658,0,.2725-.0237.2725-.1185,0-.0711-.0711-.0948-.2014-.0948-.1895,0-.4146-.0118-.616-.0829-.2369-.0829-.3909-.3909-.4146-1.3149l-.1303-4.9814v-.0059ZM156.2449,85.1106c0,1.0899,0,2.0257-.0592,2.5233-.0474.3435-.1066.6042-.3435.6515-.1066.0237-.2488.0474-.4265.0474-.1422,0-.1895.0355-.1895.0948,0,.0829.0829.1185.2369.1185.2369,0,.5449-.0237.8174-.0237.2843-.0118.5449-.0118.6752-.0118.3554,0,.7226.0118,1.232.0355.5094.0118,1.1609.0355,2.0494.0355.4502,0,.5568,0,.6397-.308.0592-.2369.154-1.0425.154-1.3149,0-.1185,0-.2132-.0948-.2132-.0829,0-.1066.0474-.1303.1777-.0829.4857-.2251.7345-.5331.8766s-.8056.1422-1.1136.1422c-1.2083,0-1.3979-.1777-1.4216-.9951-.0118-.3435,0-1.4334,0-1.8362v-.9359c0-.0711.0118-.1185.0711-.1185.2843,0,1.4571.0118,1.6822.0355.4383.0474.6042.2251.6634.462.0355.154.0355.308.0474.4265,0,.0592.0237.1066.1066.1066.1066,0,.1066-.1303.1066-.2251,0-.0829.0355-.5568.0474-.7937.0474-.6042.0948-.7937.0948-.8648s-.0355-.0948-.0829-.0948c-.0592,0-.1066.0592-.1895.154-.1066.1185-.2843.154-.5686.1777-.2725.0237-1.6348.0237-1.8954.0237-.0711,0-.0829-.0474-.0829-.1303v-3.003c0-.0829.0237-.1185.0829-.1185.2369,0,1.4808.0237,1.6822.0474.5923.0711.7108.2132.7937.4265.0592.1422.0711.3435.0711.4265,0,.1066.0237.1658.1066.1658s.1066-.0711.1185-.1303c.0237-.1422.0474-.6634.0592-.7819.0355-.5449.0948-.6871.0948-.77,0-.0592-.0118-.1066-.0711-.1066s-.1303.0355-.1895.0474c-.0948.0237-.2843.0474-.5094.0711-.2251.0118-2.5825.0118-2.9675.0118-.1658,0-.4383-.0118-.7463-.0237-.2962,0-.6397-.0118-.9595-.0118-.1777,0-.2606.0237-.2606.1066s.0711.1066.2014.1066c.1658,0,.3672.0118.462.0355.3909.0829.4857.2725.5094.6752.0237.3791.0237.7108.0237,2.5114v2.085l.0059.0059ZM138.7479,85.1106c0,1.0899,0,2.0257-.0592,2.5233-.0355.3435-.1066.6042-.3435.6515-.1066.0237-.2488.0474-.4265.0474-.1422,0-.1895.0355-.1895.0948,0,.0829.0829.1185.2369.1185.4739,0,1.2202-.0355,1.4926-.0355.3317,0,1.078.0355,1.8599.0355.1303,0,.2251-.0355.2251-.1185,0-.0592-.0592-.0948-.1895-.0948-.1777,0-.4383-.0237-.6042-.0474-.3554-.0474-.4265-.308-.462-.6397-.0592-.5094-.0592-1.4453-.0592-2.5351v-4.8629l1.4926.0355c1.0543.0237,1.3742.3554,1.3979.6634l.0118.1303c.0118.1777.0355.2369.1303.2369.0711,0,.0948-.0711.1066-.1895,0-.308.0355-1.1254.0355-1.3742,0-.1777-.0118-.2488-.0948-.2488-.0474,0-.1422.0237-.3198.0592-.1777.0237-.4383.0592-.8174.0592h-4.6971c-.3909,0-.8411-.0237-1.1846-.0592-.2962-.0237-.4146-.1422-.5094-.1422-.0711,0-.1066.0711-.1422.2251-.0237.0948-.2488,1.1728-.2488,1.3623,0,.1303.0237.1895.1066.1895.0711,0,.1066-.0474.1303-.1422.0237-.0948.0829-.2369.2014-.4146.1777-.2606.462-.3199,1.1491-.3435l1.7651-.0474v4.8629h.0059ZM119.699,84.8618c-.0474,0-.0592-.0355-.0474-.0829l1.0899-2.9201c.0118-.0474.0355-.1066.0711-.1066s.0474.0592.0592.1066l1.0662,2.926c.0118.0355,0,.0711-.0592.0711h-2.1797v.0059ZM122.1038,85.4541c.0592,0,.0948.0237.1185.0829l.9477,2.5173c.0592.1422-.0237.2488-.1066.2725-.1185.0118-.1658.0355-.1658.1066,0,.0829.1422.0829.3554.0948.9477.0237,1.8125.0237,2.239.0237s.5449-.0237.5449-.1185c0-.0829-.0592-.0948-.154-.0948-.1422,0-.3198-.0118-.4975-.0474-.2488-.0711-.5923-.2369-1.0425-1.2972-.7582-1.7947-2.6536-6.6339-2.9379-7.2855-.1185-.2725-.1895-.3791-.2962-.3791-.1185,0-.1895.1303-.3317.4739l-2.9734,7.4454c-.2369.5923-.462.9951-1.0069,1.0662-.0948.0118-.2606.0237-.3672.0237-.0948,0-.1422.0237-.1422.0948,0,.0948.0711.1185.2251.1185.616,0,1.2676-.0355,1.3979-.0355.3672,0,.8766.0355,1.2557.0355.1303,0,.2014-.0237.2014-.1185,0-.0711-.0355-.0948-.1777-.0948h-.1777c-.3672,0-.4739-.154-.4739-.3672,0-.1422.0592-.4265.1777-.7226l.6397-1.694c.0237-.0711.0474-.0948.1066-.0948h2.6417v-.0059ZM102.7351,88.7119c.7582,0,1.6585-.0829,2.1323-.2725.2014-.0829.2488-.1422.308-.3435.1185-.4028.2606-1.4334.2606-1.5756,0-.0948-.0237-.1777-.1066-.1777-.0948,0-.1185.0474-.154.2369-.0474.2132-.2014.5568-.4028.7819-.4739.5449-1.1136.6634-2.1679.6634-1.5874,0-3.7375-1.3979-3.7375-4.2232,0-1.1491.2251-2.2745,1.0899-3.0741.5212-.4739,1.1965-.7345,2.2271-.7345,1.0899,0,2.0139.3199,2.4048.7345.2962.308.4502.7226.462,1.0899,0,.1658.0237.2606.1185.2606.1066,0,.1303-.0948.1422-.2725.0237-.2369.0118-.8885.0355-1.2794.0237-.4146.0592-.5568.0592-.6515,0-.0711-.0474-.1303-.1777-.1422-.3554-.0355-.7345-.1422-1.1846-.2014-.5449-.0711-.9832-.1185-1.7177-.1185-1.7651,0-2.8905.4739-3.7494,1.2557-1.1372,1.0425-1.386,2.4403-1.386,3.2518,0,1.1491.308,2.4759,1.4689,3.5006,1.078.9359,2.4403,1.2913,4.0692,1.2913M80.8312,88.1255c-2.2804,0-3.6427-1.9546-3.6427-4.4246,0-2.9557,1.5519-3.7138,2.9201-3.7138,1.9428,0,3.4769,1.6466,3.4769,4.3061,0,3.4295-1.9191,3.8323-2.7543,3.8323M80.3336,88.7119c3.0149,0,4.9103-2.1442,4.9103-4.8629s-1.8362-4.4364-4.7918-4.4364c-3.5598,0-4.8985,2.618-4.8985,4.6438s1.3742,4.6497,4.78,4.6497M59.5078,87.9892c.2251.5568.2962.7226.4502.7226.1658,0,.2369-.1895.5449-.8766.2606-.5923.8174-1.8836,1.5756-3.6131.6397-1.4571.9596-2.0968,1.4216-3.2104.3199-.7582.4975-.9596.6515-1.0662.2132-.1422.462-.1422.5805-.1422s.1895-.0237.1895-.1066-.0948-.1066-.2488-.1066c-.3554,0-.9122.0355-1.1136.0355-.154,0-.6515-.0355-1.2439-.0355-.2251,0-.3317.0237-.3317.1185,0,.0829.0948.0948.2014.0948.154,0,.3317.0118.4739.0592.1066.0355.154.1303.154.2251,0,.1066-.0474.2843-.1066.4383-.2843.7819-1.8243,4.6023-2.3337,5.9054h-.0474l-2.0376-5.3842c-.1658-.4265-.2725-.7582-.2725-.9122,0-.1066.0355-.1895.1185-.2488.0948-.0711.2725-.0829.462-.0829.1066,0,.1777-.0237.1777-.1066s-.1303-.1066-.2725-.1066c-.5923,0-1.1609.0355-1.4571.0355-.4146,0-1.0899-.0355-1.7177-.0355-.1777,0-.308.0118-.308.1066,0,.0711.0355.1066.1422.1066.0948,0,.2843,0,.462.0474.4265.1185.6279.2488.9003.9003l2.9853,7.244v-.0059ZM37.3374,82.8361c0-.9359,0-1.9665.0118-2.3693,0-.1303.0355-.1895.1422-.2369.0948-.0474.5331-.0829.77-.0829.924,0,2.2804.1422,3.3703,1.1846.5094.4857,1.1372,1.4571,1.1372,2.9675,0,1.2202-.2369,2.2982-.9951,2.9557-.7108.616-1.5163.8529-2.7247.8529-.9359,0-1.3979-.2488-1.5519-.4739-.0948-.1303-.1185-.6042-.1303-.9003-.0118-.2251-.0237-1.1372-.0237-2.393v-1.4926l-.0059-.0118ZM35.8566,85.1106c0,1.0899,0,2.0257-.0592,2.5233-.0474.3435-.1066.6042-.3435.6515-.1066.0237-.2488.0474-.4265.0474-.1422,0-.1895.0355-.1895.0948,0,.0829.0829.1185.2369.1185.2369,0,.5449-.0237.8174-.0237.2843-.0118.5449-.0118.6752-.0118.2962,0,.7108.0355,1.1609.0711.4502.0355.9359.0711,1.3623.0711,2.1916,0,3.4295-.8411,3.9744-1.3979.6634-.6752,1.2913-1.8125,1.2913-3.3111,0-1.4097-.5568-2.393-1.1491-3.0149-1.2913-1.3505-3.2755-1.3505-4.7563-1.3505-.7108,0-1.4571.0355-1.8243.0355-.3317,0-1.078-.0355-1.7059-.0355-.1777,0-.2606.0237-.2606.1066s.0711.1066.2014.1066c.1658,0,.3672.0118.462.0355.3909.0829.4857.2725.5094.6752.0237.3791.0237.7108.0237,2.5114v2.0968ZM17.6132,84.8618c-.0474,0-.0592-.0355-.0474-.0829l1.0899-2.9201c.0118-.0474.0355-.1066.0711-.1066s.0474.0592.0592.1066l1.0662,2.926c.0118.0355,0,.0711-.0592.0711h-2.1797v.0059ZM20.0181,85.4541c.0592,0,.0948.0237.1185.0829l.9477,2.5173c.0592.1422-.0237.2488-.1066.2725-.1185.0118-.1658.0355-.1658.1066,0,.0829.1422.0829.3554.0948.9477.0237,1.8125.0237,2.239.0237s.5449-.0237.5449-.1185c0-.0829-.0592-.0948-.154-.0948-.1422,0-.3199-.0118-.4975-.0474-.2488-.0711-.5923-.2369-1.0425-1.2972-.7582-1.7947-2.6536-6.6339-2.9379-7.2855-.1185-.2725-.1895-.3791-.2962-.3791-.1185,0-.1895.1303-.3317.4739l-2.9734,7.4454c-.2369.5923-.462.9951-1.0069,1.0662-.0948.0118-.2606.0237-.3672.0237-.0948,0-.1422.0237-.1422.0948,0,.0948.0711.1185.2251.1185.616,0,1.2676-.0355,1.3979-.0355.3672,0,.8766.0355,1.2557.0355.1303,0,.2014-.0237.2014-.1185,0-.0711-.0355-.0948-.1777-.0948h-.1777c-.3672,0-.4739-.154-.4739-.3672,0-.1422.0592-.4265.1777-.7226l.6397-1.694c.0237-.0711.0474-.0948.1066-.0948h2.6417v-.0059Z"></path>
    </g>
  </g>
</svg>
