<?xml version="1.0" encoding="UTF-8"?>
<svg xmlns="http://www.w3.org/2000/svg" version="1.1" viewBox="0 0 195 130">
  <defs>
    <style>
      .cls-1 {
        fill: #010101;
      }
    </style>
  </defs>
  <g>
    <g id="Laag_1">
      <g id="Laag_1-2" data-name="Laag_1">
        <g>
          <path id="uuid-77d75509-0310-4120-8802-e3cfaecfa7e7" class="cls-1" d="M65.5,106.1h0l-9.7-16.9h5.8l3.9,7.3,3.9-7.3h5.8l-9.7,16.9h0ZM154.3,106.1c-2.2,0-4.3-.9-5.9-2.3-1.6-1.6-2.6-3.9-2.6-6.2s.9-4.6,2.3-6.1c1.6-1.6,3.8-2.4,6.2-2.4s4.1.7,5.6,2.1c1.6,1.5,2.4,3.5,2.4,6s0,1,0,1.5h-11.7c.2,1.6,1.4,3.1,3.6,3.1s2.9-.7,3.5-2.1l4,2.7c-1.6,2.5-4.4,4-7.5,4h0ZM154.1,92.9c-1.4,0-3,.7-3.5,2.5h6.8c-.3-1.6-1.5-2.5-3.4-2.5h0ZM120.5,106.1c-2.2,0-4.4-1-5.9-2.6-1.4-1.6-2.2-3.7-2.2-6s.8-4.4,2.2-6c1.5-1.6,3.6-2.6,5.9-2.6s2.6.4,3.6,1.3v-1h5v16.7h-5v-1c-1,.8-2.2,1.2-3.6,1.2h0ZM121.3,93.5c-2.2,0-3.8,1.6-3.8,4s1.6,4,3.8,4,2.1-.4,2.9-1.4v-5.2c-.7-.9-1.7-1.5-2.9-1.4h0ZM103.6,106.1c-4.8,0-8.6-3.9-8.6-8.6s3.9-8.6,8.6-8.6,5.7,1.5,7.3,3.9l-4,2.9c-.7-1.3-1.9-2.1-3.3-2.1-2.1,0-3.6,1.6-3.6,3.9s1.6,3.9,3.6,3.9,2.6-.8,3.3-2.1l4,2.9c-1.6,2.5-4.3,4-7.3,3.9h0ZM84.3,106.1c-4.8,0-8.6-3.9-8.6-8.6s3.9-8.6,8.6-8.6,8.6,3.9,8.6,8.6-3.9,8.6-8.6,8.6h0ZM84.3,93.6c-2.1,0-3.6,1.6-3.6,3.9s1.6,3.9,3.6,3.9,3.6-1.6,3.6-3.9-1.6-3.9-3.6-3.9h0ZM45.6,106.1c-2.2,0-4.4-1-5.9-2.6-1.4-1.6-2.2-3.7-2.2-6s.8-4.4,2.2-6c1.5-1.6,3.6-2.6,5.9-2.6s2.6.4,3.6,1.3v-8h5v23.6h-5v-1c-1,.8-2.2,1.2-3.6,1.2h0ZM46.5,93.5c-2.2,0-3.8,1.6-3.8,4s1.6,4,3.8,4,2.1-.4,2.9-1.4v-5.2c-.7-.9-1.7-1.5-2.9-1.4h0ZM170.4,105.8h-5v-16.7h5v1c1-.9,2.3-1.3,3.8-1.3,2.2,0,4.1.8,5.4,2.2,1.2,1.3,1.9,3.2,1.9,5.5v9.3h-5v-8.4c0-2.5-1.1-3.9-3-3.9s-2.2.6-3,1.5v10.9h0ZM19.1,105.8h-5.6l11.7-23.9,11.7,23.9h-5.6l-1.7-3.6h-8.7l-1.7,3.6h0ZM25.2,92.9l-2.2,4.9h4.5l-2.2-4.9h0ZM143.7,105.8h-4.6c-3.1,0-5.1-2-5.1-5.1v-7.1h-2.2l-1.1-4.4h3.3v-2.5l5-2.5v5h5.3l-1.1,4.4h-4.1v5.7c0,1.4.5,2,1.9,2h2.8v4.6h0ZM102.4,72.5h-5v-23.6h5v14.6l5.4-7.6h5.8l-5.6,7.9,6.5,8.7h-6l-6.1-8.3v8.3h0ZM56,72.5h-5v-16.7h5v1c1-.9,2.3-1.3,3.8-1.3,4.5,0,7.3,2.9,7.3,7.6v9.3h-5v-8.4c0-2.5-1.1-3.9-3-3.9s-2.2.6-3,1.5v10.9h0ZM47,72.5h-5v-16.7h5v16.7h0ZM38.1,72.5h-5v-23.6h5v23.6h0ZM21.4,72.5h-5.3v-23.6h14v5.3h-8.6v4h6.7v5.1h-6.7v9.3h0ZM46.9,53.5h-4.7c-.4-.5-.7-1.2-.7-1.9,0-1.6,1.4-3,3-3s3,1.3,3,3-.3,1.4-.7,1.9h0Z"></path>
          <path id="uuid-f6676e4b-096c-41ce-bb58-31ce62c4a03c" class="cls-1" d="M69.9,23.9v55.4h25.1V23.9h-25.1ZM82.9,67.9c1.5,0,2.6-.9,3.3-2.1l4,2.9c-1.6,2.4-4.3,3.9-7.3,3.9-4.8,0-8.6-3.8-8.6-8.5,0-4.8,3.8-8.6,8.5-8.6h0c2.9,0,5.7,1.5,7.3,3.9l-4,2.9c-.7-1.2-1.8-2.1-3.3-2.1s-3.5,1.6-3.5,3.9,1.6,3.9,3.5,3.9h0Z"></path>
        </g>
      </g>
    </g>
  </g>
</svg>
