<?xml version="1.0" encoding="UTF-8"?>
<svg xmlns="http://www.w3.org/2000/svg" version="1.1" viewBox="0 0 195 130">
  <g>
    <g id="Laag_1">
      <g>
        <path d="M13.2,43.9h12.1c7.1,0,11.7,3.7,11.7,9.9h0c0,6.7-5.1,10.2-12.1,10.2h-3.9v8.1h-7.8v-28.2ZM24.7,58c2.8,0,4.5-1.5,4.5-3.7h0c0-2.5-1.7-3.8-4.5-3.8h-3.7v7.4h3.7Z"></path>
        <g>
          <path d="M46.6,43.8h7.5l12,28.4h-8.4l-2-5h-10.9l-2,5h-8.2l12-28.4ZM53.5,61l-3.1-8-3.2,8h6.3Z"></path>
          <path d="M68.3,43.9h8.3l6.7,10.9,6.7-10.9h8.3v28.2h-7.8v-16.2l-7.2,11.1h-.2l-7.2-11v16.1h-7.7v-28.2h0Z"></path>
          <path d="M102.7,43.9h12.1c7.1,0,11.7,3.7,11.7,9.9h0c0,6.7-5.1,10.2-12.1,10.2h-3.9v8.1h-7.8v-28.2h0ZM114.3,58c2.8,0,4.5-1.5,4.5-3.7h0c0-2.5-1.7-3.8-4.5-3.8h-3.7v7.4h3.7Z"></path>
          <path d="M129,59.8v-15.8h8v15.7c0,4.1,2,6,5.2,6s5.2-1.8,5.2-5.8v-15.9h7.9v15.6c0,9.1-5.2,13.1-13.2,13.1s-13.1-4.1-13.1-12.9Z"></path>
          <path d="M157.2,68l4.4-5.2c2.8,2.2,5.9,3.4,9.2,3.4s3.2-.7,3.2-1.9h0c0-1.3-.9-1.9-4.8-2.8-6-1.4-10.6-3.1-10.6-8.9h0c0-5.3,4.1-9.1,10.9-9.1s8.5,1.3,11.6,3.8l-3.9,5.5c-2.6-1.8-5.4-2.8-7.9-2.8s-2.8.8-2.8,1.8h0c0,1.4,1,1.9,4.9,2.8,6.5,1.4,10.5,3.5,10.5,8.8h0c0,5.9-4.6,9.3-11.4,9.3s-9.7-1.6-13.2-4.7Z"></path>
        </g>
        <g>
          <path d="M53.1,79.4v7.1h-.8v-7.1h.8Z"></path>
          <path d="M59.3,84.5h0l-2.6-3.8v5.7h-.8v-7.1h.8l2.6,3.9,2.6-3.9h.8v7.1h-.8v-5.7l-2.6,3.8Z"></path>
          <path d="M70.4,82.6c-.1.3-.3.5-.6.7-.3.2-.6.3-.9.4-.3,0-.7.1-1.1.1h-1.7v2.5h-.8v-7.1h2.6c.4,0,.8,0,1.1.2.3.1.6.3.8.4s.4.4.5.7.2.6.2,1c0,.4,0,.7-.2,1ZM69.4,80.5c-.3-.3-.8-.4-1.4-.4h-1.8v3.1h1.7c.3,0,.6,0,.8-.1.3,0,.4-.2.6-.3s.3-.3.4-.5c0-.2.1-.4.1-.6,0-.5-.2-.9-.5-1.1Z"></path>
          <path d="M78.7,86.4h-.9l-.8-1.9h-3.8l-.8,1.9h-.8l3.2-7.1h.8l3.2,7.1ZM75.1,80.3l-1.6,3.6h3.2l-1.6-3.6Z"></path>
          <path d="M85.9,85.8c-.2.1-.4.3-.6.4s-.5.2-.7.3-.6,0-.9,0c-.5,0-1,0-1.4-.3s-.8-.4-1.1-.8-.6-.7-.7-1.1-.3-.9-.3-1.4,0-1,.3-1.4c.2-.4.4-.8.7-1.2s.7-.6,1.1-.8c.4-.2.9-.3,1.4-.3s.6,0,.9,0,.5.1.7.2c.2,0,.4.2.6.4s.4.3.5.4l-.5.6c-.3-.3-.6-.5-1-.7-.3-.2-.8-.3-1.2-.3s-.8,0-1.1.2-.6.4-.9.6c-.3.3-.4.6-.6.9s-.2.7-.2,1.1,0,.8.2,1.1.3.7.6.9.5.5.9.6.7.2,1.1.2.9,0,1.3-.3c.3-.2.7-.4,1-.8l.5.5c-.3.3-.4.4-.6.6Z"></path>
          <path d="M91.2,86.4h-.8v-6.3h-2.4v-.7h5.5v.7h-2.4v6.3Z"></path>
          <path d="M100.9,80.1h-4.3v2.4h3.9v.7h-3.9v2.5h4.4v.7h-5.2v-7.1h5.1v.7h0Z"></path>
          <path d="M104.1,79.4v7.1h-.8v-7.1h.8Z"></path>
          <path d="M106.9,79.4h.8v6.3h4v.7h-4.8v-7.1Z"></path>
          <path d="M120.4,86.4h-.9l-.8-1.9h-3.8l-.8,1.9h-.8l3.2-7.1h.8l3.2,7.1ZM116.8,80.3l-1.6,3.6h3.2l-1.6-3.6Z"></path>
          <path d="M127.7,79.4h.8v7.1h-.6l-4.6-5.8v5.8h-.8v-7.1h.8l4.5,5.7v-5.7h0Z"></path>
          <path d="M137.1,84.3c-.2.4-.4.8-.8,1.1-.3.3-.7.6-1.2.8-.4.2-1,.3-1.5.3h-2.4v-7.1h2.5c.6,0,1.1,0,1.5.3.4.2.9.4,1.2.7.3.3.6.7.8,1.1.2.4.3.9.3,1.4s-.1,1-.3,1.4ZM136.3,81.8c-.1-.3-.3-.6-.6-.9s-.6-.4-.9-.6-.8-.2-1.2-.2h-1.7v5.6h1.7c.4,0,.8,0,1.2-.2s.7-.3.9-.6c.3-.3.4-.6.6-.9s.2-.7.2-1.1c0-.4,0-.8-.2-1.1Z"></path>
          <path d="M146.3,84.3c-.2.4-.4.8-.8,1.2s-.7.6-1.2.8-.9.3-1.4.3-1,0-1.4-.3-.8-.4-1.1-.8c-.3-.3-.6-.7-.8-1.1-.2-.4-.3-.9-.3-1.4s0-1,.3-1.4c.2-.4.4-.8.8-1.2s.7-.6,1.2-.8.9-.3,1.4-.3,1,0,1.4.3.8.4,1.1.8c.3.3.6.7.8,1.1.2.4.3.9.3,1.4s-.1,1-.3,1.4ZM146,81.6c-.2-.4-.4-.8-.7-1.1s-.6-.5-1-.7c-.4-.2-.8-.3-1.3-.3s-.9,0-1.3.3c-.4.2-.8.4-1.1.7s-.5.6-.7,1.1-.3.8-.3,1.3,0,.9.3,1.3c.2.4.4.8.7,1.1s.6.5,1,.7c.4.2.8.3,1.3.3s.9,0,1.3-.3c.4-.2.8-.4,1.1-.7s.5-.6.7-1.1.3-.8.3-1.3,0-.9-.3-1.3ZM144.3,82.8c-.2.2-.4.3-.7.4l1.1,1.5h-.7l-1.1-1.4h-1v1.4h-.6v-3.8h1.7c.4,0,.8.1,1,.3.3.2.4.5.4.8,0,.3,0,.5-.3.7ZM143.8,81.6c-.1-.1-.4-.2-.6-.2h-1.1v1.3h1.1c.3,0,.5,0,.6-.2.2-.1.3-.3.3-.5s0-.4-.2-.5Z"></path>
        </g>
      </g>
    </g>
  </g>
</svg>
