<?xml version="1.0" encoding="UTF-8"?>
<svg xmlns="http://www.w3.org/2000/svg" version="1.1" viewBox="0 0 195 130">
  <defs>
    <style>
      .cls-1 {
        isolation: isolate;
      }

      .cls-2 {
        fill-rule: evenodd;
      }

      .cls-2, .cls-3 {
        fill: #010101;
      }

      .cls-4 {
        display: none;
      }
    </style>
  </defs>
  <g>
    <g id="Laag_1">
      <g class="cls-4">
        <path id="uuid-77d75509-0310-4120-8802-e3cfaecfa7e7" class="cls-3" d="M60.1,112.5h0l-11.2-19.6h6.7l4.5,8.4,4.5-8.4h6.7l-11.2,19.6h0ZM162.9,112.5c-2.5,0-5-1-6.8-2.7-1.9-1.9-3-4.5-3-7.2,0-2.8,1-5.3,2.7-7.1,1.8-1.8,4.4-2.8,7.2-2.8s4.8.8,6.5,2.4c1.8,1.7,2.8,4.1,2.8,6.9s0,1.1-.1,1.7h-13.5c.2,1.8,1.6,3.6,4.2,3.6s3.3-.8,4.1-2.4l4.6,3.1c-1.9,2.9-5.1,4.6-8.7,4.6h0s0,0,0,0ZM162.6,97.3c-1.6,0-3.5.8-4,2.9h7.9c-.3-1.8-1.7-2.9-3.9-2.9h0ZM123.7,112.5c-2.6,0-5.1-1.1-6.8-3-1.6-1.8-2.5-4.3-2.5-6.9s.9-5.1,2.5-6.9c1.7-1.9,4.2-3,6.8-3,1.5,0,3,.5,4.2,1.5v-1.2h5.8v19.3h-5.8v-1.1c-1.1.9-2.6,1.4-4.2,1.4h0s0,0,0,0ZM124.7,98c-2.6,0-4.4,1.9-4.4,4.6s1.8,4.6,4.4,4.6,2.4-.5,3.3-1.6v-6c-.8-1-2-1.7-3.3-1.6h0ZM104.2,112.5c-5.5,0-10-4.5-10-9.9s4.5-9.9,10-9.9c3.4,0,6.6,1.7,8.4,4.5l-4.6,3.3c-.8-1.5-2.2-2.4-3.8-2.4-2.4,0-4.2,1.9-4.2,4.5s1.8,4.5,4.2,4.5,3-.9,3.8-2.4l4.6,3.3c-1.9,2.9-5,4.6-8.4,4.5h0ZM81.9,112.5c-5.5,0-10-4.5-10-9.9s4.5-9.9,10-9.9,10,4.5,10,9.9-4.5,9.9-10,9.9h0ZM81.9,98.1c-2.4,0-4.2,1.9-4.2,4.5s1.8,4.5,4.2,4.5,4.2-1.9,4.2-4.5-1.8-4.5-4.2-4.5h0ZM37.1,112.5c-2.6,0-5.1-1.1-6.8-3-1.6-1.8-2.5-4.3-2.5-6.9s.9-5.1,2.5-6.9c1.7-1.9,4.2-3,6.8-3,1.5,0,3,.5,4.2,1.5v-9.2h5.8v27.3h-5.8v-1.1c-1.1.9-2.6,1.4-4.2,1.4h0ZM38.1,98c-2.6,0-4.4,1.9-4.4,4.6s1.8,4.6,4.4,4.6,2.4-.5,3.3-1.6v-6c-.8-1-2-1.7-3.3-1.6h0ZM181.5,112.2h-5.8v-19.3h5.8v1.2c1.2-1,2.7-1.5,4.4-1.5,2.6,0,4.8.9,6.2,2.5,1.4,1.5,2.2,3.7,2.2,6.4v10.7h-5.8v-9.7c0-2.9-1.3-4.5-3.5-4.5s-2.6.7-3.5,1.7v12.6h0ZM6.5,112.2H0l13.5-27.7,13.5,27.7h-6.5l-2-4.2h-10.1l-2,4.2h0ZM13.5,97.3l-2.6,5.7h5.2l-2.6-5.7h0ZM150.6,112.2h-5.3c-3.6,0-5.9-2.3-5.9-5.9v-8.2h-2.5l-1.3-5.1h3.8v-2.9l5.8-2.9v5.8h6.1l-1.3,5.1h-4.8v6.6c0,1.6.6,2.3,2.2,2.3h3.2v5.3h0ZM102.8,73.7h-5.8v-27.3h5.8v16.9l6.3-8.8h6.7l-6.5,9.1,7.5,10.1h-6.9l-7.1-9.6v9.6h0ZM49.1,73.7h-5.8v-19.3h5.8v1.2c1.2-1,2.7-1.5,4.4-1.5,5.2,0,8.4,3.4,8.4,8.8v10.7h-5.8v-9.7c0-2.9-1.3-4.5-3.5-4.5s-2.6.7-3.5,1.7v12.6h0ZM38.7,73.7h-5.8v-19.3h5.8v19.3h0ZM28.4,73.7h-5.8v-27.3h5.8v27.3h0ZM9.1,73.7H3v-27.3h16.2v6.1h-10v4.6h7.7v5.9h-7.7v10.7h0ZM38.6,51.7h-5.4c-.5-.6-.8-1.4-.8-2.2,0-1.9,1.6-3.5,3.5-3.5s3.5,1.5,3.5,3.5c0,.8-.3,1.6-.8,2.2h0Z"></path>
        <path id="uuid-f6676e4b-096c-41ce-bb58-31ce62c4a03c" class="cls-3" d="M65.2,17.4v64.1h29V17.4h-29ZM80.3,68.3c1.7,0,3-1,3.8-2.4l4.6,3.3c-1.9,2.8-5,4.5-8.4,4.5-5.5,0-9.9-4.4-10-9.8,0-5.5,4.4-9.9,9.8-10h.1c3.4,0,6.6,1.7,8.4,4.5l-4.6,3.3c-.8-1.4-2.1-2.4-3.8-2.4s-4.1,1.8-4.1,4.5,1.8,4.5,4.1,4.5h0s0,0,0,0Z"></path>
      </g>
      <g>
        <g id="uuid-61fcd8af-5af3-4bb9-82bd-508b0886d337">
          <g id="uuid-b0261f43-e536-4ae5-8568-a22a1d7cd6f7">
            <path id="uuid-06125c99-95e0-4bc9-ad1a-1cba7f234c29" class="cls-2" d="M122.8,46.1l17,21.8v-21.8h9.5v35h-10.8l-13.2-17v17h-9.5v-35h7ZM50,46.1l9.8,26.4,9.5-26.4h9.8l-12.9,35h-13l-13.1-35h9.9ZM97.5,46.1l13.1,35h-9.6l-1.6-4.3h-12.5l-1.5,4.3h-9.7l12.9-35h8.9ZM11.8,36v15.6h14.5v-15.6h9.5v40.5h-9.5v-16h-14.5v16H2.3v-40.5h9.5ZM177.8,36l15.1,40.5h-9.8l-1.9-5.2h-15.6l-1.8,5.2h-9.8l14.9-40.5h8.9ZM93,57.6l-3.9,11.1h7.8s-3.9-11.1-3.9-11.1ZM173.3,50l-4.8,13.1h9.6l-4.9-13.1Z"></path>
          </g>
        </g>
        <g class="cls-1">
          <g class="cls-1">
            <path class="cls-3" d="M5,89.8v4.2l-2.6-3v3h-.5v-4.2l2.6,3v-3h.5Z"></path>
            <path class="cls-3" d="M10.5,93.9v-4.2h.5v4.2h-.5Z"></path>
            <path class="cls-3" d="M16.9,90.2v1.4h1.7v.5h-1.7v1.4h2v.5h-2.5v-4.2h2.5v.5h-2Z"></path>
            <path class="cls-3" d="M27,89.8v2.7c0,.8-.6,1.4-1.4,1.4s-1.4-.6-1.4-1.4v-2.7h.5v2.7c0,.5.4.9.9.9s.9-.4.9-.9v-2.7h.5Z"></path>
            <path class="cls-3" d="M35.9,89.8l-1.6,4.3-1-2.9-1,2.9-1.6-4.3h.5l1.1,2.9,1.1-3,1,3,1.1-2.9h.5,0Z"></path>
            <path class="cls-3" d="M41.8,92.8h0c0,.6-.5,1.1-1.1,1.1h-.2c-.5,0-1-.4-1.1-.9h.5c0,.2.3.4.6.4h.2c.3,0,.6-.3.6-.6h0c0-.3-.2-.5-.4-.6l-.8-.3c-.5-.2-.8-.7-.7-1.2s.5-.9,1.1-.9h.2c.4,0,.8.2,1,.6l-.4.2c-.1-.2-.3-.3-.6-.3h-.2c-.3,0-.6.2-.6.5,0,.3.1.6.4.7l.8.3c.4.2.7.6.7,1h0Z"></path>
            <path class="cls-3" d="M50.6,90.2v1.4h1.7v.5h-1.7v1.4h2v.5h-2.5v-4.2h2.5v.5h-2Z"></path>
            <path class="cls-3" d="M59.4,89.8v4.2l-2.6-3v3h-.5v-4.2l2.6,3v-3h.5Z"></path>
            <path class="cls-3" d="M71.9,91.8c0,1.1-.9,2.1-2.1,2.1s-2.1-.9-2.1-2.1.9-2.1,2.1-2.1,2.1.9,2.1,2.1ZM69.8,93.5c.9,0,1.6-.7,1.6-1.6s-.7-1.6-1.6-1.6-1.6.7-1.6,1.6.7,1.6,1.6,1.6h0Z"></path>
            <path class="cls-3" d="M77.3,89.8c.4,0,.8.2,1,.6s.2.8,0,1.2-.6.6-1,.6h-1.1v1.8h-.5v-4.2h1.6ZM77.9,91.2c.1-.2.1-.5,0-.7-.1-.2-.4-.3-.6-.3h-1.1v1.4h1.1c.3,0,.5-.1.6-.3h0Z"></path>
            <path class="cls-3" d="M82.2,93.9v-4.2h.5v4.2h-.5Z"></path>
            <path class="cls-3" d="M89.7,89.8v4.2l-2.6-3v3h-.5v-4.2l2.6,3v-3h.5Z"></path>
            <path class="cls-3" d="M93.7,93.9v-4.2h.5v4.2h-.5Z"></path>
            <path class="cls-3" d="M98.6,90.2v1.4h1.7v.5h-1.7v1.4h2v.5h-2.5v-4.2h2.5v.5h-2Z"></path>
            <path class="cls-3" d="M111.4,91.8c0,1.1-.9,2.1-2.1,2.1s-2.1-.9-2.1-2.1.9-2.1,2.1-2.1,2.1.9,2.1,2.1ZM109.3,93.5c.9,0,1.6-.7,1.6-1.6s-.7-1.6-1.6-1.6-1.6.7-1.6,1.6.7,1.6,1.6,1.6h0Z"></path>
            <path class="cls-3" d="M118.1,89.8l-1.6,4.2-1.6-4.2h.5l1.1,2.9,1.1-2.9h.5Z"></path>
            <path class="cls-3" d="M122.1,90.2v1.4h1.7v.5h-1.7v1.4h2v.5h-2.5v-4.2h2.5v.5h-2Z"></path>
            <path class="cls-3" d="M130.9,93.9h-.6l-1.3-1.8h-.7v1.8h-.5v-4.2h1.6c.6,0,1.1.5,1.1,1.1,0,.6-.4,1.1-1.1,1.2l1.3,1.8h0ZM129.5,91.6c.3,0,.5-.1.6-.3s.1-.5,0-.7c-.1-.2-.4-.3-.6-.3h-1.1v1.4h1.1Z"></path>
            <path class="cls-3" d="M138.8,89.8c1.1,0,2.1.9,2.1,2.1s-.9,2.1-2.1,2.1h-1.1v-4.2h1.1ZM138.8,93.5c.9,0,1.6-.7,1.6-1.6s-.7-1.6-1.6-1.6h-.7v3.2h.7Z"></path>
            <path class="cls-3" d="M145.1,90.2v1.4h1.7v.5h-1.7v1.4h2v.5h-2.5v-4.2h2.5v.5h-2Z"></path>
            <path class="cls-3" d="M157,89.8v4.2h-.5v-1.8h-2.1v1.8h-.5v-4.2h.5v1.8h2.1v-1.8h.5Z"></path>
            <path class="cls-3" d="M163.9,89.8l-1.6,4.2-1.6-4.2h.5l1.1,2.9,1.1-2.9h.5Z"></path>
            <path class="cls-3" d="M170.4,93.9h-.5l-.3-.8h-1.7l-.3.8h-.5l1.6-4.2,1.6,4.2h0ZM169.4,92.7l-.6-1.7-.7,1.7h1.3Z"></path>
          </g>
          <g class="cls-1">
            <path class="cls-3" d="M174.3,89.8v1.5h-.4v-1.5c0,0,.4,0,.4,0Z"></path>
          </g>
          <g class="cls-1">
            <path class="cls-3" d="M178.6,90.2v1.4h1.7v.5h-1.7v1.4h2v.5h-2.5v-4.2h2.5v.5h-2Z"></path>
            <path class="cls-3" d="M187.4,93.9h-.6l-1.3-1.8h-.7v1.8h-.5v-4.2h1.6c.6,0,1.1.5,1.1,1.1,0,.6-.4,1.1-1.1,1.2l1.3,1.8h0ZM186,91.6c.3,0,.5-.1.6-.3.1-.2.1-.5,0-.7-.1-.2-.4-.3-.6-.3h-1.1v1.4h1.1Z"></path>
            <path class="cls-3" d="M193.3,92.8h0c0,.6-.5,1.1-1.1,1.1h-.2c-.5,0-1-.4-1.1-.9h.5c0,.2.3.4.6.4h.2c.3,0,.6-.3.6-.6h0c0-.3-.2-.5-.4-.6l-.8-.3c-.5-.2-.8-.7-.7-1.2s.5-.9,1.1-.9h.2c.4,0,.8.2,1,.6l-.4.2c-.1-.2-.3-.3-.6-.3h-.2c-.3,0-.6.2-.6.5,0,.3.1.6.4.7l.8.3c.4.2.7.6.7,1h0Z"></path>
          </g>
        </g>
      </g>
    </g>
  </g>
</svg>
