<?xml version="1.0" encoding="UTF-8"?>
<svg xmlns="http://www.w3.org/2000/svg" version="1.1" viewBox="0 0 195 130">
  <g>
    <g id="Laag_1">
      <g>
        <path d="M33,54l-15.8-13h-4l15.8,13h6.7v-13h-2.6v13h-.1ZM55.9,52.1c-.8-.3-1.4-.6-2.2-.8-3.3-1.1-6.2-2.1-6.2-4.6s2.6-3.8,4.9-3.8,4.9,1.2,4.9,3.8v.7h2.6v-.7c0-4.3-3.8-6.2-7.4-6.2s-7.6,2.1-7.6,6.2,4,5.6,7.9,6.9c.8.2,1.6.6,2.3.8,2.9,1.1,4.3,2.9,4.3,5.2,0,4.8-5.3,5.1-6.9,5.1-3.3,0-6.9-1.7-6.9-5.5v-.7h-2.6v.7c0,5.6,4.9,8.1,9.5,8.1s9.6-3,9.6-7.7c-.1-3.7-2.1-6-6.2-7.7M13.2,54v13h2.6v-13l15.8,12.9h4l-15.8-12.9h-6.6ZM130,40.9l-11.1,5.7v-5.7h-2.6v10l13.7-7.1v-2.9ZM108,46.2c0-2.9-2.3-5.2-5.2-5.2h-11.6v10.4h11.6c2.8,0,5.2-2.3,5.2-5.1M93.7,43.6h9c1.4,0,2.7,1.2,2.7,2.7s-1.2,2.6-2.7,2.6h-9v-5.2ZM2.5,66.9h2.6v-26h-2.6v26ZM74.1,67.5h2.6v-16.2h-2.6v16.2ZM163.3,66.9h2.6v-26h-2.6v26ZM66.9,43.6h17v-2.7h-17v2.7ZM138.2,43.6h17v-2.7h-17v2.7ZM189.9,40.9l-7.2,20.1-7.2-20.1h-2.8l9.4,26h1.2l9.4-26s-2.7,0-2.7,0ZM91.1,56.5v10.4h2.6v-7.8h9.1l4.2,7.8h2.9l-5.6-10.4s-13.3,0-13.3,0ZM145.4,67.5h2.6v-16.2h-2.6v16.2ZM116.4,56.9v10.1h2.6v-8.5l5.3-2.6,6.7,11h2.9l-8.7-14.6-8.8,4.5Z"></path>
        <g>
          <path d="M42.3,87.5c0,.6.1,1,.4,1.3.3.2.8.4,1.4.4s1.1-.1,1.4-.4c.3-.2.6-.7.6-1.3v-5h.3v5c0,.8-.2,1.2-.6,1.6-.4.3-1,.4-1.8.4s-1.3-.1-1.7-.4c-.3-.3-.6-.9-.6-1.6v-5h.3v5Z"></path>
          <path d="M51.8,82.6c-1.2,0-1.8.4-1.8,1.4s.1.8.2.9c.1.1.1.2.2.2.1.1.2.1.3.2.2.1.7.1,1,.2.8.1,1.2.3,1.6.6.3.2.4.7.4,1.2s-.2,1.3-.6,1.7-.9.4-1.6.4-1,0-1.8-.1h-.3v-.3c.9.1,1.7.2,2.2.2,1.1,0,1.7-.6,1.7-1.8s-.1-.8-.3-1-.7-.3-1.2-.4c-.6-.1-.9-.1-1.1-.2-.2-.1-.4-.1-.7-.3-.2-.1-.3-.3-.4-.6-.1-.2-.1-.6-.1-.9,0-1.2.7-1.8,2.1-1.8s1,0,1.7.1h.3v.3c-.9,0-1.6-.1-1.9-.1Z"></path>
          <path d="M56.9,89.4v-7h4.1v.3h-3.8v2.9h3.1v.3h-3.1v3.1h3.8v.3s-4.1,0-4.1,0Z"></path>
          <path d="M64.3,86.5v2.9h-.3v-7h2.6c.7,0,1.2.1,1.6.4s.6.8.6,1.6c0,1.2-.4,1.9-1.4,2l1.6,3h-.4l-1.6-2.9s-2.5,0-2.5,0ZM68.2,84.4c0-.6-.1-1-.4-1.2-.2-.2-.7-.4-1.3-.4h-2.1v3.5h2.1c1.2,0,1.8-.6,1.8-1.8Z"></path>
          <path d="M75.3,89.4v-7h.3v7h-.3Z"></path>
          <path d="M79,89.4v-7h.9l3.3,6.7h.2v-6.7h.3v7h-.9l-3.3-6.7h-.2v6.7h-.3Z"></path>
          <path d="M89,82.6c-1.2,0-1.8.4-1.8,1.4s.1.8.2.9.1.2.2.2c.1.1.2.1.3.2.2.1.7.1,1,.2.8.1,1.2.3,1.6.6s.4.7.4,1.2-.2,1.3-.6,1.7-.9.4-1.6.4-1,0-1.8-.1h-.3v-.3c.9.1,1.7.2,2.2.2,1.1,0,1.7-.6,1.7-1.8s-.1-.8-.3-1c-.2-.2-.7-.3-1.2-.4-.6-.1-.9-.1-1.1-.2-.2-.1-.4-.1-.7-.3-.2-.1-.3-.3-.4-.6s-.1-.6-.1-.9c0-1.2.7-1.8,2.1-1.8s1,0,1.7.1h.3v.3c-.9,0-1.6-.1-1.9-.1Z"></path>
          <path d="M93.4,82.7v-.3h5v.3h-2.3v6.7h-.3v-6.7h-2.3Z"></path>
          <path d="M101.3,86.5v2.9h-.3v-7h2.6c.7,0,1.2.1,1.6.4.3.3.6.8.6,1.6,0,1.2-.4,1.9-1.4,2l1.6,3h-.4l-1.6-2.9s-2.5,0-2.5,0ZM105.2,84.4c0-.6-.1-1-.4-1.2-.2-.2-.7-.4-1.3-.4h-2.1v3.5h2.1c1.1,0,1.8-.6,1.8-1.8Z"></path>
          <path d="M108.9,87.5c0,.6.1,1,.4,1.3.3.2.8.4,1.4.4s1.1-.1,1.4-.4c.3-.2.6-.7.6-1.3v-5h.3v5c0,.8-.2,1.2-.6,1.6-.4.3-1,.4-1.8.4s-1.3-.1-1.7-.4c-.3-.3-.6-.9-.6-1.6v-5h.3v5h0Z"></path>
          <path d="M120.6,89.3c-.7.1-1.2.2-1.8.2s-1-.1-1.3-.2c-.3-.1-.6-.4-.8-.8s-.3-.7-.3-1.1c-.1-.4-.1-.9-.1-1.4v-1.3c0-.3.1-.7.2-1,.1-.3.2-.6.4-.8.4-.4,1-.7,1.8-.7s1.2.1,1.9.2v.3c-.7-.1-1.2-.2-1.7-.2s-.9,0-1.1.1-.4.2-.7.4c-.1.2-.2.4-.3.7-.1.3-.1.6-.1.9v2.2c0,.3.1.6.2.9s.2.6.3.7c.3.3.9.6,1.6.6s1.1-.1,1.8-.2v.6Z"></path>
          <path d="M122.7,82.7v-.3h5v.3h-2.3v6.7h-.3v-6.7h-2.3Z"></path>
          <path d="M130.3,89.4v-7h.3v7h-.3Z"></path>
          <path d="M134.2,88.6c-.2-.3-.3-.7-.4-1.1s-.1-.9-.1-1.6c0-1.2.2-2.1.6-2.8.3-.6,1.1-.9,2.1-.9s1.7.3,2.1.9c.3.6.6,1.6.6,2.8s-.2,2.1-.6,2.7-1.1.8-2.1.8c-1,.1-1.7-.2-2.1-.8ZM134.5,88.3c.1.3.4.6.7.7.3.1.7.2,1.2.2s.9-.1,1.2-.2c.3-.1.6-.3.7-.6.1-.3.2-.7.3-1,.1-.3.1-.9.1-1.4,0-1.1-.1-2-.4-2.5-.3-.6-.9-.8-1.8-.8s-1.6.3-1.9.9c-.1.3-.2.7-.3,1-.1.3-.1.9-.1,1.4s0,1,.1,1.4,0,.6.2.8Z"></path>
          <path d="M142.2,89.4v-7h.9l3.3,6.7h.2v-6.7h.3v7h-.9l-3.3-6.7h-.2v6.7h-.3Z"></path>
          <path d="M152.1,82.6c-1.2,0-1.8.4-1.8,1.4s.1.8.2.9c.1.1.1.2.2.2.1.1.2.1.3.2.2.1.7.1,1,.2.8.1,1.2.3,1.6.6.3.2.4.7.4,1.2s-.2,1.3-.6,1.7-.9.4-1.6.4-1,0-1.8-.1h-.3v-.3c.9.1,1.7.2,2.2.2,1.1,0,1.7-.6,1.7-1.8s-.1-.8-.3-1-.7-.3-1.2-.4c-.6-.1-.9-.1-1.1-.2-.2-.1-.4-.1-.7-.3-.2-.1-.3-.3-.4-.6-.1-.2-.1-.6-.1-.9,0-1.2.7-1.8,2.1-1.8s1,0,1.7.1h.3v.3c-.9,0-1.4-.1-1.9-.1Z"></path>
        </g>
      </g>
    </g>
  </g>
</svg>
