<?xml version="1.0" encoding="UTF-8"?>
<svg xmlns="http://www.w3.org/2000/svg" version="1.1" viewBox="0 0 195 130">
  <g>
    <g id="Laag_1">
      <g>
        <path d="M67.2,118.6v-.4c-.2,0-.2.2-.2.2-.4.2-.7.4-1.1.4-.9,0-1.4-.5-1.4-1.3s.9-1.4,2-1.4h.7c0-.5-.4-.7-.9-.7s-.5,0-1.1.4l-.4-.9c.5-.4,1.1-.4,1.6-.4.9,0,1.6.4,1.6,1.3v2.7h-.9v.2ZM67.2,116.6h-.5c-.5,0-1.3.2-1.3.7s.4.5.7.5.7-.2,1.1-.4v-.9Z"></path>
        <path d="M73.5,115.7c-.2-.2-.4-.2-.5-.2-.5,0-.9.4-.9.9v2.2h-.9v-4h.9v.5l.2-.2c.2-.2.5-.4.9-.4s.5,0,.9.4l-.5.7Z"></path>
        <path d="M78.4,118.6c-.4,0-.9,0-1.3-.5v.4h-.9v-6.7h.9v3.1c.4-.4.9-.5,1.3-.5,1.1,0,1.8.7,1.8,2s-.9,2.3-1.8,2.3M78.2,115.4c-.7,0-1.1.5-1.1,1.3s.5,1.3,1.1,1.3,1.1-.5,1.1-1.4-.5-1.1-1.1-1.1"></path>
        <path d="M83.3,116.8c0,.9.7,1.3,1.3,1.3s.9-.2,1.1-.5l.5.5c-.7.5-1.1.7-1.8.7-1.3,0-2.2-.7-2.2-2s.9-2.2,2-2.2,2,.5,2,2v.2h-2.9ZM84.3,115.2c-.5,0-.9.4-1.1.9h2.2c0-.5-.4-.9-1.1-.9"></path>
        <path d="M89,112.7h.9v.9h-.9v-.9ZM89,114.7h.9v4h-.9v-4Z"></path>
        <path d="M95.5,118.6v-.4c-.4.4-.9.5-1.3.5-1.1,0-1.8-.9-1.8-2s.9-2.2,1.8-2.2.7,0,1.1.4v-3.1h.9v6.7s-.7,0-.7,0ZM94.4,115.4c-.5,0-1.1.5-1.1,1.3s.5,1.3,1.1,1.3,1.1-.5,1.1-1.3-.4-1.3-1.1-1.3"></path>
        <path d="M100.6,118.6c-.5,0-1.1-.2-1.4-.4l.4-.7c.4.2.9.4,1.3.4s.7,0,.7-.4-.4-.5-.7-.5l-.4-.2c-.4-.2-.9-.4-.9-1.1s.5-1.1,1.4-1.1,1.1.2,1.4.4l-.4.5c-.2-.2-.5-.4-.9-.4s-.5.2-.5.4c0,.4.2.4.5.5l.4.2c.5.2,1.1.5,1.1,1.3-.4.7-1.1,1.1-2,1.1"></path>
        <path d="M107.2,115.7c-.2-.2-.4-.2-.5-.2-.5,0-.9.4-.9.9v2.2h-.9v-4h.9v.5l.2-.2c.2-.2.5-.4.9-.4s.5,0,.9.4l-.5.7Z"></path>
        <path d="M110.3,116.8c0,.9.7,1.3,1.3,1.3s.9-.2,1.1-.5l.5.5c-.7.5-1.1.7-1.8.7-1.3,0-2.2-.7-2.2-2s.9-2.2,2-2.2,2,.5,2,2v.2h-2.9ZM111.4,115.2c-.5,0-.9.4-1.1.9h2.2c0-.5-.4-.9-1.1-.9"></path>
        <path d="M117.7,118.6c-1.3,0-2.2-.7-2.2-2s.7-2,2.2-2,1.3.2,1.6.9l-.7.5c-.4-.4-.7-.5-1.1-.5-.7,0-1.1.5-1.1,1.3s.5,1.3,1.3,1.3.9-.2,1.3-.7l.5.5c-.5.5-1.1.7-1.8.7"></path>
        <path d="M124.5,118.6v-2.3c0-.5-.4-.9-.7-.9-.7,0-1.1.4-1.1.9v2.3h-.9v-6.7h.9v3.1c.4-.4.9-.5,1.3-.5.7,0,1.4.4,1.4,1.4v2.7h-.9Z"></path>
        <path d="M130,118.6c-.2,0-.5,0-.7-.2-.4-.2-.5-.5-.5-1.3v-1.6h-.7v-.9h.7v-1.6h.9v1.6h.9v.7h-.9v1.4c0,.5.2.9.5.9h.4v.7c-.2.2-.5.2-.5.2"></path>
        <path d="M74.2,128v-.4c-.2,0-.2.2-.2.2-.4.2-.7.4-1.1.4-.9,0-1.4-.5-1.4-1.3s.9-1.4,2-1.4h.7c0-.5-.4-.7-.9-.7s-.5,0-1.1.4l-.4-.7c.5-.4,1.1-.4,1.6-.4.9,0,1.6.4,1.6,1.3v2.7s-.9,0-.9,0ZM74.2,126.2h-.5c-.5,0-1.3.2-1.3.7s.4.5.7.5.7-.2,1.1-.4v-.9Z"></path>
        <path d="M80.9,128v-.4c-.4.4-.9.5-1.3.5-1.1,0-1.8-.9-1.8-2s.9-2.2,1.8-2.2.7,0,1.1.4v-3.1h.9v6.7s-.7,0-.7,0ZM79.7,124.9c-.5,0-1.1.5-1.1,1.3s.5,1.3,1.1,1.3,1.1-.5,1.1-1.3c.2-.9-.4-1.3-1.1-1.3"></path>
        <polygon points="85.8 128.4 84 124 84.9 124 85.8 126.4 86.9 124 87.8 124 85.8 128.4"></polygon>
        <path d="M91.7,128.2c-1.3,0-2.2-.9-2.2-2.2s.7-2.2,2.2-2.2,2.2.7,2.2,2.2-.9,2.2-2.2,2.2M91.7,124.7c-.7,0-1.3.5-1.3,1.4s.5,1.4,1.3,1.4,1.3-.5,1.3-1.4-.5-1.4-1.3-1.4"></path>
        <path d="M98.2,128.2c-1.3,0-2.2-.7-2.2-2s.7-2,2.2-2,1.3.2,1.6.9l-.5.4c-.4-.4-.7-.5-1.1-.5-.7,0-1.1.5-1.1,1.3s.5,1.3,1.3,1.3.9-.2,1.3-.7l.5.5c-.9.7-1.3.9-2,.9"></path>
        <path d="M104.9,128v-.4c-.2,0-.2.2-.2.2-.4.2-.7.4-1.1.4-.9,0-1.4-.5-1.4-1.3s.9-1.4,2-1.4h.7c0-.5-.4-.7-.9-.7s-.5,0-1.1.4l-.4-.7c.5-.4,1.1-.4,1.6-.4.9,0,1.6.4,1.6,1.3v2.7s-.9,0-.9,0ZM104.9,126.2h-.5c-.5,0-1.3.2-1.3.7s.4.5.7.5.7-.2,1.1-.4v-.9Z"></path>
        <path d="M110.1,128.2c-.2,0-.5,0-.7-.2-.4-.2-.5-.5-.5-1.3v-1.6h-.7v-.7h.7v-1.6h.9v1.6h.9v.7h-.9v1.4c0,.5.2.9.5.9h.4v.7c-.2,0-.4,0-.5,0"></path>
        <path d="M113.5,126.2c0,.9.7,1.3,1.3,1.3s.9-.2,1.1-.5l.5.5c-.7.5-1.1.7-1.8.7-1.3,0-2.2-.7-2.2-2s.9-2.2,2-2.2,2,.5,2,2v.2h-2.9ZM114.6,124.7c-.5,0-.9.4-1.1.9h2.2c0-.5-.4-.9-1.1-.9"></path>
        <path d="M121.8,128v-2.3c0-.5-.4-.9-.7-.9-.5,0-1.1.4-1.1.9v2.3h-.9v-4h.9v.4c.4-.4.9-.5,1.3-.5.7,0,1.4.4,1.4,1.4v2.7h-.9Z"></path>
        <path d="M114.3,99.1c-.5.4-1.1.5-1.6.5-1.3,0-2.3-.9-2.3-2.5s.9-2.5,2.2-2.5,1.1.2,1.6.5l1.4-1.6c-.7-.7-1.8-1.1-2.9-1.1-2.9,0-4.5,1.6-4.5,4.5s1.8,4.5,4.5,4.5,2.2-.4,3.1-1.1l-1.4-1.3Z"></path>
        <path d="M98,92.7c-2.3,0-4,1.6-4.3,4v.5h0v.2c0,2.7,1.8,4.5,4.5,4.5s2-.4,3.1-1.1l-1.4-1.4c-.5.4-1.1.5-1.6.5-1.1,0-2.2-.7-2.3-2h6.1v-.7c0-3.4-2.2-4.5-4-4.5M95.9,96.1c.2-1.1,1.1-1.6,2-1.6s1.8.5,1.8,1.6h-3.8Z"></path>
        <path d="M85.1,96.3l-.4-.2c-.9-.4-1.6-.5-1.6-1.1s.2-.4.2-.4h0c.2,0,.4-.2.5-.2h.2c.5,0,.9.2,1.3.5l.2.2.2.2.9-.9h0l.4-.4c-.7-.9-1.8-1.4-3.1-1.4h0c-.5,0-.9.2-1.3.2-.5.2-.9.5-1.3,1.1h0c-.2.4-.4.7-.4,1.3,0,1.3.9,1.8,1.8,2.2l.5.2,1.1.5c.4.2.5.4.5.7,0,.5-.5.9-1.1.9s-1.1-.4-1.4-.7l-.2-.2-1.3,1.4c.7.9,1.8,1.4,3.1,1.4,2,0,3.4-1.3,3.4-2.9-.2-1.4-1.3-2-2.3-2.5"></path>
        <path d="M122,24.9c.4-8.5-4.5-16.2-12.1-20.4-2-1.3-4.3-2-7-2.5h-.7c-2.9-.5-5.8-.4-8.3.2s-4.9,1.3-6.9,2.5c5.9,7.4,12.8,10.5,19.8,12.8,5.2,1.6,10.5,3.1,15.1,7.4"></path>
        <path d="M74.1,54.8c-.5,9,5.4,17.1,13,21.3,2,1.3,4.3,2,7,2.5h.7c2.9.5,5.8.4,8.3-.2s4.9-1.3,6.9-2.5c-5.9-7.4-12.8-10.5-19.8-12.8-5.2-1.6-11.5-3.8-16-8.3"></path>
        <path d="M101.3,49c6.9,2.5,13.7,4.1,19.3,12.8.2-.7.4-1.6.5-2.3,1.4-8.7-2.5-14.8-7.9-19.7h0c-5-4.3-10.5-6.7-15.9-8.5-7.4-2.7-14.8-4.3-20.6-15-.4,1.1-.5,2.2-.9,3.2-2,8.8,5.9,23.3,25.4,29.4"></path>
      </g>
    </g>
  </g>
</svg>
