<?xml version="1.0" encoding="UTF-8"?>
<svg xmlns="http://www.w3.org/2000/svg" version="1.1" viewBox="0 0 195 130">
  <g>
    <g id="Laag_1">
      <path d="M52.2,56.7c.4,0,.7.3.7.7s-.3.7-.7.7h-1.8l-2.3,4.4h7.8l1.6-2.7c.1-.2.4-.4.7-.4h3c.4,0,.7.3.7.7s-.3.7-.7.7h-2.5l-1.4,2.3,1.2,2.4c.6-.2,1.3-.4,1.9-.4,3.2,0,5.8,2.7,5.8,5.9s-2.7,5.8-5.8,5.8-5.5-2.2-5.8-5.2h-3c-.3,0-.5-.1-.7-.4l-3.8-7-1,1.8c1.6,1,2.5,2.8,2.5,4.8,0,3.2-2.7,5.8-5.8,5.8s-5.8-2.7-5.8-5.8,2.7-5.8,5.8-5.8,1.5.1,2.1.4l4.5-8.6c.2-.4.6-.6,1-.6h1.9ZM47.1,71.3c0-1.4-.7-2.7-1.7-3.5l-2,3.8c-.1.4-.7.5-1,.3-.4-.2-.5-.7-.3-1l2-3.8c-.4-.1-.9-.2-1.4-.2-2.4,0-4.4,1.9-4.4,4.4s2,4.4,4.4,4.4c2.4,0,4.4-2.1,4.4-4.5h0ZM60.8,70.8c.3.5-.1,1.3-.8,1.3h-4.1c.4,2.1,2.1,3.7,4.4,3.7s4.4-2,4.4-4.4-2-4.4-4.4-4.4-.9,0-1.3.2l1.9,3.7ZM59.1,70.7l-2.9-5.8-3.5,5.8h6.4ZM48.3,64l3.2,5.8,3.5-5.8h-6.7Z"></path>
      <g>
        <path d="M16.1,74c-.1.7-.4,1.3-1.2,1.3s-1.2-.7-1.3-1.5l-1.8-9.7h0l-2.1,10.2c-.1.6-.3,1-1,1s-1.1-.5-1.3-1.3l-2.2-8.8c0-.4-.2-.9-.4-1.3-.1-.3-.4-.4-.7-.4s-.5,0-1,0c-.4,0-.6-.3-.6-.7s.4-.7,1.1-.7,1.6.2,2.4.2,1.6-.2,2.4-.2.8.2.8.7-.2.6-.6.6-1,0-1.5,0-.7.2-.7.6,0,.7.2,1.4l1.6,7.7h0l1.9-9.5c.2-1.2.5-1.5,1.3-1.5s1.2.6,1.3,1.3l1.8,9.7h0l1.6-7.5c.1-.7.2-1,.2-1.6s-.3-.7-.7-.7-.7,0-1.3,0-.6-.3-.6-.6.3-.7.7-.7c.9,0,1.6.2,2.4.2s1.6-.2,2.4-.2.8.2.8.7-.2.6-.6.6-.6,0-.8,0-.5.1-.7.4c-.1.2-.2.7-.4,1.5l-2,8.6Z"></path>
        <path d="M24.9,71.5v1.3c0,1,.3,1.1,1.6,1.1h2.1c1.6,0,2.2-.2,2.2-1.6s0-1.1,0-1.6.1-.9.7-.9.7.4.7.8,0,1.3,0,1.8,0,1.3,0,1.8-.4.9-1.2.9c-2,0-4-.2-6.2-.2s-2.3.2-3.2.2-.8-.2-.8-.7.2-.6.6-.6.6,0,.9,0c.4,0,.8-.2.9-.7,0-.4,0-.8,0-2.3v-4.5c0-.6,0-1.8,0-2.3,0-.4-.4-.7-.9-.7s-.6,0-.9,0-.6-.3-.6-.6c0-.4.4-.7.8-.7.9,0,1.8.2,3.2.2,2.2,0,4.2-.2,6.2-.2s1,.2,1,.9-.1,1.3-.1,2,.1,1.3.1,1.8-.3.7-.7.7c-.6,0-.7-.4-.7-1.4s0-1.9-.4-2.4c-.3-.3-.7-.4-3-.4s-1.8,0-2.1.2c-.3.1-.4.4-.4,1.3v1.5c0,.5,0,.7.1.8.2.1.5.1,1,.1,1.2,0,1.6-.2,1.6-.8s0-.8,0-1.2.2-.7.7-.7.7.4.7.9-.2,1.4-.1,2.7c0,1.3.1,2,.1,2.7s-.3.7-.7.7-.7-.3-.7-.8,0-.8,0-1.3-.3-.8-1.5-.8-1,0-1.2.1c-.1.1-.1.3-.1,1.1v1.2h0Z"></path>
      </g>
      <g>
        <path d="M74.6,70.6c-.6,0-.8,0-1,.7l-.6,1.5c0,.2-.1.4-.1.6,0,.4.3.6.7.6s.7,0,1.2,0,.6.3.6.6c0,.4-.4.7-.8.7s-1.6-.2-2.4-.2-2,.2-2.4.2-.6-.2-.6-.7.2-.6.6-.6.6,0,.8,0,.4-.1.6-.4c.1-.3.4-.8.5-1.2l3.4-9.1c.3-.7.4-1,1.3-1s1,.3,1.2,1l3.2,9c.1.4.3.9.5,1.2.2.4.4.5.9.5s.5,0,1,0,.6.3.6.6c0,.4-.4.7-.8.7s-1.6-.2-2.4-.2-2,.2-2.4.2c-.7,0-1-.2-1-.7s.2-.6.6-.6c.6,0,.9,0,1.3,0s.6-.1.6-.5-.1-.6-.2-.7l-.5-1.4q-.3-.7-1-.7s-3,0-3,0ZM74.4,68.9c-.1.5,0,.5.4.5h2.5c0,0,.4,0,.4-.1s0-.2,0-.4l-1.6-4.9h0l-1.6,4.9Z"></path>
        <path d="M92.1,73.3h0l2.8-9.9c.1-.5.4-1.1,1-1.1s1.2.2,1.9.2,1.3-.2,1.9-.2.9.2.9.7-.2.6-.6.6-.6,0-.9,0c-.4,0-.8.2-.9.7-.1.5,0,1.7,0,2.3v4.5c0,.6,0,1.8,0,2.3,0,.4.4.7.9.7s.6,0,.9,0,.6.3.6.6c0,.4-.4.7-.9.7-.7,0-1.6-.2-2.4-.2s-1.5.2-2.4.2-.7-.2-.7-.7.2-.6.6-.6.6,0,.9,0c.4,0,.8-.2.9-.7.1-.5,0-1.7,0-2.3v-7.4c0,0,0,.1-.1.4l-3.1,10.3c-.2.7-.4.9-1,.9s-1-.2-1.2-.9l-3.1-10.3c0-.1,0-.4-.1-.4v7.4c0,.6,0,1.8,0,2.3.1.4.4.7.9.7s.6,0,.9,0,.6.3.6.6c0,.4-.2.7-.8.7s-1.6-.2-2.4-.2-1.6.2-2.4.2-.8-.2-.8-.7.2-.6.6-.6.6,0,.9,0c.4,0,.8-.2.9-.7.1-.5,0-1.7,0-2.3v-4.5c0-.6,0-1.8,0-2.3,0-.4-.4-.7-.9-.7s-.6,0-.9,0-.6-.3-.6-.6c0-.4.4-.7,1-.7s1.2.2,1.9.2,1.3-.2,1.9-.2,1,1,1.2,1.6l2.4,9.4Z"></path>
        <path d="M109.6,68.6c1,.6,1.5,1.6,1.5,2.7,0,2.6-2.1,4-4.6,4s-2.7-.4-3.5-1.3h0v.7c0,.4-.1.7-.6.7s-.7-.3-.7-1.3.1-1.4.1-2-.1-1.3-.1-1.8.2-.9.7-.9.7.4.7.8v.8c0,2,1.5,3,3.3,3s1.6-.1,2.1-.5c.7-.4,1-1.3,1-2,0-1.7-1.3-2.1-2.7-2.3-1-.1-2.3-.4-3.2-.8-1-.5-1.7-1.6-1.7-2.7s.4-2.1,1.3-2.8c.9-.7,2-1,3.1-1s2.2.3,3,1.2h0c0-.5.1-.9.6-.9s.7.4.7.8c0,.7-.1,1.3-.1,1.8s.1,1.2.1,1.6-.1.9-.7.9-.7-.3-.7-.7,0-.6,0-1c0-1.7-1.4-2.4-3-2.4s-2.7.7-2.7,2.2,1,1.8,3.2,2.2c.8.3,1.8.4,2.7,1Z"></path>
        <path d="M118.2,71c0,.6,0,1.8,0,2.3s.4.7.9.7.6,0,.9,0,.6.3.6.6c0,.4-.3.7-.7.7-.9,0-1.3-.2-2.5-.2s-1.6.2-2.5.2-.7-.2-.7-.7.2-.6.6-.6.6,0,.9,0c.4,0,.8-.1.9-.7,0-.5,0-1.7,0-2.3v-6c0-.4,0-1-.5-1.3-.4-.2-.8-.2-1.3-.2-1,0-1.7.1-1.7,1.3s.1,1.3.1,2.1-.2.9-.7.9-.7-.2-.7-.9.1-1,.1-1.6-.1-1.3-.1-2,.4-.9.7-.9c1.3,0,2.7.2,4.7.2s3.4-.2,4.7-.2.7.2.7.9-.1,1.3-.1,2,.1,1,.1,1.6-.3.9-.7.9-.7,0-.7-.9.1-1.2.1-2.1-.7-1.3-1.7-1.3-.9,0-1.3.2c-.4.2-.5.8-.5,1.3v6h.2Z"></path>
        <path d="M127.5,71.5v1.3c0,1,.3,1.1,1.6,1.1h2.1c1.6,0,2.2-.2,2.2-1.6s-.1-1.1-.1-1.6.1-.9.7-.9.7.4.7.8,0,1.3,0,1.8,0,1.3,0,1.8-.4.9-1.2.9c-2,0-4-.2-6.2-.2s-2.3.2-3.2.2-.8-.2-.8-.7.2-.6.6-.6.6,0,.9,0c.5,0,.8-.2.9-.7,0-.4,0-.8,0-2.3v-4.5c0-.6,0-1.8,0-2.3,0-.4-.4-.7-.9-.7s-.6,0-.9,0-.6-.3-.6-.6c0-.4.4-.7.8-.7.9,0,1.8.2,3.2.2,2.2,0,4.2-.2,6.2-.2s1,.2,1,.9-.1,1.3-.1,2,.1,1.3.1,1.8-.3.7-.7.7-.7-.4-.7-1.3c0-1.4,0-1.9-.4-2.4-.3-.3-.7-.4-3-.4s-1.8,0-2.1.2c-.2.1-.4.4-.4,1.3v1.5c0,.5,0,.7.1.8.2.1.5.1,1,.1,1.2,0,1.6-.2,1.6-.8s0-.8,0-1.2.2-.7.7-.7.7.4.7.9-.2,1.4-.1,2.7c0,1.3.1,2,.1,2.7s-.3.7-.7.7-.7-.3-.7-.8,0-.8,0-1.3-.3-.8-1.5-.8-1,0-1.2.1c-.1.1-.1.3-.1,1.1v1.1h0Z"></path>
        <path d="M146.4,72.4c0,.9,0,1.3,1,1.3s.6,0,.9,0,.7.2.7.7-.3.7-.7.7-.9,0-1.6,0c-1.6,0-1.9-1.1-1.9-2.4v-1.2c0-.7,0-1.6-.7-2-.4-.3-.7-.3-2.6-.3s-1.8.1-1.8.9v1c0,1.6,0,2.1,0,2.3.1.4.4.7.9.7s.6,0,.9,0,.6.3.6.6c0,.4-.4.7-.8.7-.7,0-1.6-.2-2.4-.2s-1.6.2-2.4.2-.8-.2-.8-.7.2-.6.6-.6.6,0,.9,0c.5,0,.8-.2.9-.7.1-.5,0-1.7,0-2.3v-4.5c0-.6,0-1.8,0-2.3,0-.4-.4-.7-.9-.7s-.6,0-.9,0-.6-.3-.6-.6c0-.4.4-.7.8-.7,1.1,0,2,.2,3,.2,1.6,0,2.6-.2,3.4-.2s2.1,0,2.8.6c.9.6,1.3,1.6,1.3,2.6,0,1.9-1.1,2.7-2.9,3h0c1.9.2,2.2,1.3,2.2,3v.9h0ZM139.8,67.4c0,.4,0,.5.6.5h1.5c.8,0,1.8,0,2.5-.4s1-1.1,1-1.9c0-1.8-1.3-2.2-2.9-2.2s-2.7.4-2.7,1v3Z"></path>
        <path d="M151.6,66.5c0-1.4,0-1.9,0-2.3-.1-.4-.4-.7-.9-.7s-.6,0-.9,0-.6-.3-.6-.6.3-.7.8-.7c.8,0,1.3.2,2.4.2s2.1-.2,3.4-.2,3.3.4,4.5,1.7c1.1,1.3,1.6,3,1.6,4.7s-.4,3.3-1.5,4.7c-1.1,1.3-2.9,1.8-4.6,1.8s-2.1-.2-3.4-.2-1.6.2-2.4.2-.9-.2-.9-.7.2-.6.6-.6.6,0,.9,0c.4,0,.8-.2.9-.7.1-.5,0-1.7,0-2.3v-4.6h0ZM153.1,72.4c0,1,0,1.1.3,1.3.3.1.9.2,2.1.2s2.7-.2,3.5-1.5c.7-1,1-2.4,1-3.5s-.3-2.9-1.2-3.9c-.9-1-2.2-1.3-3.5-1.3s-1.8,0-2,.3c-.1.1-.1.3-.1,1.1v7.3h0Z"></path>
        <path d="M166.9,70.6c-.6,0-.8,0-1,.7l-.6,1.5c0,.2-.1.4-.1.6,0,.4.3.6.7.6s.7,0,1.2,0,.6.3.6.6c0,.4-.4.7-.8.7s-1.6-.2-2.4-.2-2,.2-2.4.2-.6-.2-.6-.7.2-.6.6-.6.6,0,.8,0,.4-.1.6-.4c.1-.3.4-.8.5-1.2l3.4-9.1c.2-.7.4-1,1.3-1s1,.3,1.2,1l3.2,9c.1.4.3.9.5,1.2.2.4.4.5.9.5s.5,0,1,0,.6.3.6.6c0,.4-.4.7-.8.7s-1.6-.2-2.4-.2-2,.2-2.4.2c-.7,0-1-.2-1-.7s.2-.6.6-.6c.6,0,.9,0,1.3,0s.6-.1.6-.5-.1-.6-.2-.7l-.5-1.4q-.3-.7-1-.7s-3,0-3,0ZM166.7,68.9q-.1.5.4.5h2.5c.1,0,.4,0,.4-.1s0-.2,0-.4l-1.6-4.9h0l-1.6,4.9Z"></path>
        <path d="M184.4,73.3h0l2.8-9.9c.1-.5.3-1.1,1-1.1s1.2.2,1.9.2,1.3-.2,1.9-.2.9.2.9.7-.2.6-.6.6-.6,0-.9,0c-.5,0-.8.2-.9.7-.1.5,0,1.7,0,2.3v4.5c0,.6,0,1.8,0,2.3,0,.4.4.7.9.7s.6,0,.9,0,.6.3.6.6c0,.4-.4.7-.9.7-.7,0-1.6-.2-2.4-.2s-1.5.2-2.4.2-.7-.2-.7-.7.2-.6.6-.6.6,0,.9,0c.5,0,.8-.2.9-.7.1-.5,0-1.7,0-2.3v-7.4c0,0-.1.1-.1.4l-3.1,10.3c-.2.7-.4.9-1.1.9s-1-.2-1.2-.9l-3.1-10.3c0-.1-.1-.4-.1-.4v7.4c0,.6,0,1.8,0,2.3,0,.4.4.7.9.7s.6,0,.9,0,.6.3.6.6c0,.4-.2.7-.8.7s-1.6-.2-2.4-.2-1.6.2-2.4.2-.8-.2-.8-.7.2-.6.6-.6.6,0,.9,0c.4,0,.8-.2.9-.7.1-.5,0-1.7,0-2.3v-4.5c0-.6,0-1.8,0-2.3-.1-.4-.4-.7-.9-.7s-.6,0-.9,0-.6-.3-.6-.6c0-.4.4-.7,1-.7s1.2.2,1.9.2,1.3-.2,1.9-.2,1,1,1.2,1.6l2.4,9.4Z"></path>
      </g>
    </g>
  </g>
</svg>
